<svg width="11" height="161" viewBox="0 0 11 161" fill="none" xmlns="http://www.w3.org/2000/svg">
<path d="M8 87.336L2.4 87.336L2.4 86.264L6.352 83.88L6.352 84.448L2.4 82.104L2.4 81.04L8 81.024L8 82.24L4.264 82.248L4.264 82.024L7.408 83.896L7.408 84.48L4.264 86.392L4.264 86.12L8 86.12L8 87.336ZM8 78.8314L2.4 76.3354L2.4 75.0554L8 72.5514L8 73.9114L3.056 75.9594L3.056 75.4474L8 77.5034L8 78.8314ZM6.8 77.5834L5.816 77.2394L5.816 74.3594L6.8 74.0074L6.8 77.5834ZM6.72 69.2104L5.224 69.2824L2.4 66.6024L2.4 65.1624L5 67.5784L5.768 68.2984L6.72 69.2104ZM8 70.3704L2.4 70.3704L2.4 69.0824L8 69.0824L8 70.3704ZM8 66.5384L5.56 68.5304L4.64 67.6824L8 65.0264L8 66.5384ZM4.656 61.6565L4.656 58.9605L5.664 58.9605L5.664 61.6565L4.656 61.6565ZM6.96 61.5605L6.96 58.5125L8 58.5125L8 62.8485L2.4 62.8485L2.4 58.6165L3.44 58.6165L3.44 61.5605L6.96 61.5605ZM8 52.0157L2.4 52.0157L2.4 49.5917C2.4 49.0904 2.48266 48.6584 2.648 48.2957C2.808 47.933 3.04 47.653 3.344 47.4557C3.648 47.2584 4.01066 47.1597 4.432 47.1597C4.848 47.1597 5.208 47.2584 5.512 47.4557C5.81066 47.653 6.04 47.933 6.2 48.2957C6.36 48.6584 6.44 49.0904 6.44 49.5917L6.44 51.2957L5.872 50.7197L8 50.7197L8 52.0157ZM8 48.4557L5.968 49.8557L5.968 48.4717L8 47.0557L8 48.4557ZM6.016 50.7197L5.408 51.2957L5.408 49.6637C5.408 49.2637 5.32266 48.965 5.152 48.7677C4.976 48.5704 4.736 48.4717 4.432 48.4717C4.12266 48.4717 3.88266 48.5704 3.712 48.7677C3.54133 48.965 3.456 49.2637 3.456 49.6637L3.456 51.2957L2.84 50.7197L6.016 50.7197ZM4.656 43.3409L4.656 40.6449L5.664 40.6449L5.664 43.3409L4.656 43.3409ZM6.96 43.2449L6.96 40.1969L8 40.1969L8 44.5329L2.4 44.5329L2.4 40.3009L3.44 40.3009L3.44 43.2449L6.96 43.2449ZM8.096 34.8537C8.096 35.291 8.024 35.699 7.88 36.0777C7.736 36.451 7.53333 36.7764 7.272 37.0537C7.01066 37.3257 6.704 37.539 6.352 37.6937C6 37.843 5.616 37.9177 5.2 37.9177C4.784 37.9177 4.4 37.843 4.048 37.6937C3.696 37.539 3.38933 37.323 3.128 37.0457C2.86666 36.7684 2.664 36.443 2.52 36.0697C2.376 35.6964 2.304 35.291 2.304 34.8537C2.304 34.411 2.376 34.0057 2.52 33.6377C2.664 33.2644 2.86666 32.9417 3.128 32.6697C3.384 32.3924 3.688 32.1764 4.04 32.0217C4.392 31.867 4.77866 31.7897 5.2 31.7897C5.616 31.7897 6.00266 31.867 6.36 32.0217C6.712 32.1764 7.01866 32.3924 7.28 32.6697C7.536 32.9417 7.736 33.2644 7.88 33.6377C8.024 34.0057 8.096 34.411 8.096 34.8537ZM9.288 33.0217C9.288 33.2404 9.264 33.4484 9.216 33.6457C9.168 33.8377 9.09066 34.0297 8.984 34.2217C8.87733 34.4084 8.73333 34.6057 8.552 34.8137C8.37066 35.0164 8.14666 35.2377 7.88 35.4777L7.536 34.1177C7.73333 33.9737 7.89066 33.8404 8.008 33.7177C8.12533 33.595 8.208 33.4777 8.256 33.3657C8.304 33.2484 8.328 33.1257 8.328 32.9977C8.328 32.6564 8.18933 32.3524 7.912 32.0857L8.6 31.5097C9.05866 31.8884 9.288 32.3924 9.288 33.0217ZM6.992 34.8537C6.992 34.603 6.94933 34.3737 6.864 34.1657C6.77866 33.9524 6.656 33.7657 6.496 33.6057C6.336 33.4457 6.14666 33.323 5.928 33.2377C5.704 33.147 5.46133 33.1017 5.2 33.1017C4.93333 33.1017 4.69066 33.147 4.472 33.2377C4.25333 33.323 4.064 33.4457 3.904 33.6057C3.744 33.7657 3.62133 33.9524 3.536 34.1657C3.45066 34.3737 3.408 34.603 3.408 34.8537C3.408 35.1044 3.45066 35.3364 3.536 35.5497C3.62133 35.763 3.744 35.9497 3.904 36.1097C4.064 36.2644 4.25333 36.387 4.472 36.4777C4.69066 36.563 4.93333 36.6057 5.2 36.6057C5.46133 36.6057 5.704 36.563 5.928 36.4777C6.14666 36.387 6.336 36.2644 6.496 36.1097C6.656 35.9497 6.77866 35.763 6.864 35.5497C6.94933 35.3364 6.992 35.1044 6.992 34.8537ZM8.096 26.7277C8.096 27.5224 7.87466 28.1437 7.432 28.5917C6.98933 29.0397 6.35733 29.2637 5.536 29.2637L2.4 29.2637L2.4 27.9677L5.488 27.9677C6.02133 27.9677 6.40533 27.8584 6.64 27.6397C6.87466 27.421 6.992 27.1144 6.992 26.7197C6.992 26.325 6.87466 26.0184 6.64 25.7997C6.40533 25.581 6.02133 25.4717 5.488 25.4717L2.4 25.4717L2.4 24.1917L5.536 24.1917C6.35733 24.1917 6.98933 24.4157 7.432 24.8637C7.87466 25.3117 8.096 25.933 8.096 26.7277ZM4.656 20.119L4.656 17.423L5.664 17.423L5.664 20.119L4.656 20.119ZM6.96 20.023L6.96 16.975L8 16.975L8 21.311L2.4 21.311L2.4 17.079L3.44 17.079L3.44 20.023L6.96 20.023ZM8.096 12.5038C8.096 12.9518 8.03733 13.3811 7.92 13.7918C7.79733 14.2025 7.64 14.5331 7.448 14.7838L6.472 14.3438C6.64266 14.1038 6.784 13.8211 6.896 13.4958C7.00266 13.1651 7.056 12.8318 7.056 12.4958C7.056 12.2398 7.032 12.0345 6.984 11.8798C6.93066 11.7198 6.85866 11.6025 6.768 11.5278C6.67733 11.4531 6.57333 11.4158 6.456 11.4158C6.30666 11.4158 6.18933 11.4745 6.104 11.5918C6.01333 11.7091 5.94133 11.8638 5.888 12.0558C5.82933 12.2478 5.776 12.4611 5.728 12.6958C5.67466 12.9251 5.61066 13.1571 5.536 13.3918C5.46133 13.6211 5.36533 13.8318 5.248 14.0238C5.13066 14.2158 4.976 14.3731 4.784 14.4958C4.592 14.6131 4.34666 14.6718 4.048 14.6718C3.728 14.6718 3.43733 14.5865 3.176 14.4158C2.90933 14.2398 2.69866 13.9785 2.544 13.6318C2.384 13.2798 2.304 12.8398 2.304 12.3118C2.304 11.9598 2.34666 11.6131 2.432 11.2718C2.512 10.9305 2.63466 10.6291 2.8 10.3678L3.784 10.7678C3.63466 11.0291 3.52533 11.2905 3.456 11.5518C3.38133 11.8131 3.344 12.0691 3.344 12.3198C3.344 12.5705 3.37333 12.7758 3.432 12.9358C3.49066 13.0958 3.568 13.2105 3.664 13.2798C3.75466 13.3491 3.86133 13.3838 3.984 13.3838C4.128 13.3838 4.24533 13.3251 4.336 13.2078C4.42133 13.0905 4.49066 12.9358 4.544 12.7438C4.59733 12.5518 4.65066 12.3411 4.704 12.1118C4.75733 11.8771 4.81866 11.6451 4.888 11.4158C4.95733 11.1811 5.05066 10.9678 5.168 10.7758C5.28533 10.5838 5.44 10.4291 5.632 10.3118C5.824 10.1891 6.06666 10.1278 6.36 10.1278C6.67466 10.1278 6.96266 10.2158 7.224 10.3918C7.48533 10.5678 7.696 10.8318 7.856 11.1838C8.016 11.5305 8.096 11.9705 8.096 12.5038ZM8 6.56038L3.456 6.56038L3.456 8.35238L2.4 8.35238L2.4 3.47238L3.456 3.47238L3.456 5.26438L8 5.26438L8 6.56038Z" fill="white" fill-opacity="0.13"/>
<rect x="5" y="161" width="57" height="1" transform="rotate(-90 5 161)" fill="white" fill-opacity="0.04"/>
</svg>
