<svg width="57" height="354" viewBox="0 0 57 354" fill="none" xmlns="http://www.w3.org/2000/svg">
<path d="M28.592 336.496L29.047 336.703L29.0481 336.701L28.592 336.496ZM40.048 333.104L40.3202 332.685L40.3169 332.682L40.048 333.104ZM42.864 336.496L43.3215 336.294L43.3201 336.291L42.864 336.496ZM43.824 346.16L43.324 346.16L43.324 346.66L43.824 346.66L43.824 346.16ZM50 346.16L50.5 346.16L50.5 345.66L50 345.66L50 346.16ZM50 351.344L50 351.844L50.5 351.844L50.5 351.344L50 351.344ZM27.6 351.344L27.1 351.344L27.1 351.844L27.6 351.844L27.6 351.344ZM38.608 338.384L38.9955 338.068L38.9905 338.062L38.608 338.384ZM32.848 338.384L33.2305 338.706L33.2354 338.7L32.848 338.384ZM31.824 346.16L31.324 346.16L31.324 346.66L31.824 346.66L31.824 346.16ZM39.6 346.16L39.6 346.66L40.1 346.66L40.1 346.16L39.6 346.16ZM28.1 341.648C28.1 339.719 28.4216 338.075 29.047 336.703L28.137 336.289C27.4397 337.818 27.1 339.609 27.1 341.648L28.1 341.648ZM29.0481 336.701C29.6746 335.306 30.5538 334.255 31.6802 333.523L31.1358 332.685C29.8302 333.532 28.832 334.742 28.1359 336.291L29.0481 336.701ZM31.6802 333.523C32.8037 332.794 34.146 332.42 35.728 332.42L35.728 331.42C33.982 331.42 32.4443 331.835 31.1358 332.685L31.6802 333.523ZM35.728 332.42C37.2871 332.42 38.6314 332.793 39.7791 333.526L40.3169 332.682C38.9899 331.836 37.4542 331.42 35.728 331.42L35.728 332.42ZM39.7758 333.523C40.9022 334.255 41.7814 335.306 42.4079 336.701L43.3201 336.291C42.624 334.742 41.6258 333.532 40.3202 332.685L39.7758 333.523ZM42.4065 336.698C43.0124 338.071 43.324 339.717 43.324 341.648L44.324 341.648C44.324 339.611 43.9956 337.822 43.3215 336.294L42.4065 336.698ZM43.324 341.648L43.324 346.16L44.324 346.16L44.324 341.648L43.324 341.648ZM43.824 346.66L50 346.66L50 345.66L43.824 345.66L43.824 346.66ZM49.5 346.16L49.5 351.344L50.5 351.344L50.5 346.16L49.5 346.16ZM50 350.844L27.6 350.844L27.6 351.844L50 351.844L50 350.844ZM28.1 351.344L28.1 341.648L27.1 341.648L27.1 351.344L28.1 351.344ZM40.1 341.936C40.1 340.318 39.7577 339.002 38.9954 338.068L38.2206 338.7C38.781 339.387 39.1 340.44 39.1 341.936L40.1 341.936ZM38.9905 338.062C38.1964 337.119 37.0854 336.668 35.728 336.668L35.728 337.668C36.8453 337.668 37.6542 338.028 38.2255 338.706L38.9905 338.062ZM35.728 336.668C34.3529 336.668 33.2363 337.117 32.4606 338.068L33.2354 338.7C33.7824 338.03 34.5858 337.668 35.728 337.668L35.728 336.668ZM32.4655 338.062C31.6783 338.997 31.324 340.315 31.324 341.936L32.324 341.936C32.324 340.443 32.6523 339.393 33.2305 338.706L32.4655 338.062ZM31.324 341.936L31.324 346.16L32.324 346.16L32.324 341.936L31.324 341.936ZM31.824 346.66L39.6 346.66L39.6 345.66L31.824 345.66L31.824 346.66ZM40.1 346.16L40.1 341.936L39.1 341.936L39.1 346.16L40.1 346.16ZM42.8 310.554L43.3 310.554L43.3 310.091L42.8383 310.056L42.8 310.554ZM42.8 323.578L42.3 323.578L42.3 324.2L42.9074 324.067L42.8 323.578ZM45.328 321.914L44.9198 321.626L44.9198 321.626L45.328 321.914ZM45.872 316.282L46.3402 316.107L46.3372 316.099L45.872 316.282ZM44.592 314.33L44.253 313.963L43.8772 314.309L44.2321 314.677L44.592 314.33ZM47.472 311.674L47.8009 311.298L47.4629 311.002L47.133 311.307L47.472 311.674ZM49.136 323.93L49.5807 324.159L49.5832 324.154L49.136 323.93ZM45.968 327.386L46.2262 327.814L46.2262 327.814L45.968 327.386ZM36.848 327.418L36.5927 327.848L36.5948 327.849L36.848 327.418ZM33.68 324.122L34.1202 323.885L34.1189 323.883L33.68 324.122ZM33.616 314.842L33.1744 314.608L33.1744 314.608L33.616 314.842ZM36.752 311.642L36.9972 312.078L37.0052 312.073L36.752 311.642ZM37.264 322.234L36.8799 322.554L36.8799 322.554L37.264 322.234ZM39.888 323.642L39.812 324.136L40.388 324.225L40.388 323.642L39.888 323.642ZM39.888 315.162L40.388 315.162L40.388 314.578L39.8105 314.668L39.888 315.162ZM37.296 316.57L37.6749 316.897L37.6801 316.89L37.296 316.57ZM41.456 310.958C41.4528 310.958 41.475 310.959 41.5448 310.963C41.6066 310.967 41.6929 310.973 41.8044 310.981C42.027 310.997 42.3459 311.021 42.7616 311.053L42.8383 310.056C42.0249 309.993 41.5453 309.958 41.456 309.958L41.456 310.958ZM42.3 310.554L42.3 323.578L43.3 323.578L43.3 310.554L42.3 310.554ZM42.9074 324.067C44.0931 323.806 45.0441 323.181 45.7362 322.203L44.9198 321.626C44.3746 322.396 43.6402 322.881 42.6926 323.09L42.9074 324.067ZM45.7362 322.203C46.4264 321.227 46.756 320.032 46.756 318.65L45.756 318.65C45.756 319.871 45.4669 320.852 44.9198 321.626L45.7362 322.203ZM46.756 318.65C46.756 317.708 46.6214 316.857 46.3402 316.107L45.4038 316.458C45.6346 317.073 45.756 317.801 45.756 318.65L46.756 318.65ZM46.3372 316.099C46.0336 315.328 45.569 314.623 44.9519 313.983L44.2321 314.677C44.767 315.232 45.1557 315.828 45.4068 316.466L46.3372 316.099ZM44.931 314.698L47.811 312.042L47.133 311.307L44.253 313.963L44.931 314.698ZM47.1431 312.051C48.8629 313.553 49.756 315.767 49.756 318.778L50.756 318.778C50.756 315.56 49.7931 313.038 47.8009 311.298L47.1431 312.051ZM49.756 318.778C49.756 320.655 49.3955 322.293 48.6888 323.707L49.5832 324.154C50.3698 322.581 50.756 320.785 50.756 318.778L49.756 318.778ZM48.6914 323.702C47.9627 325.118 46.9687 326.199 45.7098 326.958L46.2262 327.814C47.6553 326.952 48.7733 325.729 49.5806 324.159L48.6914 323.702ZM45.7098 326.958C44.4504 327.718 43.0159 328.102 41.392 328.102L41.392 329.102C43.1815 329.102 44.7976 328.676 46.2262 327.814L45.7098 326.958ZM41.392 328.102C39.7882 328.102 38.3622 327.728 37.1012 326.987L36.5948 327.849C38.0218 328.687 39.6251 329.102 41.392 329.102L41.392 328.102ZM37.1033 326.988C35.8153 326.224 34.8235 325.191 34.1202 323.885L33.2398 324.359C34.0298 325.827 35.1501 326.992 36.5927 327.848L37.1033 326.988ZM34.1189 323.883C33.3941 322.554 33.028 321.069 33.028 319.418L32.028 319.418C32.028 321.223 32.4299 322.875 33.241 324.362L34.1189 323.883ZM33.028 319.418C33.028 317.807 33.374 316.364 34.0576 315.077L33.1744 314.608C32.4073 316.052 32.028 317.659 32.028 319.418L33.028 319.418ZM34.0576 315.077C34.7374 313.797 35.714 312.8 36.9971 312.078L36.5069 311.206C35.0593 312.021 33.9453 313.157 33.1744 314.608L34.0576 315.077ZM37.0052 312.073C38.2616 311.336 39.7395 310.958 41.456 310.958L41.456 309.958C39.5885 309.958 37.9304 310.37 36.4988 311.211L37.0052 312.073ZM35.804 319.386C35.804 320.618 36.1552 321.685 36.8799 322.554L37.6481 321.914C37.0928 321.248 36.804 320.416 36.804 319.386L35.804 319.386ZM36.8799 322.554C37.6076 323.428 38.598 323.95 39.812 324.136L39.964 323.148C38.9593 322.993 38.2004 322.577 37.6481 321.914L36.8799 322.554ZM40.388 323.642L40.388 315.162L39.388 315.162L39.388 323.642L40.388 323.642ZM39.8105 314.668C38.6157 314.856 37.6377 315.379 36.9119 316.25L37.6801 316.89C38.2343 316.225 38.9843 315.81 39.9655 315.656L39.8105 314.668ZM36.9171 316.244C36.17 317.112 35.804 318.169 35.804 319.386L36.804 319.386C36.804 318.384 37.0993 317.565 37.6749 316.897L36.9171 316.244ZM35.056 301.087L35.056 301.587L36.6098 301.587L35.3476 300.681L35.056 301.087ZM33.168 298.687L32.7064 298.879L32.7079 298.883L33.168 298.687ZM32.528 295.167L32.528 294.667L32.028 294.667L32.028 295.167L32.528 295.167ZM37.136 295.167L37.6345 295.205L37.6759 294.667L37.136 294.667L37.136 295.167ZM38.288 299.647L38.6463 299.298L38.6416 299.293L38.288 299.647ZM50 300.863L50.5 300.863L50.5 300.363L50 300.363L50 300.863ZM50 305.855L50 306.355L50.5 306.355L50.5 305.855L50 305.855ZM32.784 305.855L32.284 305.855L32.284 306.355L32.784 306.355L32.784 305.855ZM32.784 301.087L32.784 300.587L32.284 300.587L32.284 301.087L32.784 301.087ZM35.3476 300.681C34.5948 300.14 34.0213 299.415 33.6281 298.491L32.7079 298.883C33.168 299.964 33.8532 300.839 34.7644 301.493L35.3476 300.681ZM33.6295 298.494C33.2326 297.542 33.028 296.436 33.028 295.167L32.028 295.167C32.028 296.543 32.25 297.784 32.7065 298.879L33.6295 298.494ZM32.528 295.667L37.136 295.667L37.136 294.667L32.528 294.667L32.528 295.667ZM36.6375 295.128C36.595 295.68 36.572 296.073 36.572 296.287L37.572 296.287C37.572 296.117 37.5916 295.762 37.6345 295.205L36.6375 295.128ZM36.572 296.287C36.572 297.814 37.0081 299.074 37.9344 300L38.6416 299.293C37.9466 298.598 37.572 297.618 37.572 296.287L36.572 296.287ZM37.9298 299.996C38.8465 300.937 40.1938 301.363 41.872 301.363L41.872 300.363C40.3502 300.363 39.3081 299.978 38.6462 299.298L37.9298 299.996ZM41.872 301.363L50 301.363L50 300.363L41.872 300.363L41.872 301.363ZM49.5 300.863L49.5 305.855L50.5 305.855L50.5 300.863L49.5 300.863ZM50 305.355L32.784 305.355L32.784 306.355L50 306.355L50 305.355ZM33.284 305.855L33.284 301.087L32.284 301.087L32.284 305.855L33.284 305.855ZM32.784 301.587L35.056 301.587L35.056 300.587L32.784 300.587L32.784 301.587ZM33.168 285.321L33.168 285.821L33.668 285.821L33.668 285.321L33.168 285.321ZM33.168 280.905L33.168 280.405L32.668 280.405L32.668 280.905L33.168 280.905ZM37.008 280.905L37.508 280.905L37.508 280.405L37.008 280.405L37.008 280.905ZM37.008 285.193L36.508 285.193L36.508 285.693L37.008 285.693L37.008 285.193ZM50 285.193L50.5 285.193L50.5 284.693L50 284.693L50 285.193ZM50 290.185L50 290.685L50.5 290.685L50.5 290.185L50 290.185ZM37.008 290.185L37.008 289.685L36.508 289.685L36.508 290.185L37.008 290.185ZM37.008 292.841L37.008 293.341L37.508 293.341L37.508 292.841L37.008 292.841ZM33.168 292.841L32.668 292.841L32.668 293.341L33.168 293.341L33.168 292.841ZM33.168 290.185L33.668 290.185L33.668 289.685L33.168 289.685L33.168 290.185ZM27.728 288.457L27.3712 288.808L27.3744 288.811L27.728 288.457ZM26.256 281.417L26.7401 281.542L26.7425 281.533L26.7444 281.524L26.256 281.417ZM26.928 279.721L27.0985 279.251L26.7296 279.118L26.512 279.444L26.928 279.721ZM30.544 281.033L30.9529 281.321L31.3292 280.787L30.7145 280.563L30.544 281.033ZM33.668 285.321L33.668 280.905L32.668 280.905L32.668 285.321L33.668 285.321ZM33.168 281.405L37.008 281.405L37.008 280.405L33.168 280.405L33.168 281.405ZM36.508 280.905L36.508 285.193L37.508 285.193L37.508 280.905L36.508 280.905ZM37.008 285.693L50 285.693L50 284.693L37.008 284.693L37.008 285.693ZM49.5 285.193L49.5 290.185L50.5 290.185L50.5 285.193L49.5 285.193ZM50 289.685L37.008 289.685L37.008 290.685L50 290.685L50 289.685ZM36.508 290.185L36.508 292.841L37.508 292.841L37.508 290.185L36.508 290.185ZM37.008 292.341L33.168 292.341L33.168 293.341L37.008 293.341L37.008 292.341ZM33.668 292.841L33.668 290.185L32.668 290.185L32.668 292.841L33.668 292.841ZM33.168 289.685L32.4 289.685L32.4 290.685L33.168 290.685L33.168 289.685ZM32.4 289.685C30.5409 289.685 29.1211 289.143 28.0815 288.104L27.3744 288.811C28.6389 290.076 30.3337 290.685 32.4 290.685L32.4 289.685ZM28.0848 288.107C27.0486 287.052 26.5 285.549 26.5 283.529L25.5 283.529C25.5 285.734 26.1034 287.516 27.3712 288.808L28.0848 288.107ZM26.5 283.529C26.5 282.821 26.5809 282.159 26.7401 281.542L25.7719 281.293C25.5897 281.998 25.5 282.745 25.5 283.529L26.5 283.529ZM26.7444 281.524C26.8842 280.885 27.0885 280.382 27.344 279.999L26.512 279.444C26.1702 279.957 25.9264 280.584 25.7675 281.311L26.7444 281.524ZM26.7575 280.192L30.3735 281.504L30.7145 280.563L27.0985 279.251L26.7575 280.192ZM30.1351 280.746C29.6651 281.414 29.436 282.188 29.436 283.049L30.436 283.049C30.436 282.375 30.6122 281.805 30.9529 281.321L30.1351 280.746ZM29.436 283.049C29.436 283.897 29.6708 284.62 30.2234 285.123C30.7671 285.618 31.5339 285.821 32.432 285.821L32.432 284.821C31.666 284.821 31.1849 284.646 30.8966 284.384C30.6172 284.129 30.436 283.717 30.436 283.049L29.436 283.049ZM32.432 285.821L33.168 285.821L33.168 284.821L32.432 284.821L32.432 285.821ZM42.8 260.589L43.3 260.589L43.3 260.126L42.8383 260.091L42.8 260.589ZM42.8 273.613L42.3 273.613L42.3 274.235L42.9074 274.102L42.8 273.613ZM45.328 271.949L44.9198 271.661L44.9198 271.661L45.328 271.949ZM45.872 266.317L46.3402 266.142L46.3372 266.134L45.872 266.317ZM44.592 264.365L44.253 263.998L43.8772 264.344L44.2321 264.712L44.592 264.365ZM47.472 261.709L47.8009 261.333L47.4629 261.037L47.133 261.342L47.472 261.709ZM49.136 273.965L49.5807 274.194L49.5832 274.189L49.136 273.965ZM45.968 277.421L46.2262 277.849L46.2262 277.849L45.968 277.421ZM36.848 277.453L36.5927 277.883L36.5948 277.884L36.848 277.453ZM33.68 274.157L34.1202 273.92L34.1189 273.918L33.68 274.157ZM33.616 264.877L33.1744 264.643L33.1744 264.643L33.616 264.877ZM36.752 261.677L36.9972 262.113L37.0052 262.108L36.752 261.677ZM37.264 272.269L36.8799 272.589L36.8799 272.589L37.264 272.269ZM39.888 273.677L39.812 274.171L40.388 274.26L40.388 273.677L39.888 273.677ZM39.888 265.197L40.388 265.197L40.388 264.613L39.8105 264.703L39.888 265.197ZM37.296 266.605L37.6749 266.932L37.6801 266.925L37.296 266.605ZM41.456 260.993C41.4528 260.993 41.475 260.994 41.5448 260.998C41.6066 261.002 41.6929 261.008 41.8044 261.016C42.027 261.032 42.3459 261.056 42.7616 261.088L42.8383 260.091C42.0249 260.028 41.5453 259.993 41.456 259.993L41.456 260.993ZM42.3 260.589L42.3 273.613L43.3 273.613L43.3 260.589L42.3 260.589ZM42.9074 274.102C44.0931 273.841 45.0441 273.216 45.7362 272.238L44.9198 271.661C44.3746 272.431 43.6402 272.916 42.6926 273.125L42.9074 274.102ZM45.7362 272.238C46.4264 271.262 46.756 270.067 46.756 268.685L45.756 268.685C45.756 269.906 45.4669 270.887 44.9198 271.661L45.7362 272.238ZM46.756 268.685C46.756 267.743 46.6214 266.892 46.3402 266.142L45.4038 266.493C45.6346 267.108 45.756 267.836 45.756 268.685L46.756 268.685ZM46.3372 266.134C46.0336 265.363 45.569 264.658 44.9519 264.018L44.2321 264.712C44.767 265.267 45.1557 265.863 45.4068 266.501L46.3372 266.134ZM44.931 264.733L47.811 262.077L47.133 261.342L44.253 263.998L44.931 264.733ZM47.1431 262.086C48.8629 263.588 49.756 265.802 49.756 268.813L50.756 268.813C50.756 265.595 49.7931 263.073 47.8009 261.333L47.1431 262.086ZM49.756 268.813C49.756 270.69 49.3955 272.328 48.6888 273.742L49.5832 274.189C50.3698 272.616 50.756 270.82 50.756 268.813L49.756 268.813ZM48.6914 273.737C47.9627 275.153 46.9687 276.234 45.7097 276.993L46.2262 277.849C47.6553 276.987 48.7733 275.764 49.5806 274.194L48.6914 273.737ZM45.7098 276.993C44.4504 277.753 43.0159 278.137 41.392 278.137L41.392 279.137C43.1815 279.137 44.7976 278.711 46.2262 277.849L45.7098 276.993ZM41.392 278.137C39.7882 278.137 38.3622 277.763 37.1012 277.022L36.5948 277.884C38.0218 278.722 39.6251 279.137 41.392 279.137L41.392 278.137ZM37.1033 277.023C35.8153 276.259 34.8235 275.226 34.1202 273.92L33.2398 274.394C34.0298 275.862 35.1501 277.027 36.5927 277.883L37.1033 277.023ZM34.1189 273.918C33.3941 272.589 33.028 271.104 33.028 269.453L32.028 269.453C32.028 271.258 32.4299 272.91 33.241 274.397L34.1189 273.918ZM33.028 269.453C33.028 267.842 33.374 266.399 34.0576 265.112L33.1744 264.643C32.4073 266.087 32.028 267.694 32.028 269.453L33.028 269.453ZM34.0576 265.112C34.7374 263.832 35.714 262.835 36.9971 262.113L36.5069 261.241C35.0593 262.056 33.9453 263.192 33.1744 264.643L34.0576 265.112ZM37.0052 262.108C38.2616 261.371 39.7395 260.993 41.456 260.993L41.456 259.993C39.5885 259.993 37.9304 260.405 36.4988 261.246L37.0052 262.108ZM35.804 269.421C35.804 270.653 36.1552 271.72 36.8799 272.589L37.6481 271.949C37.0928 271.283 36.804 270.451 36.804 269.421L35.804 269.421ZM36.8799 272.589C37.6076 273.463 38.598 273.985 39.812 274.171L39.964 273.183C38.9593 273.028 38.2004 272.612 37.6481 271.949L36.8799 272.589ZM40.388 273.677L40.388 265.197L39.388 265.197L39.388 273.677L40.388 273.677ZM39.8105 264.703C38.6157 264.891 37.6377 265.414 36.9119 266.285L37.6801 266.925C38.2343 266.26 38.9843 265.845 39.9655 265.691L39.8105 264.703ZM36.9171 266.279C36.17 267.147 35.804 268.204 35.804 269.421L36.804 269.421C36.804 268.419 37.0993 267.6 37.6749 266.932L36.9171 266.279ZM49.136 252.53L49.578 252.764L49.5819 252.756L49.136 252.53ZM45.968 255.954L46.2263 256.382L46.2312 256.379L45.968 255.954ZM36.816 255.954L36.5528 256.379L36.5577 256.382L36.816 255.954ZM33.68 252.53L34.1246 252.301L34.1233 252.298L33.68 252.53ZM33.68 242.834L34.1142 243.082L34.1187 243.074L33.68 242.834ZM36.912 239.858L37.3525 239.621L37.1338 239.214L36.7109 239.4L36.912 239.858ZM38.992 243.73L39.2388 244.165L39.6636 243.923L39.4325 243.493L38.992 243.73ZM37.904 250.834L37.5504 251.187L37.5504 251.187L37.904 250.834ZM43.792 243.73L43.353 243.49L43.1152 243.926L43.5497 244.167L43.792 243.73ZM45.904 239.858L46.1104 239.402L45.6874 239.211L45.465 239.618L45.904 239.858ZM49.104 242.834L48.6682 243.079L48.6699 243.082L49.104 242.834ZM49.756 247.57C49.756 249.335 49.3974 250.909 48.6901 252.304L49.5819 252.756C50.3679 251.206 50.756 249.474 50.756 247.57L49.756 247.57ZM48.6941 252.296C47.966 253.671 46.9704 254.745 45.7048 255.529L46.2312 256.379C47.6536 255.498 48.77 254.29 49.5779 252.764L48.6941 252.296ZM45.7097 255.526C44.4504 256.285 43.0159 256.67 41.392 256.67L41.392 257.67C43.1815 257.67 44.7975 257.244 46.2262 256.382L45.7097 255.526ZM41.392 256.67C39.7681 256.67 38.3335 256.285 37.0742 255.526L36.5577 256.382C37.9864 257.244 39.6025 257.67 41.392 257.67L41.392 256.67ZM37.0792 255.529C35.8149 254.746 34.8311 253.674 34.1246 252.301L33.2354 252.759C34.0222 254.287 35.1291 255.498 36.5528 256.379L37.0792 255.529ZM34.1233 252.298C33.3963 250.905 33.028 249.332 33.028 247.57L32.028 247.57C32.028 249.476 32.4277 251.21 33.2367 252.761L34.1233 252.298ZM33.028 247.57C33.028 245.828 33.3962 244.338 34.1141 243.082L33.2459 242.586C32.4278 244.017 32.028 245.684 32.028 247.57L33.028 247.57ZM34.1187 243.074C34.8131 241.804 35.8075 240.889 37.1131 240.316L36.7109 239.4C35.2005 240.064 34.0403 241.133 33.2413 242.594L34.1187 243.074ZM36.4715 240.094L38.5515 243.966L39.4325 243.493L37.3525 239.621L36.4715 240.094ZM38.7452 243.295C37.0248 244.271 36.124 245.72 36.124 247.602L37.124 247.602C37.124 246.113 37.8019 244.98 39.2388 244.165L38.7452 243.295ZM36.124 247.602C36.124 249.024 36.5955 250.232 37.5504 251.187L38.2575 250.48C37.5058 249.728 37.124 248.782 37.124 247.602L36.124 247.602ZM37.5504 251.187C38.5174 252.154 39.8184 252.614 41.392 252.614L41.392 251.614C40.0216 251.614 38.9972 251.22 38.2575 250.48L37.5504 251.187ZM41.392 252.614C42.9656 252.614 44.2666 252.154 45.2335 251.187L44.5264 250.48C43.7867 251.22 42.7624 251.614 41.392 251.614L41.392 252.614ZM45.2335 251.187C46.1885 250.232 46.66 249.024 46.66 247.602L45.66 247.602C45.66 248.782 45.2782 249.728 44.5264 250.48L45.2335 251.187ZM46.66 247.602C46.66 246.668 46.4432 245.826 45.9945 245.093C45.5468 244.361 44.8847 243.764 44.0343 243.292L43.5497 244.167C44.278 244.571 44.7999 245.056 45.1414 245.615C45.4821 246.172 45.66 246.828 45.66 247.602L46.66 247.602ZM44.2309 243.969L46.3429 240.097L45.465 239.618L43.353 243.49L44.2309 243.969ZM45.6976 240.313C46.9615 240.886 47.9499 241.802 48.6682 243.079L49.5398 242.589C48.7221 241.135 47.5772 240.067 46.1104 239.402L45.6976 240.313ZM48.6699 243.082C49.3878 244.338 49.756 245.828 49.756 247.57L50.756 247.57C50.756 245.684 50.3562 244.017 49.5381 242.586L48.6699 243.082ZM49.168 224.349L49.5701 224.052L49.3444 223.747L48.9896 223.882L49.168 224.349ZM50 226.173L50.486 226.056L50.4833 226.046L50 226.173ZM48.688 233.181L49.0519 233.524L49.0551 233.521L48.688 233.181ZM37.008 234.845L37.008 234.345L36.508 234.345L36.508 234.845L37.008 234.845ZM37.008 237.501L37.008 238.001L37.508 238.001L37.508 237.501L37.008 237.501ZM33.168 237.501L32.668 237.501L32.668 238.001L33.168 238.001L33.168 237.501ZM33.168 234.845L33.668 234.845L33.668 234.345L33.168 234.345L33.168 234.845ZM28.976 234.845L28.476 234.845L28.476 235.345L28.976 235.345L28.976 234.845ZM28.976 229.853L28.976 229.353L28.476 229.353L28.476 229.853L28.976 229.853ZM33.168 229.853L33.168 230.353L33.668 230.353L33.668 229.853L33.168 229.853ZM33.168 225.565L33.168 225.065L32.668 225.065L32.668 225.565L33.168 225.565ZM37.008 225.565L37.508 225.565L37.508 225.065L37.008 225.065L37.008 225.565ZM37.008 229.853L36.508 229.853L36.508 230.353L37.008 230.353L37.008 229.853ZM45.712 229.309L46.0454 229.682L46.0557 229.673L46.0655 229.663L45.712 229.309ZM45.648 225.693L45.4696 225.226L44.8422 225.466L45.2517 225.998L45.648 225.693ZM48.7659 224.647C49.0835 225.076 49.3372 225.624 49.5166 226.301L50.4833 226.046C50.2788 225.273 49.9778 224.604 49.5701 224.052L48.7659 224.647ZM49.5141 226.291C49.6746 226.953 49.756 227.66 49.756 228.413L50.756 228.413C50.756 227.588 50.6667 226.802 50.4859 226.056L49.5141 226.291ZM49.756 228.413C49.756 230.378 49.2558 231.831 48.3209 232.842L49.0551 233.521C50.2109 232.271 50.756 230.545 50.756 228.413L49.756 228.413ZM48.3241 232.839C47.4015 233.818 46.0163 234.345 44.08 234.345L44.08 235.345C46.197 235.345 47.8839 234.764 49.0519 233.524L48.3241 232.839ZM44.08 234.345L37.008 234.345L37.008 235.345L44.08 235.345L44.08 234.345ZM36.508 234.845L36.508 237.501L37.508 237.501L37.508 234.845L36.508 234.845ZM37.008 237.001L33.168 237.001L33.168 238.001L37.008 238.001L37.008 237.001ZM33.668 237.501L33.668 234.845L32.668 234.845L32.668 237.501L33.668 237.501ZM33.168 234.345L28.976 234.345L28.976 235.345L33.168 235.345L33.168 234.345ZM29.476 234.845L29.476 229.853L28.476 229.853L28.476 234.845L29.476 234.845ZM28.976 230.353L33.168 230.353L33.168 229.353L28.976 229.353L28.976 230.353ZM33.668 229.853L33.668 225.565L32.668 225.565L32.668 229.853L33.668 229.853ZM33.168 226.065L37.008 226.065L37.008 225.065L33.168 225.065L33.168 226.065ZM36.508 225.565L36.508 229.853L37.508 229.853L37.508 225.565L36.508 225.565ZM37.008 230.353L44.016 230.353L44.016 229.353L37.008 229.353L37.008 230.353ZM44.016 230.353C44.8226 230.353 45.5214 230.151 46.0454 229.682L45.3786 228.937C45.0919 229.193 44.66 229.353 44.016 229.353L44.016 230.353ZM46.0655 229.663C46.566 229.163 46.788 228.489 46.788 227.709L45.788 227.709C45.788 228.295 45.626 228.688 45.3584 228.956L46.0655 229.663ZM46.788 227.709C46.788 226.825 46.5467 226.042 46.0443 225.389L45.2517 225.998C45.6026 226.455 45.788 227.016 45.788 227.709L46.788 227.709ZM45.8263 226.161L49.3463 224.817L48.9896 223.882L45.4696 225.226L45.8263 226.161ZM33.648 195.397L34.0818 195.646L34.0864 195.637L33.648 195.397ZM36.752 192.293L36.9948 192.73L36.9978 192.728L36.752 192.293ZM46.064 192.293L46.3098 191.857L46.3068 191.856L46.064 192.293ZM49.168 195.397L49.6047 195.153L49.6034 195.151L49.168 195.397ZM48.176 204.933L47.8399 204.563L46.8812 205.433L48.176 205.433L48.176 204.933ZM56.208 204.933L56.708 204.933L56.708 204.433L56.208 204.433L56.208 204.933ZM56.208 209.925L56.208 210.425L56.708 210.425L56.708 209.925L56.208 209.925ZM32.784 209.925L32.284 209.925L32.284 210.425L32.784 210.425L32.784 209.925ZM32.784 205.157L32.784 204.657L32.284 204.657L32.284 205.157L32.784 205.157ZM34.768 205.157L34.768 205.657L36.1551 205.657L35.087 204.772L34.768 205.157ZM44.88 197.477L44.5354 197.839L44.5356 197.839L44.88 197.477ZM37.936 197.477L38.276 197.844L38.285 197.835L37.936 197.477ZM37.936 203.781L37.5914 204.143L37.5916 204.143L37.936 203.781ZM44.88 203.781L45.22 204.148L45.229 204.139L44.88 203.781ZM33.028 199.749C33.028 198.23 33.3814 196.866 34.0817 195.646L33.2143 195.148C32.4213 196.53 32.028 198.067 32.028 199.749L33.028 199.749ZM34.0864 195.637C34.7655 194.399 35.7316 193.432 36.9948 192.73L36.5092 191.856C35.0844 192.647 33.9812 193.749 33.2096 195.156L34.0864 195.637ZM36.9978 192.728C38.2338 192.03 39.6931 191.673 41.392 191.673L41.392 190.673C39.5496 190.673 37.9155 191.062 36.5062 191.857L36.9978 192.728ZM41.392 191.673C43.0907 191.673 44.5621 192.03 45.8212 192.73L46.3068 191.856C44.8779 191.062 43.2346 190.673 41.392 190.673L41.392 191.673ZM45.8182 192.728C47.0616 193.43 48.0307 194.399 48.7326 195.643L49.6034 195.151C48.812 193.749 47.7117 192.649 46.3098 191.857L45.8182 192.728ZM48.7313 195.64C49.412 196.862 49.756 198.227 49.756 199.749L50.756 199.749C50.756 198.07 50.3746 196.535 49.6047 195.153L48.7313 195.64ZM49.756 199.749C49.756 201.832 49.1039 203.415 47.8399 204.563L48.512 205.303C50.0214 203.933 50.756 202.06 50.756 199.749L49.756 199.749ZM48.176 205.433L56.208 205.433L56.208 204.433L48.176 204.433L48.176 205.433ZM55.708 204.933L55.708 209.925L56.708 209.925L56.708 204.933L55.708 204.933ZM56.208 209.425L32.784 209.425L32.784 210.425L56.208 210.425L56.208 209.425ZM33.284 209.925L33.284 205.157L32.284 205.157L32.284 209.925L33.284 209.925ZM32.784 205.657L34.768 205.657L34.768 204.657L32.784 204.657L32.784 205.657ZM35.087 204.772C33.7335 203.65 33.028 202.004 33.028 199.749L32.028 199.749C32.028 202.229 32.8158 204.189 34.449 205.542L35.087 204.772ZM46.66 200.613C46.66 199.209 46.1863 198.028 45.2244 197.114L44.5356 197.839C45.2803 198.547 45.66 199.456 45.66 200.613L46.66 200.613ZM45.2246 197.114C44.2388 196.177 42.9435 195.729 41.392 195.729L41.392 196.729C42.7418 196.729 43.7718 197.113 44.5354 197.839L45.2246 197.114ZM41.392 195.729C39.841 195.729 38.5532 196.177 37.5869 197.119L38.285 197.835C39.0255 197.113 40.0417 196.729 41.392 196.729L41.392 195.729ZM37.5961 197.11C36.6113 198.023 36.124 199.205 36.124 200.613L37.124 200.613C37.124 199.461 37.5114 198.552 38.2759 197.843L37.5961 197.11ZM36.124 200.613C36.124 202.02 36.611 203.21 37.5914 204.143L38.2806 203.418C37.5117 202.687 37.124 201.765 37.124 200.613L36.124 200.613ZM37.5916 204.143C38.5584 205.062 39.8445 205.497 41.392 205.497L41.392 204.497C40.0381 204.497 39.0203 204.121 38.2804 203.418L37.5916 204.143ZM41.392 205.497C42.94 205.497 44.2336 205.062 45.2199 204.147L44.5401 203.414C43.777 204.121 42.7454 204.497 41.392 204.497L41.392 205.497ZM45.229 204.139C46.1865 203.205 46.66 202.016 46.66 200.613L45.66 200.613C45.66 201.769 45.2801 202.692 44.5309 203.423L45.229 204.139ZM35.056 181.783L35.056 182.283L36.6098 182.283L35.3476 181.377L35.056 181.783ZM33.168 179.383L32.7064 179.575L32.7079 179.579L33.168 179.383ZM32.528 175.863L32.528 175.363L32.028 175.363L32.028 175.863L32.528 175.863ZM37.136 175.863L37.6345 175.901L37.6759 175.363L37.136 175.363L37.136 175.863ZM38.288 180.343L38.6463 179.994L38.6415 179.989L38.288 180.343ZM50 181.559L50.5 181.559L50.5 181.059L50 181.059L50 181.559ZM50 186.551L50 187.051L50.5 187.051L50.5 186.551L50 186.551ZM32.784 186.551L32.284 186.551L32.284 187.051L32.784 187.051L32.784 186.551ZM32.784 181.783L32.784 181.283L32.284 181.283L32.284 181.783L32.784 181.783ZM35.3476 181.377C34.5947 180.836 34.0213 180.111 33.6281 179.187L32.7079 179.579C33.168 180.66 33.8532 181.535 34.7644 182.189L35.3476 181.377ZM33.6295 179.191C33.2326 178.238 33.028 177.132 33.028 175.863L32.028 175.863C32.028 177.239 32.25 178.48 32.7065 179.575L33.6295 179.191ZM32.528 176.363L37.136 176.363L37.136 175.363L32.528 175.363L32.528 176.363ZM36.6375 175.825C36.595 176.377 36.572 176.769 36.572 176.983L37.572 176.983C37.572 176.813 37.5916 176.459 37.6345 175.901L36.6375 175.825ZM36.572 176.983C36.572 178.51 37.0081 179.77 37.9344 180.697L38.6415 179.989C37.9466 179.294 37.572 178.314 37.572 176.983L36.572 176.983ZM37.9298 180.692C38.8465 181.633 40.1938 182.059 41.872 182.059L41.872 181.059C40.3502 181.059 39.3081 180.674 38.6462 179.994L37.9298 180.692ZM41.872 182.059L50 182.059L50 181.059L41.872 181.059L41.872 182.059ZM49.5 181.559L49.5 186.551L50.5 186.551L50.5 181.559L49.5 181.559ZM50 186.051L32.784 186.051L32.784 187.051L50 187.051L50 186.051ZM33.284 186.551L33.284 181.783L32.284 181.783L32.284 186.551L33.284 186.551ZM32.784 182.283L35.056 182.283L35.056 181.283L32.784 181.283L32.784 182.283ZM49.136 168.475L49.5765 168.712L49.5806 168.704L49.136 168.475ZM45.968 171.835L46.2262 172.263L46.2262 172.263L45.968 171.835ZM36.816 171.835L36.5577 172.263L36.5577 172.263L36.816 171.835ZM33.68 168.475L34.1232 168.243L34.1219 168.241L33.68 168.475ZM33.68 158.715L34.1205 158.952L34.1232 158.947L33.68 158.715ZM36.816 155.355L36.5577 154.927L36.5577 154.927L36.816 155.355ZM45.968 155.355L46.2262 154.927L46.2262 154.927L45.968 155.355ZM49.136 158.715L49.5792 158.483L49.5764 158.478L49.136 158.715ZM44.88 160.443L44.5354 160.805L44.5356 160.805L44.88 160.443ZM37.936 160.443L38.276 160.81L38.285 160.801L37.936 160.443ZM37.936 166.747L38.2851 166.389L38.2806 166.385L37.936 166.747ZM44.88 166.747L45.2246 167.109L45.229 167.105L44.88 166.747ZM49.756 163.579C49.756 165.322 49.3978 166.874 48.6914 168.246L49.5806 168.704C50.3676 167.175 50.756 165.463 50.756 163.579L49.756 163.579ZM48.6955 168.238C47.9685 169.591 46.9743 170.644 45.7097 171.407L46.2262 172.263C47.6497 171.405 48.7675 170.217 49.5764 168.712L48.6955 168.238ZM45.7097 171.407C44.4504 172.166 43.0159 172.551 41.392 172.551L41.392 173.551C43.1815 173.551 44.7975 173.125 46.2262 172.263L45.7097 171.407ZM41.392 172.551C39.7681 172.551 38.3335 172.166 37.0742 171.407L36.5577 172.263C37.9864 173.125 39.6025 173.551 41.392 173.551L41.392 172.551ZM37.0742 171.407C35.811 170.645 34.8286 169.594 34.1232 168.243L33.2368 168.707C34.0247 170.215 35.133 171.404 36.5577 172.263L37.0742 171.407ZM34.1219 168.241C33.3959 166.87 33.028 165.319 33.028 163.579L32.028 163.579C32.028 165.465 32.4281 167.179 33.2381 168.709L34.1219 168.241ZM33.028 163.579C33.028 161.838 33.3959 160.3 34.1204 158.952L33.2395 158.478C32.428 159.989 32.028 161.693 32.028 163.579L33.028 163.579ZM34.1232 158.947C34.8286 157.596 35.811 156.545 37.0742 155.783L36.5577 154.927C35.133 155.786 34.0247 156.975 33.2368 158.483L34.1232 158.947ZM37.0742 155.783C38.3335 155.024 39.7681 154.639 41.392 154.639L41.392 153.639C39.6025 153.639 37.9864 154.065 36.5577 154.927L37.0742 155.783ZM41.392 154.639C43.0159 154.639 44.4504 155.024 45.7097 155.783L46.2262 154.927C44.7975 154.065 43.1814 153.639 41.392 153.639L41.392 154.639ZM45.7097 155.783C46.9743 156.546 47.9685 157.599 48.6955 158.952L49.5764 158.478C48.7675 156.973 47.6497 155.785 46.2262 154.927L45.7097 155.783ZM48.6928 158.947C49.3977 160.296 49.756 161.836 49.756 163.579L50.756 163.579C50.756 161.695 50.3676 159.993 49.5792 158.483L48.6928 158.947ZM46.66 163.579C46.66 162.175 46.1863 160.994 45.2244 160.08L44.5356 160.805C45.2803 161.513 45.66 162.423 45.66 163.579L46.66 163.579ZM45.2246 160.081C44.2388 159.143 42.9435 158.695 41.392 158.695L41.392 159.695C42.7418 159.695 43.7718 160.079 44.5354 160.805L45.2246 160.081ZM41.392 158.695C39.841 158.695 38.5532 159.143 37.5869 160.085L38.285 160.801C39.0255 160.079 40.0417 159.695 41.392 159.695L41.392 158.695ZM37.5961 160.076C36.6113 160.989 36.124 162.171 36.124 163.579L37.124 163.579C37.124 162.427 37.5114 161.518 38.2759 160.81L37.5961 160.076ZM36.124 163.579C36.124 164.987 36.611 166.177 37.5914 167.109L38.2806 166.385C37.5117 165.653 37.124 164.731 37.124 163.579L36.124 163.579ZM37.5869 167.105C38.5532 168.047 39.841 168.495 41.392 168.495L41.392 167.495C40.0417 167.495 39.0255 167.111 38.285 166.389L37.5869 167.105ZM41.392 168.495C42.9435 168.495 44.2388 168.047 45.2246 167.109L44.5354 166.385C43.7718 167.111 42.7418 167.495 41.392 167.495L41.392 168.495ZM45.229 167.105C46.1865 166.171 46.66 164.983 46.66 163.579L45.66 163.579C45.66 164.735 45.2801 165.659 44.5309 166.389L45.229 167.105ZM33.648 134.994L34.0818 135.243L34.0864 135.235L33.648 134.994ZM36.752 131.89L36.9948 132.327L36.9978 132.326L36.752 131.89ZM46.064 131.89L46.3098 131.455L46.3068 131.453L46.064 131.89ZM49.168 134.994L49.6047 134.751L49.6034 134.748L49.168 134.994ZM48.176 144.53L47.8399 144.16L46.8812 145.03L48.176 145.03L48.176 144.53ZM56.208 144.53L56.708 144.53L56.708 144.03L56.208 144.03L56.208 144.53ZM56.208 149.522L56.208 150.022L56.708 150.022L56.708 149.522L56.208 149.522ZM32.784 149.522L32.284 149.522L32.284 150.022L32.784 150.022L32.784 149.522ZM32.784 144.754L32.784 144.254L32.284 144.254L32.284 144.754L32.784 144.754ZM34.768 144.754L34.768 145.254L36.1551 145.254L35.087 144.369L34.768 144.754ZM44.88 137.074L44.5354 137.437L44.5356 137.437L44.88 137.074ZM37.936 137.074L38.276 137.441L38.285 137.432L37.936 137.074ZM37.936 143.378L37.5914 143.741L37.5916 143.741L37.936 143.378ZM44.88 143.378L45.22 143.745L45.229 143.736L44.88 143.378ZM33.028 139.346C33.028 137.828 33.3814 136.464 34.0817 135.243L33.2143 134.745C32.4213 136.128 32.028 137.665 32.028 139.346L33.028 139.346ZM34.0864 135.235C34.7655 133.996 35.7316 133.029 36.9948 132.327L36.5092 131.453C35.0844 132.245 33.9812 133.347 33.2096 134.754L34.0864 135.235ZM36.9978 132.326C38.2338 131.628 39.6931 131.27 41.392 131.27L41.392 130.27C39.5496 130.27 37.9155 130.659 36.5062 131.455L36.9978 132.326ZM41.392 131.27C43.0907 131.27 44.5621 131.628 45.8212 132.327L46.3068 131.453C44.8779 130.659 43.2346 130.27 41.392 130.27L41.392 131.27ZM45.8182 132.326C47.0616 133.028 48.0307 133.997 48.7326 135.24L49.6034 134.748C48.812 133.346 47.7117 132.246 46.3098 131.455L45.8182 132.326ZM48.7312 135.238C49.412 136.459 49.756 137.825 49.756 139.346L50.756 139.346C50.756 137.668 50.3746 136.132 49.6047 134.751L48.7312 135.238ZM49.756 139.346C49.756 141.429 49.1039 143.013 47.8399 144.16L48.512 144.9C50.0214 143.53 50.756 141.658 50.756 139.346L49.756 139.346ZM48.176 145.03L56.208 145.03L56.208 144.03L48.176 144.03L48.176 145.03ZM55.708 144.53L55.708 149.522L56.708 149.522L56.708 144.53L55.708 144.53ZM56.208 149.022L32.784 149.022L32.784 150.022L56.208 150.022L56.208 149.022ZM33.284 149.522L33.284 144.754L32.284 144.754L32.284 149.522L33.284 149.522ZM32.784 145.254L34.768 145.254L34.768 144.254L32.784 144.254L32.784 145.254ZM35.087 144.369C33.7335 143.248 33.028 141.602 33.028 139.346L32.028 139.346C32.028 141.827 32.8158 143.786 34.449 145.139L35.087 144.369ZM46.66 140.21C46.66 138.807 46.1863 137.626 45.2244 136.712L44.5356 137.437C45.2803 138.144 45.66 139.054 45.66 140.21L46.66 140.21ZM45.2246 136.712C44.2388 135.774 42.9435 135.326 41.392 135.326L41.392 136.326C42.7418 136.326 43.7718 136.71 44.5354 137.437L45.2246 136.712ZM41.392 135.326C39.841 135.326 38.5532 135.774 37.5869 136.716L38.285 137.432C39.0255 136.71 40.0417 136.326 41.392 136.326L41.392 135.326ZM37.5961 136.708C36.6113 137.62 36.124 138.802 36.124 140.21L37.124 140.21C37.124 139.058 37.5114 138.15 38.2759 137.441L37.5961 136.708ZM36.124 140.21C36.124 141.618 36.611 142.808 37.5914 143.741L38.2806 143.016C37.5117 142.285 37.124 141.363 37.124 140.21L36.124 140.21ZM37.5916 143.741C38.5584 144.659 39.8445 145.094 41.392 145.094L41.392 144.094C40.0381 144.094 39.0203 143.719 38.2804 143.016L37.5916 143.741ZM41.392 145.094C42.94 145.094 44.2336 144.659 45.2199 143.745L44.5401 143.012C43.777 143.719 42.7454 144.094 41.392 144.094L41.392 145.094ZM45.229 143.736C46.1865 142.803 46.66 141.614 46.66 140.21L45.66 140.21C45.66 141.367 45.2801 142.29 44.5309 143.02L45.229 143.736ZM49.136 122.852L49.5765 123.089L49.5806 123.081L49.136 122.852ZM45.968 126.212L46.2262 126.641L46.2262 126.641L45.968 126.212ZM36.816 126.212L36.5577 126.641L36.5577 126.641L36.816 126.212ZM33.68 122.852L34.1232 122.621L34.1219 122.619L33.68 122.852ZM33.68 113.092L34.1205 113.329L34.1232 113.324L33.68 113.092ZM36.816 109.732L36.5577 109.304L36.5577 109.304L36.816 109.732ZM45.968 109.732L46.2262 109.304L46.2262 109.304L45.968 109.732ZM49.136 113.092L49.5792 112.861L49.5764 112.856L49.136 113.092ZM44.88 114.82L44.5354 115.183L44.5356 115.183L44.88 114.82ZM37.936 114.82L38.276 115.187L38.285 115.178L37.936 114.82ZM37.936 121.124L38.2851 120.766L38.2806 120.762L37.936 121.124ZM44.88 121.124L45.2246 121.487L45.229 121.482L44.88 121.124ZM49.756 117.956C49.756 119.699 49.3978 121.251 48.6914 122.624L49.5806 123.081C50.3676 121.552 50.756 119.84 50.756 117.956L49.756 117.956ZM48.6955 122.616C47.9685 123.969 46.9743 125.022 45.7097 125.784L46.2262 126.641C47.6497 125.782 48.7675 124.595 49.5764 123.089L48.6955 122.616ZM45.7097 125.784C44.4504 126.544 43.0159 126.928 41.392 126.928L41.392 127.928C43.1814 127.928 44.7975 127.502 46.2262 126.641L45.7097 125.784ZM41.392 126.928C39.7681 126.928 38.3335 126.544 37.0742 125.784L36.5577 126.641C37.9864 127.502 39.6025 127.928 41.392 127.928L41.392 126.928ZM37.0742 125.784C35.811 125.022 34.8286 123.971 34.1232 122.621L33.2368 123.084C34.0247 124.592 35.133 125.781 36.5577 126.641L37.0742 125.784ZM34.1219 122.619C33.3959 121.247 33.028 119.697 33.028 117.956L32.028 117.956C32.028 119.843 32.4281 121.556 33.2381 123.086L34.1219 122.619ZM33.028 117.956C33.028 116.216 33.3959 114.678 34.1204 113.329L33.2395 112.856C32.428 114.366 32.028 116.07 32.028 117.956L33.028 117.956ZM34.1232 113.324C34.8286 111.974 35.811 110.923 37.0742 110.161L36.5577 109.304C35.133 110.164 34.0247 111.353 33.2368 112.861L34.1232 113.324ZM37.0742 110.161C38.3335 109.401 39.7681 109.016 41.392 109.016L41.392 108.016C39.6025 108.016 37.9864 108.443 36.5577 109.304L37.0742 110.161ZM41.392 109.016C43.0159 109.016 44.4504 109.401 45.7097 110.161L46.2262 109.304C44.7975 108.443 43.1814 108.016 41.392 108.016L41.392 109.016ZM45.7097 110.161C46.9743 110.923 47.9685 111.976 48.6955 113.329L49.5764 112.856C48.7675 111.35 47.6497 110.163 46.2262 109.304L45.7097 110.161ZM48.6928 113.324C49.3977 114.673 49.756 116.214 49.756 117.956L50.756 117.956C50.756 116.073 50.3676 114.37 49.5792 112.861L48.6928 113.324ZM46.66 117.956C46.66 116.553 46.1863 115.372 45.2244 114.458L44.5356 115.183C45.2803 115.89 45.66 116.8 45.66 117.956L46.66 117.956ZM45.2246 114.458C44.2388 113.521 42.9435 113.072 41.392 113.072L41.392 114.072C42.7418 114.072 43.7718 114.456 44.5354 115.183L45.2246 114.458ZM41.392 113.072C39.841 113.072 38.5532 113.52 37.5869 114.462L38.285 115.178C39.0255 114.457 40.0417 114.072 41.392 114.072L41.392 113.072ZM37.5961 114.454C36.6113 115.367 36.124 116.549 36.124 117.956L37.124 117.956C37.124 116.804 37.5114 115.896 38.2759 115.187L37.5961 114.454ZM36.124 117.956C36.124 119.364 36.611 120.554 37.5914 121.487L38.2806 120.762C37.5117 120.031 37.124 119.109 37.124 117.956L36.124 117.956ZM37.5869 121.482C38.5532 122.425 39.841 122.872 41.392 122.872L41.392 121.872C40.0417 121.872 39.0255 121.488 38.285 120.766L37.5869 121.482ZM41.392 122.872C42.9435 122.872 44.2388 122.424 45.2246 121.487L44.5354 120.762C43.7718 121.489 42.7418 121.872 41.392 121.872L41.392 122.872ZM45.229 121.482C46.1865 120.549 46.66 119.36 46.66 117.956L45.66 117.956C45.66 119.113 45.2801 120.036 44.5309 120.766L45.229 121.482ZM35.056 99.1317L35.056 99.6317L36.6097 99.6317L35.3476 98.7256L35.056 99.1317ZM33.168 96.7317L32.7064 96.9241L32.7079 96.9275L33.168 96.7317ZM32.528 93.2117L32.528 92.7117L32.028 92.7117L32.028 93.2117L32.528 93.2117ZM37.136 93.2117L37.6345 93.2501L37.6759 92.7117L37.136 92.7117L37.136 93.2117ZM38.288 97.6917L38.6463 97.3429L38.6415 97.3382L38.288 97.6917ZM50 98.9077L50.5 98.9077L50.5 98.4077L50 98.4077L50 98.9077ZM50 103.9L50 104.4L50.5 104.4L50.5 103.9L50 103.9ZM32.784 103.9L32.284 103.9L32.284 104.4L32.784 104.4L32.784 103.9ZM32.784 99.1317L32.784 98.6317L32.284 98.6317L32.284 99.1317L32.784 99.1317ZM35.3476 98.7256C34.5947 98.1851 34.0213 97.46 33.6281 96.536L32.7079 96.9275C33.168 98.0088 33.8532 98.8837 34.7644 99.5379L35.3476 98.7256ZM33.6295 96.5394C33.2326 95.5869 33.028 94.4809 33.028 93.2117L32.028 93.2117C32.028 94.588 32.25 95.8286 32.7064 96.9241L33.6295 96.5394ZM32.528 93.7117L37.136 93.7117L37.136 92.7117L32.528 92.7117L32.528 93.7117ZM36.6375 93.1734C36.595 93.7254 36.572 94.1175 36.572 94.3317L37.572 94.3317C37.572 94.162 37.5916 93.8075 37.6345 93.2501L36.6375 93.1734ZM36.572 94.3317C36.572 95.8591 37.0081 97.119 37.9344 98.0453L38.6415 97.3382C37.9466 96.6432 37.572 95.6631 37.572 94.3317L36.572 94.3317ZM37.9298 98.0406C38.8465 98.9821 40.1938 99.4077 41.872 99.4077L41.872 98.4077C40.3502 98.4077 39.3081 98.0227 38.6462 97.3429L37.9298 98.0406ZM41.872 99.4077L50 99.4077L50 98.4077L41.872 98.4077L41.872 99.4077ZM49.5 98.9077L49.5 103.9L50.5 103.9L50.5 98.9077L49.5 98.9077ZM50 103.4L32.784 103.4L32.784 104.4L50 104.4L50 103.4ZM33.284 103.9L33.284 99.1317L32.284 99.1317L32.284 103.9L33.284 103.9ZM32.784 99.6317L35.056 99.6317L35.056 98.6317L32.784 98.6317L32.784 99.6317ZM49.168 77.2657L49.5701 76.9685L49.3444 76.6632L48.9896 76.7986L49.168 77.2657ZM50 79.0897L50.486 78.9719L50.4833 78.9618L50 79.0897ZM48.688 86.0977L49.0519 86.4407L49.0551 86.4372L48.688 86.0977ZM37.008 87.7617L37.008 87.2617L36.508 87.2617L36.508 87.7617L37.008 87.7617ZM37.008 90.4177L37.008 90.9177L37.508 90.9177L37.508 90.4177L37.008 90.4177ZM33.168 90.4177L32.668 90.4177L32.668 90.9177L33.168 90.9177L33.168 90.4177ZM33.168 87.7617L33.668 87.7617L33.668 87.2617L33.168 87.2617L33.168 87.7617ZM28.976 87.7617L28.476 87.7617L28.476 88.2617L28.976 88.2617L28.976 87.7617ZM28.976 82.7697L28.976 82.2697L28.476 82.2697L28.476 82.7697L28.976 82.7697ZM33.168 82.7697L33.168 83.2697L33.668 83.2697L33.668 82.7697L33.168 82.7697ZM33.168 78.4817L33.168 77.9817L32.668 77.9817L32.668 78.4817L33.168 78.4817ZM37.008 78.4817L37.508 78.4817L37.508 77.9817L37.008 77.9817L37.008 78.4817ZM37.008 82.7697L36.508 82.7697L36.508 83.2697L37.008 83.2697L37.008 82.7697ZM45.712 82.2257L46.0454 82.5984L46.0557 82.5891L46.0655 82.5793L45.712 82.2257ZM45.648 78.6097L45.4696 78.1426L44.8422 78.3822L45.2517 78.9146L45.648 78.6097ZM48.7659 77.5629C49.0835 77.9926 49.3372 78.5398 49.5166 79.2177L50.4833 78.9618C50.2788 78.189 49.9778 77.5202 49.5701 76.9685L48.7659 77.5629ZM49.5141 79.2075C49.6746 79.8697 49.756 80.5766 49.756 81.3297L50.756 81.3297C50.756 80.5042 50.6667 79.7178 50.4859 78.9719L49.5141 79.2075ZM49.756 81.3297C49.756 83.2943 49.2558 84.7471 48.3209 85.7583L49.0551 86.4372C50.2109 85.1871 50.756 83.4611 50.756 81.3297L49.756 81.3297ZM48.3241 85.7548C47.4015 86.734 46.0163 87.2617 44.08 87.2617L44.08 88.2617C46.197 88.2617 47.8839 87.6802 49.0519 86.4406L48.3241 85.7548ZM44.08 87.2617L37.008 87.2617L37.008 88.2617L44.08 88.2617L44.08 87.2617ZM36.508 87.7617L36.508 90.4177L37.508 90.4177L37.508 87.7617L36.508 87.7617ZM37.008 89.9177L33.168 89.9177L33.168 90.9177L37.008 90.9177L37.008 89.9177ZM33.668 90.4177L33.668 87.7617L32.668 87.7617L32.668 90.4177L33.668 90.4177ZM33.168 87.2617L28.976 87.2617L28.976 88.2617L33.168 88.2617L33.168 87.2617ZM29.476 87.7617L29.476 82.7697L28.476 82.7697L28.476 87.7617L29.476 87.7617ZM28.976 83.2697L33.168 83.2697L33.168 82.2697L28.976 82.2697L28.976 83.2697ZM33.668 82.7697L33.668 78.4817L32.668 78.4817L32.668 82.7697L33.668 82.7697ZM33.168 78.9817L37.008 78.9817L37.008 77.9817L33.168 77.9817L33.168 78.9817ZM36.508 78.4817L36.508 82.7697L37.508 82.7697L37.508 78.4817L36.508 78.4817ZM37.008 83.2697L44.016 83.2697L44.016 82.2697L37.008 82.2697L37.008 83.2697ZM44.016 83.2697C44.8226 83.2697 45.5214 83.0671 46.0454 82.5984L45.3786 81.8531C45.0919 82.1097 44.66 82.2697 44.016 82.2697L44.016 83.2697ZM46.0655 82.5793C46.566 82.0788 46.788 81.4051 46.788 80.6257L45.788 80.6257C45.788 81.2117 45.626 81.6046 45.3584 81.8722L46.0655 82.5793ZM46.788 80.6257C46.788 79.741 46.5467 78.958 46.0443 78.3049L45.2517 78.9146C45.6026 79.3708 45.788 79.9318 45.788 80.6257L46.788 80.6257ZM45.8263 79.0768L49.3463 77.7328L48.9896 76.7986L45.4696 78.1426L45.8263 79.0768ZM32.784 73.1835L32.284 73.1835L32.284 73.6835L32.784 73.6835L32.784 73.1835ZM32.784 68.1915L32.784 67.6915L32.284 67.6915L32.284 68.1915L32.784 68.1915ZM50 68.1915L50.5 68.1915L50.5 67.6915L50 67.6915L50 68.1915ZM50 73.1835L50 73.6835L50.5 73.6835L50.5 73.1835L50 73.1835ZM29.584 72.9275L29.9509 73.2672L29.9509 73.2672L29.584 72.9275ZM25.616 72.9275L25.9829 72.5878L25.9829 72.5878L25.616 72.9275ZM25.584 68.4475L25.9577 68.7797L25.9577 68.7797L25.584 68.4475ZM29.584 68.4475L29.9509 68.1077L29.9441 68.1007L29.584 68.4475ZM33.284 73.1835L33.284 68.1915L32.284 68.1915L32.284 73.1835L33.284 73.1835ZM32.784 68.6915L50 68.6915L50 67.6915L32.784 67.6915L32.784 68.6915ZM49.5 68.1915L49.5 73.1835L50.5 73.1835L50.5 68.1915L49.5 68.1915ZM50 72.6835L32.784 72.6835L32.784 73.6835L50 73.6835L50 72.6835ZM29.884 70.6875C29.884 71.5015 29.6506 72.1196 29.2171 72.5878L29.9509 73.2672C30.584 72.5834 30.884 71.7081 30.884 70.6875L29.884 70.6875ZM29.2171 72.5878C28.779 73.0609 28.2509 73.2915 27.6 73.2915L27.6 74.2915C28.5277 74.2915 29.3223 73.946 29.9509 73.2672L29.2171 72.5878ZM27.6 73.2915C26.9491 73.2915 26.421 73.0609 25.9829 72.5878L25.2491 73.2672C25.8777 73.946 26.6722 74.2915 27.6 74.2915L27.6 73.2915ZM25.9829 72.5878C25.5493 72.1196 25.316 71.5015 25.316 70.6875L24.316 70.6875C24.316 71.7081 24.616 72.5834 25.2491 73.2672L25.9829 72.5878ZM25.316 70.6875C25.316 69.868 25.542 69.2473 25.9577 68.7797L25.2103 68.1153C24.602 68.7997 24.316 69.6723 24.316 70.6875L25.316 70.6875ZM25.9577 68.7797C26.3752 68.31 26.8794 68.0835 27.504 68.0835L27.504 67.0835C26.5926 67.0835 25.8168 67.433 25.2103 68.1153L25.9577 68.7797ZM27.504 68.0835C28.2063 68.0835 28.7676 68.3205 29.2238 68.7943L29.9441 68.1007C29.291 67.4224 28.4657 67.0835 27.504 67.0835L27.504 68.0835ZM29.2171 68.7872C29.6506 69.2554 29.884 69.8735 29.884 70.6875L30.884 70.6875C30.884 69.6668 30.584 68.7916 29.9509 68.1078L29.2171 68.7872ZM49.136 58.9825L49.5765 59.2192L49.5806 59.2113L49.136 58.9825ZM45.968 62.3425L46.2262 62.7706L46.2262 62.7706L45.968 62.3425ZM36.816 62.3425L36.5577 62.7706L36.5577 62.7706L36.816 62.3425ZM33.68 58.9825L34.1232 58.751L34.1219 58.7485L33.68 58.9825ZM33.68 49.2225L34.1205 49.4592L34.1232 49.454L33.68 49.2225ZM36.816 45.8625L36.5577 45.4343L36.5577 45.4343L36.816 45.8625ZM45.968 45.8625L46.2262 45.4343L46.2262 45.4343L45.968 45.8625ZM49.136 49.2225L49.5792 48.991L49.5764 48.9858L49.136 49.2225ZM44.88 50.9505L44.5354 51.3128L44.5356 51.313L44.88 50.9505ZM37.936 50.9505L38.276 51.3173L38.285 51.3085L37.936 50.9505ZM37.936 57.2545L38.2851 56.8965L38.2806 56.8922L37.936 57.2545ZM44.88 57.2545L45.2246 57.6168L45.229 57.6125L44.88 57.2545ZM49.756 54.0865C49.756 55.8292 49.3978 57.3814 48.6914 58.7537L49.5806 59.2113C50.3676 57.6823 50.756 55.9704 50.756 54.0865L49.756 54.0865ZM48.6955 58.7458C47.9685 60.0989 46.9743 61.1516 45.7097 61.9143L46.2262 62.7706C47.6497 61.912 48.7675 60.7247 49.5764 59.2191L48.6955 58.7458ZM45.7097 61.9143C44.4504 62.6739 43.0159 63.0585 41.392 63.0585L41.392 64.0585C43.1814 64.0585 44.7975 63.6324 46.2262 62.7706L45.7097 61.9143ZM41.392 63.0585C39.7681 63.0585 38.3335 62.6739 37.0742 61.9143L36.5577 62.7706C37.9864 63.6324 39.6025 64.0585 41.392 64.0585L41.392 63.0585ZM37.0742 61.9143C35.811 61.1524 34.8286 60.1014 34.1232 58.751L33.2368 59.214C34.0247 60.7222 35.133 61.9113 36.5577 62.7706L37.0742 61.9143ZM34.1219 58.7485C33.3959 57.3773 33.028 55.827 33.028 54.0865L32.028 54.0865C32.028 55.9727 32.4281 57.6864 33.2381 59.2164L34.1219 58.7485ZM33.028 54.0865C33.028 52.3459 33.3959 50.8075 34.1204 49.4591L33.2395 48.9858C32.428 50.4961 32.028 52.2004 32.028 54.0865L33.028 54.0865ZM34.1232 49.454C34.8286 48.1036 35.811 47.0526 37.0742 46.2906L36.5577 45.4343C35.133 46.2937 34.0247 47.4827 33.2368 48.991L34.1232 49.454ZM37.0742 46.2906C38.3335 45.5311 39.7681 45.1465 41.392 45.1465L41.392 44.1465C39.6025 44.1465 37.9864 44.5726 36.5577 45.4343L37.0742 46.2906ZM41.392 45.1465C43.0159 45.1465 44.4504 45.5311 45.7097 46.2906L46.2262 45.4343C44.7975 44.5726 43.1814 44.1465 41.392 44.1465L41.392 45.1465ZM45.7097 46.2906C46.9743 47.0534 47.9685 48.106 48.6955 49.4591L49.5764 48.9858C48.7675 47.4803 47.6497 46.2929 46.2262 45.4343L45.7097 46.2906ZM48.6928 49.454C49.3977 50.8034 49.756 52.3436 49.756 54.0865L50.756 54.0865C50.756 52.2027 50.3676 50.5003 49.5792 48.991L48.6928 49.454ZM46.66 54.0865C46.66 52.6828 46.1863 51.5019 45.2244 50.588L44.5356 51.313C45.2803 52.0205 45.66 52.9302 45.66 54.0865L46.66 54.0865ZM45.2246 50.5882C44.2388 49.6505 42.9435 49.2025 41.392 49.2025L41.392 50.2025C42.7418 50.2025 43.7718 50.5865 44.5354 51.3128L45.2246 50.5882ZM41.392 49.2025C39.841 49.2025 38.5532 49.6504 37.5869 50.5925L38.285 51.3085C39.0255 50.5866 40.0417 50.2025 41.392 50.2025L41.392 49.2025ZM37.5961 50.5838C36.6113 51.4966 36.124 52.6787 36.124 54.0865L37.124 54.0865C37.124 52.9343 37.5114 52.0257 38.2759 51.3172L37.5961 50.5838ZM36.124 54.0865C36.124 55.4942 36.611 56.6842 37.5914 57.6168L38.2806 56.8922C37.5117 56.1608 37.124 55.2388 37.124 54.0865L36.124 54.0865ZM37.5869 57.6125C38.5532 58.5546 39.841 59.0025 41.392 59.0025L41.392 58.0025C40.0417 58.0025 39.0255 57.6184 38.285 56.8965L37.5869 57.6125ZM41.392 59.0025C42.9435 59.0025 44.2388 58.5545 45.2246 57.6168L44.5354 56.8922C43.7718 57.6185 42.7418 58.0025 41.392 58.0025L41.392 59.0025ZM45.229 57.6125C46.1865 56.6789 46.66 55.4902 46.66 54.0865L45.66 54.0865C45.66 55.2428 45.2801 56.1661 44.5309 56.8965L45.229 57.6125ZM34.448 24.4137L34.8045 24.7644L34.8073 24.7615L34.448 24.4137ZM50 22.4297L50.5 22.4297L50.5 21.9297L50 21.9297L50 22.4297ZM50 27.4217L50 27.9217L50.5 27.9217L50.5 27.4217L50 27.4217ZM37.872 28.3177L38.2013 28.6941L38.2071 28.6888L37.872 28.3177ZM38.032 33.9177L38.3806 33.5592L38.3756 33.5545L38.032 33.9177ZM50 35.0377L50.5 35.0377L50.5 34.5377L50 34.5377L50 35.0377ZM50 40.0297L50 40.5297L50.5 40.5297L50.5 40.0297L50 40.0297ZM32.784 40.0297L32.284 40.0297L32.284 40.5297L32.784 40.5297L32.784 40.0297ZM32.784 35.2617L32.784 34.7617L32.284 34.7617L32.284 35.2617L32.784 35.2617ZM34.8 35.2617L34.8 35.7617L36.0905 35.7617L35.1369 34.8923L34.8 35.2617ZM33.136 32.7977L33.6017 32.6155L33.5981 32.6069L33.136 32.7977ZM33.028 29.5657C33.028 27.5398 33.6319 25.9565 34.8044 24.7644L34.0915 24.0631C32.7041 25.4737 32.028 27.3251 32.028 29.5657L33.028 29.5657ZM34.8073 24.7615C35.9626 23.5676 37.7109 22.9297 40.144 22.9297L40.144 21.9297C37.5424 21.9297 35.4934 22.6145 34.0887 24.066L34.8073 24.7615ZM40.144 22.9297L50 22.9297L50 21.9297L40.144 21.9297L40.144 22.9297ZM49.5 22.4297L49.5 27.4217L50.5 27.4217L50.5 22.4297L49.5 22.4297ZM50 26.9217L40.912 26.9217L40.912 27.9217L50 27.9217L50 26.9217ZM40.912 26.9217C39.4864 26.9217 38.3283 27.2318 37.5368 27.9467L38.2071 28.6888C38.7383 28.209 39.6069 27.9217 40.912 27.9217L40.912 26.9217ZM37.5427 27.9415C36.7257 28.6564 36.348 29.6733 36.348 30.9097L37.348 30.9097C37.348 29.8849 37.653 29.1738 38.2012 28.694L37.5427 27.9415ZM36.348 30.9097C36.348 32.2821 36.7832 33.4247 37.6884 34.281L38.3756 33.5545C37.7021 32.9175 37.348 32.0547 37.348 30.9097L36.348 30.9097ZM37.6834 34.2762C38.5787 35.1466 39.8784 35.5377 41.488 35.5377L41.488 34.5377C40.0256 34.5377 39.0213 34.1822 38.3805 33.5592L37.6834 34.2762ZM41.488 35.5377L50 35.5377L50 34.5377L41.488 34.5377L41.488 35.5377ZM49.5 35.0377L49.5 40.0297L50.5 40.0297L50.5 35.0377L49.5 35.0377ZM50 39.5297L32.784 39.5297L32.784 40.5297L50 40.5297L50 39.5297ZM33.284 40.0297L33.284 35.2617L32.284 35.2617L32.284 40.0297L33.284 40.0297ZM32.784 35.7617L34.8 35.7617L34.8 34.7617L32.784 34.7617L32.784 35.7617ZM35.1369 34.8923C34.4724 34.2864 33.9597 33.5308 33.6016 32.6155L32.6704 32.9799C33.0802 34.0274 33.6769 34.9144 34.4631 35.6312L35.1369 34.8923ZM33.5981 32.6069C33.2203 31.6921 33.028 30.6805 33.028 29.5657L32.028 29.5657C32.028 30.7977 32.241 31.9407 32.6739 32.9886L33.5981 32.6069ZM49.744 15.0247L50.2273 15.1531L50.2291 15.146L49.744 15.0247ZM48.4 18.2887L48.1894 18.7422L48.5806 18.9239L48.8177 18.5635L48.4 18.2887ZM44.816 16.6247L44.3946 16.3555L44.0868 16.8374L44.6054 17.0782L44.816 16.6247ZM46.032 13.8407L46.5117 13.9818L46.5141 13.9731L46.032 13.8407ZM43.856 8.33674L44.3249 8.5104L44.3249 8.5104L43.856 8.33674ZM43.312 10.9927L43.8065 11.0677L43.8081 11.0548L43.312 10.9927ZM42.576 14.4807L42.0974 14.336L42.0974 14.336L42.576 14.4807ZM41.104 16.8807L41.4464 17.2452L41.4521 17.2397L41.104 16.8807ZM35.216 16.9447L34.916 17.3447L34.9176 17.346L35.216 16.9447ZM33.232 14.1927L32.7655 14.3728L32.7666 14.3756L33.232 14.1927ZM32.944 6.28874L33.4311 6.40183L33.4333 6.39175L32.944 6.28874ZM34.032 3.28074L34.2441 2.82796L33.8338 2.63574L33.6022 3.0252L34.032 3.28074ZM37.584 4.94474L38.0196 5.19016L38.2842 4.7206L37.7961 4.49196L37.584 4.94474ZM36.752 12.3047L36.3157 12.549L36.3157 12.549L36.752 12.3047ZM39.024 12.2407L38.5551 12.0671L38.5551 12.0671L39.024 12.2407ZM39.632 9.48874L39.1387 9.40653L39.1377 9.41334L39.632 9.48874ZM40.4 6.03274L40.8777 6.18062L40.8807 6.1701L40.4 6.03274ZM41.84 3.69674L42.1823 4.06116L42.1823 4.06116L41.84 3.69674ZM47.632 3.66474L47.9368 3.26843L47.9368 3.26843L47.632 3.66474ZM49.584 6.48074L50.0532 6.30788L50.0515 6.30341L49.584 6.48074ZM49.756 10.8327C49.756 12.2218 49.5902 13.5784 49.2589 14.9035L50.2291 15.146C50.5805 13.7404 50.756 12.3023 50.756 10.8327L49.756 10.8327ZM49.2607 14.8964C48.9062 16.2312 48.4759 17.2637 47.9823 18.0139L48.8177 18.5635C49.3908 17.6925 49.8565 16.5489 50.2272 15.1531L49.2607 14.8964ZM48.6105 17.8352L45.0265 16.1712L44.6054 17.0782L48.1894 18.7422L48.6105 17.8352ZM45.2373 16.8939C45.7587 16.0779 46.1815 15.1045 46.5117 13.9818L45.5523 13.6997C45.2425 14.753 44.8546 15.6356 44.3946 16.3555L45.2373 16.8939ZM46.5141 13.9731C46.8237 12.8454 46.98 11.7342 46.98 10.6407L45.98 10.6407C45.98 11.638 45.8376 12.6601 45.5498 13.7084L46.5141 13.9731ZM46.98 10.6407C46.98 9.55958 46.8488 8.67479 46.5361 8.04295C46.3763 7.72003 46.1611 7.44716 45.8773 7.25602C45.5901 7.06261 45.2619 6.97274 44.912 6.97274L44.912 7.97274C45.0848 7.97274 45.2139 8.01487 45.3187 8.08546C45.4269 8.15832 45.5384 8.28145 45.6399 8.48653C45.8498 8.91069 45.98 9.6099 45.98 10.6407L46.98 10.6407ZM44.912 6.97274C44.561 6.97274 44.236 7.07872 43.9634 7.30176C43.6985 7.51845 43.5142 7.81987 43.3871 8.16308L44.3249 8.5104C44.4111 8.27761 44.5094 8.14703 44.5966 8.07572C44.676 8.01076 44.7723 7.97274 44.912 7.97274L44.912 6.97274ZM43.3871 8.16308C43.1531 8.7949 42.9663 9.72694 42.8158 10.9307L43.8081 11.0548C43.9563 9.86921 44.1322 9.03058 44.3249 8.5104L43.3871 8.16308ZM42.8176 10.9178C42.6063 12.3124 42.3654 13.4497 42.0974 14.336L43.0546 14.6254C43.3413 13.6771 43.591 12.4891 43.8063 11.0676L42.8176 10.9178ZM42.0974 14.336C41.8452 15.1701 41.4004 15.8969 40.7559 16.5218L41.4521 17.2397C42.2156 16.4993 42.7521 15.6261 43.0546 14.6254L42.0974 14.336ZM40.7616 16.5163C40.1787 17.064 39.3152 17.3727 38.096 17.3727L38.096 18.3727C39.4795 18.3727 40.6213 18.0202 41.4463 17.2452L40.7616 16.5163ZM38.096 17.3727C37.1098 17.3727 36.2556 17.0947 35.5143 16.5435L34.9176 17.346C35.8403 18.0321 36.9062 18.3727 38.096 18.3727L38.096 17.3727ZM35.516 16.5447C34.7507 15.9708 34.1397 15.1359 33.6974 14.0099L32.7666 14.3756C33.2629 15.6389 33.9746 16.6387 34.916 17.3447L35.516 16.5447ZM33.6984 14.0127C33.2562 12.8669 33.028 11.5012 33.028 9.90474L32.028 9.90474C32.028 11.5936 32.2691 13.0866 32.7655 14.3728L33.6984 14.0127ZM33.028 9.90474C33.028 8.72713 33.1622 7.55972 33.431 6.4018L32.4569 6.17568C32.1711 7.40709 32.028 8.65035 32.028 9.90474L33.028 9.90474ZM33.4333 6.39175C33.6817 5.21181 34.0285 4.265 34.4618 3.53628L33.6022 3.0252C33.0968 3.87514 32.7183 4.93367 32.4547 6.18574L33.4333 6.39175ZM33.8199 3.73352L37.3719 5.39752L37.7961 4.49196L34.2441 2.82796L33.8199 3.73352ZM37.1484 4.69932C36.2515 6.29126 35.804 8.02952 35.804 9.90474L36.804 9.90474C36.804 8.19596 37.2098 6.62755 38.0196 5.19016L37.1484 4.69932ZM35.804 9.90474C35.804 11.0017 35.9547 11.9044 36.3157 12.549L37.1882 12.0604C36.9519 11.6385 36.804 10.9411 36.804 9.90474L35.804 9.90474ZM36.3157 12.549C36.6719 13.1851 37.1982 13.6047 37.904 13.6047L37.904 12.6047C37.6711 12.6047 37.4294 12.491 37.1882 12.0604L36.3157 12.549ZM37.904 13.6047C38.2659 13.6047 38.6039 13.5049 38.8894 13.2846C39.1697 13.0684 39.3633 12.7642 39.4929 12.4144L38.5551 12.0671C38.4713 12.2933 38.3717 12.4211 38.2786 12.4928C38.1907 12.5606 38.0754 12.6047 37.904 12.6047L37.904 13.6047ZM39.4929 12.4144C39.7248 11.7881 39.9334 10.8286 40.1263 9.56414L39.1377 9.41334C38.9466 10.6662 38.7498 11.5414 38.5551 12.0671L39.4929 12.4144ZM40.1252 9.57094C40.3578 8.17497 40.6094 7.04707 40.8776 6.18058L39.9223 5.8849C39.6359 6.81041 39.3755 7.98651 39.1388 9.40654L40.1252 9.57094ZM40.8807 6.1701C41.111 5.36416 41.5416 4.66306 42.1823 4.06116L41.4976 3.33232C40.7304 4.05309 40.201 4.90932 39.9192 5.89538L40.8807 6.1701ZM42.1823 4.06116C42.7682 3.5108 43.6127 3.20474 44.784 3.20474L44.784 2.20474C43.4379 2.20474 42.3198 2.56002 41.4976 3.33232L42.1823 4.06116ZM44.784 3.20474C45.7423 3.20474 46.5841 3.48945 47.3271 4.06105L47.9368 3.26843C47.0159 2.56003 45.959 2.20474 44.784 2.20474L44.784 3.20474ZM47.3271 4.06105C48.0688 4.63153 48.6715 5.485 49.1165 6.65807L50.0515 6.30341C49.5578 5.00182 48.8592 3.97795 47.9368 3.26843L47.3271 4.06105ZM49.1148 6.65359C49.5373 7.80041 49.756 9.18959 49.756 10.8327L50.756 10.8327C50.756 9.10522 50.5266 7.59307 50.0532 6.30789L49.1148 6.65359Z" fill="white"/>
<path d="M3.3 343.276L11 343.276L11 344.453L5.786 348.699L11 348.699L11 350.118L3.3 350.118L3.3 348.941L8.514 344.695L3.3 344.695L3.3 343.276ZM8.096 335.163C8.19133 335.163 8.327 335.17 8.503 335.185L8.503 339.794C8.93567 339.713 9.28033 339.504 9.537 339.167C9.78633 338.822 9.911 338.397 9.911 337.891C9.911 337.246 9.69833 336.714 9.273 336.296L10.12 335.559C10.4353 335.823 10.6737 336.157 10.835 336.56C10.9963 336.963 11.077 337.418 11.077 337.924C11.077 338.569 10.9487 339.138 10.692 339.629C10.4353 340.12 10.0797 340.502 9.625 340.773C9.163 341.037 8.64233 341.169 8.063 341.169C7.491 341.169 6.97767 341.041 6.523 340.784C6.061 340.52 5.70167 340.157 5.445 339.695C5.18833 339.233 5.06 338.712 5.06 338.133C5.06 337.561 5.18833 337.051 5.445 336.604C5.69433 336.149 6.05 335.797 6.512 335.548C6.96667 335.291 7.49467 335.163 8.096 335.163ZM6.16 338.133C6.16 338.573 6.292 338.947 6.556 339.255C6.81267 339.556 7.15733 339.739 7.59 339.805L7.59 336.472C7.16467 336.531 6.82 336.71 6.556 337.011C6.292 337.312 6.16 337.686 6.16 338.133ZM11 329.604L8.965 331.111L11 332.629L11 334.147L8.019 331.859L5.126 334.048L5.126 332.519L7.051 331.078L5.126 329.637L5.126 328.152L7.997 330.352L11 328.053L11 329.604ZM10.681 322.847C10.813 323.008 10.912 323.206 10.978 323.441C11.044 323.668 11.077 323.91 11.077 324.167C11.077 324.812 10.9083 325.311 10.571 325.663C10.2337 326.015 9.74233 326.191 9.097 326.191L6.27 326.191L6.27 327.159L5.17 327.159L5.17 326.191L3.828 326.191L3.828 324.816L5.17 324.816L5.17 323.243L6.27 323.243L6.27 324.816L9.064 324.816C9.35 324.816 9.57 324.746 9.724 324.607C9.87067 324.468 9.944 324.266 9.944 324.002C9.944 323.694 9.86333 323.437 9.702 323.232L10.681 322.847ZM3.3 314.056C3.3 313.388 3.41 312.809 3.63 312.318C3.85 311.819 4.16533 311.438 4.576 311.174C4.98666 310.91 5.47433 310.778 6.039 310.778C6.59633 310.778 7.084 310.91 7.502 311.174C7.91266 311.438 8.228 311.819 8.448 312.318C8.668 312.809 8.778 313.388 8.778 314.056L8.778 315.794L11 315.794L11 317.224L3.3 317.224L3.3 314.056ZM7.568 314.122C7.568 313.498 7.436 313.025 7.172 312.703C6.908 312.38 6.53033 312.219 6.039 312.219C5.54766 312.219 5.17 312.38 4.906 312.703C4.642 313.025 4.51 313.498 4.51 314.122L4.51 315.794L7.568 315.794L7.568 314.122ZM5.984 307.566C5.368 307.17 5.06 306.474 5.06 305.476L6.369 305.476C6.347 305.594 6.336 305.7 6.336 305.795C6.336 306.331 6.49366 306.749 6.809 307.049C7.117 307.35 7.56433 307.5 8.151 307.5L11 307.5L11 308.875L5.126 308.875L5.126 307.566L5.984 307.566ZM11.077 301.064C11.077 301.658 10.9487 302.193 10.692 302.67C10.4353 303.146 10.0797 303.52 9.625 303.792C9.163 304.056 8.64233 304.188 8.063 304.188C7.48366 304.188 6.96666 304.056 6.512 303.792C6.05733 303.52 5.70166 303.146 5.445 302.67C5.18833 302.193 5.06 301.658 5.06 301.064C5.06 300.462 5.18833 299.923 5.445 299.447C5.70166 298.97 6.05733 298.6 6.512 298.336C6.96666 298.064 7.48366 297.929 8.063 297.929C8.64233 297.929 9.163 298.064 9.625 298.336C10.0797 298.6 10.4353 298.97 10.692 299.447C10.9487 299.923 11.077 300.462 11.077 301.064ZM9.9 301.064C9.9 300.558 9.73133 300.14 9.394 299.81C9.05666 299.48 8.613 299.315 8.063 299.315C7.513 299.315 7.06933 299.48 6.732 299.81C6.39466 300.14 6.226 300.558 6.226 301.064C6.226 301.57 6.39466 301.988 6.732 302.318C7.06933 302.64 7.513 302.802 8.063 302.802C8.613 302.802 9.05666 302.64 9.394 302.318C9.73133 301.988 9.9 301.57 9.9 301.064ZM13.211 296.559C13.211 297.138 13.0973 297.578 12.87 297.879L11.847 297.483C12.001 297.277 12.078 297.01 12.078 296.68C12.078 296.423 11.9973 296.229 11.836 296.097C11.682 295.957 11.451 295.888 11.143 295.888L5.126 295.888L5.126 294.513L11.11 294.513C11.7627 294.513 12.276 294.692 12.65 295.052C13.024 295.411 13.211 295.913 13.211 296.559ZM4.158 295.206C4.158 295.455 4.081 295.664 3.927 295.833C3.76566 296.001 3.56766 296.086 3.333 296.086C3.09833 296.086 2.904 296.001 2.75 295.833C2.58866 295.664 2.508 295.455 2.508 295.206C2.508 294.956 2.585 294.747 2.739 294.579C2.88566 294.41 3.07266 294.326 3.3 294.326C3.542 294.326 3.74733 294.41 3.916 294.579C4.07733 294.74 4.158 294.949 4.158 295.206ZM8.096 286.528C8.19133 286.528 8.327 286.535 8.503 286.55L8.503 291.159C8.93566 291.078 9.28033 290.869 9.537 290.532C9.78633 290.187 9.911 289.762 9.911 289.256C9.911 288.61 9.69833 288.079 9.273 287.661L10.12 286.924C10.4353 287.188 10.6737 287.521 10.835 287.925C10.9963 288.328 11.077 288.783 11.077 289.289C11.077 289.934 10.9487 290.502 10.692 290.994C10.4353 291.485 10.0797 291.866 9.625 292.138C9.163 292.402 8.64233 292.534 8.063 292.534C7.491 292.534 6.97766 292.405 6.523 292.149C6.061 291.885 5.70166 291.522 5.445 291.06C5.18833 290.598 5.06 290.077 5.06 289.498C5.06 288.926 5.18833 288.416 5.445 287.969C5.69433 287.514 6.05 287.162 6.512 286.913C6.96666 286.656 7.49466 286.528 8.096 286.528ZM6.16 289.498C6.16 289.938 6.292 290.312 6.556 290.62C6.81266 290.92 7.15733 291.104 7.59 291.17L7.59 287.837C7.16466 287.895 6.82 288.075 6.556 288.376C6.292 288.676 6.16 289.05 6.16 289.498ZM11.077 281.852C11.077 282.461 10.9487 283.007 10.692 283.491C10.4353 283.975 10.0797 284.353 9.625 284.624C9.163 284.895 8.64233 285.031 8.063 285.031C7.48366 285.031 6.96666 284.895 6.512 284.624C6.05733 284.353 5.70166 283.979 5.445 283.502C5.18833 283.018 5.06 282.468 5.06 281.852C5.06 281.273 5.17733 280.767 5.412 280.334C5.64666 279.894 5.984 279.564 6.424 279.344L7.04 280.4C6.76866 280.569 6.567 280.781 6.435 281.038C6.29566 281.287 6.226 281.562 6.226 281.863C6.226 282.376 6.39466 282.802 6.732 283.139C7.062 283.476 7.50566 283.645 8.063 283.645C8.62033 283.645 9.06766 283.48 9.405 283.15C9.735 282.813 9.9 282.384 9.9 281.863C9.9 281.562 9.834 281.287 9.702 281.038C9.56266 280.781 9.35733 280.569 9.086 280.4L9.702 279.344C10.142 279.571 10.483 279.905 10.725 280.345C10.9597 280.778 11.077 281.28 11.077 281.852ZM10.681 273.889C10.813 274.05 10.912 274.248 10.978 274.483C11.044 274.71 11.077 274.952 11.077 275.209C11.077 275.854 10.9083 276.353 10.571 276.705C10.2337 277.057 9.74233 277.233 9.097 277.233L6.27 277.233L6.27 278.201L5.17 278.201L5.17 277.233L3.828 277.233L3.828 275.858L5.17 275.858L5.17 274.285L6.27 274.285L6.27 275.858L9.064 275.858C9.35 275.858 9.57 275.788 9.724 275.649C9.87066 275.51 9.944 275.308 9.944 275.044C9.944 274.736 9.86333 274.479 9.702 274.274L10.681 273.889Z" fill="white"/>
</svg>
