<svg width="88" height="318" viewBox="0 0 88 318" fill="none" xmlns="http://www.w3.org/2000/svg">
<path d="M28.592 300.496L29.047 300.703L29.0481 300.701L28.592 300.496ZM40.048 297.104L40.3202 296.685L40.3169 296.682L40.048 297.104ZM42.864 300.496L43.3215 300.294L43.3201 300.291L42.864 300.496ZM43.824 310.16L43.324 310.16L43.324 310.66L43.824 310.66L43.824 310.16ZM50 310.16L50.5 310.16L50.5 309.66L50 309.66L50 310.16ZM50 315.344L50 315.844L50.5 315.844L50.5 315.344L50 315.344ZM27.6 315.344L27.1 315.344L27.1 315.844L27.6 315.844L27.6 315.344ZM38.608 302.384L38.9955 302.068L38.9905 302.062L38.608 302.384ZM32.848 302.384L33.2305 302.706L33.2354 302.7L32.848 302.384ZM31.824 310.16L31.324 310.16L31.324 310.66L31.824 310.66L31.824 310.16ZM39.6 310.16L39.6 310.66L40.1 310.66L40.1 310.16L39.6 310.16ZM28.1 305.648C28.1 303.719 28.4216 302.075 29.047 300.703L28.137 300.289C27.4397 301.818 27.1 303.609 27.1 305.648L28.1 305.648ZM29.0481 300.701C29.6746 299.306 30.5538 298.255 31.6802 297.523L31.1358 296.685C29.8302 297.532 28.832 298.742 28.1359 300.291L29.0481 300.701ZM31.6802 297.523C32.8037 296.794 34.146 296.42 35.728 296.42L35.728 295.42C33.982 295.42 32.4443 295.835 31.1358 296.685L31.6802 297.523ZM35.728 296.42C37.2871 296.42 38.6314 296.793 39.7791 297.526L40.3169 296.682C38.9899 295.836 37.4542 295.42 35.728 295.42L35.728 296.42ZM39.7758 297.523C40.9022 298.255 41.7814 299.306 42.4079 300.701L43.3201 300.291C42.624 298.742 41.6258 297.532 40.3202 296.685L39.7758 297.523ZM42.4065 300.698C43.0124 302.071 43.324 303.717 43.324 305.648L44.324 305.648C44.324 303.611 43.9956 301.822 43.3215 300.294L42.4065 300.698ZM43.324 305.648L43.324 310.16L44.324 310.16L44.324 305.648L43.324 305.648ZM43.824 310.66L50 310.66L50 309.66L43.824 309.66L43.824 310.66ZM49.5 310.16L49.5 315.344L50.5 315.344L50.5 310.16L49.5 310.16ZM50 314.844L27.6 314.844L27.6 315.844L50 315.844L50 314.844ZM28.1 315.344L28.1 305.648L27.1 305.648L27.1 315.344L28.1 315.344ZM40.1 305.936C40.1 304.318 39.7577 303.002 38.9954 302.068L38.2206 302.7C38.781 303.387 39.1 304.44 39.1 305.936L40.1 305.936ZM38.9905 302.062C38.1964 301.119 37.0854 300.668 35.728 300.668L35.728 301.668C36.8453 301.668 37.6542 302.028 38.2255 302.706L38.9905 302.062ZM35.728 300.668C34.3529 300.668 33.2363 301.117 32.4606 302.068L33.2354 302.7C33.7824 302.03 34.5858 301.668 35.728 301.668L35.728 300.668ZM32.4655 302.062C31.6783 302.997 31.324 304.315 31.324 305.936L32.324 305.936C32.324 304.443 32.6523 303.393 33.2305 302.706L32.4655 302.062ZM31.324 305.936L31.324 310.16L32.324 310.16L32.324 305.936L31.324 305.936ZM31.824 310.66L39.6 310.66L39.6 309.66L31.824 309.66L31.824 310.66ZM40.1 310.16L40.1 305.936L39.1 305.936L39.1 310.16L40.1 310.16ZM42.8 274.554L43.3 274.554L43.3 274.091L42.8383 274.056L42.8 274.554ZM42.8 287.578L42.3 287.578L42.3 288.2L42.9074 288.067L42.8 287.578ZM45.328 285.914L44.9198 285.626L45.328 285.914ZM45.872 280.282L46.3402 280.107L46.3372 280.099L45.872 280.282ZM44.592 278.33L44.253 277.963L43.8772 278.309L44.2321 278.677L44.592 278.33ZM47.472 275.674L47.8009 275.298L47.4629 275.002L47.133 275.307L47.472 275.674ZM49.136 287.93L49.5807 288.159L49.5832 288.154L49.136 287.93ZM45.968 291.386L46.2262 291.814L45.968 291.386ZM36.848 291.418L36.5927 291.848L36.5948 291.849L36.848 291.418ZM33.68 288.122L34.1202 287.885L34.1189 287.883L33.68 288.122ZM33.616 278.842L33.1744 278.608L33.616 278.842ZM36.752 275.642L36.9972 276.078L37.0052 276.073L36.752 275.642ZM37.264 286.234L36.8799 286.554L36.8799 286.554L37.264 286.234ZM39.888 287.642L39.812 288.136L40.388 288.225L40.388 287.642L39.888 287.642ZM39.888 279.162L40.388 279.162L40.388 278.578L39.8105 278.668L39.888 279.162ZM37.296 280.57L37.6749 280.897L37.6801 280.89L37.296 280.57ZM41.456 274.958C41.4528 274.958 41.475 274.959 41.5448 274.963C41.6066 274.967 41.6929 274.973 41.8044 274.981C42.027 274.997 42.3459 275.021 42.7617 275.053L42.8383 274.056C42.0249 273.993 41.5453 273.958 41.456 273.958L41.456 274.958ZM42.3 274.554L42.3 287.578L43.3 287.578L43.3 274.554L42.3 274.554ZM42.9074 288.067C44.0931 287.806 45.0441 287.181 45.7362 286.203L44.9198 285.626C44.3746 286.396 43.6402 286.881 42.6926 287.09L42.9074 288.067ZM45.7362 286.203C46.4264 285.227 46.756 284.032 46.756 282.65L45.756 282.65C45.756 283.871 45.4669 284.852 44.9198 285.626L45.7362 286.203ZM46.756 282.65C46.756 281.708 46.6214 280.857 46.3402 280.107L45.4038 280.458C45.6346 281.073 45.756 281.801 45.756 282.65L46.756 282.65ZM46.3372 280.099C46.0336 279.328 45.569 278.623 44.9519 277.983L44.2321 278.677C44.767 279.232 45.1557 279.828 45.4068 280.466L46.3372 280.099ZM44.931 278.698L47.811 276.042L47.133 275.307L44.253 277.963L44.931 278.698ZM47.1431 276.051C48.8629 277.553 49.756 279.767 49.756 282.778L50.756 282.778C50.756 279.56 49.7931 277.038 47.8009 275.298L47.1431 276.051ZM49.756 282.778C49.756 284.655 49.3955 286.293 48.6888 287.707L49.5832 288.154C50.3698 286.581 50.756 284.785 50.756 282.778L49.756 282.778ZM48.6914 287.702C47.9627 289.118 46.9687 290.199 45.7098 290.958L46.2262 291.814C47.6553 290.952 48.7733 289.729 49.5806 288.159L48.6914 287.702ZM45.7098 290.958C44.4504 291.718 43.0159 292.102 41.392 292.102L41.392 293.102C43.1815 293.102 44.7976 292.676 46.2262 291.814L45.7098 290.958ZM41.392 292.102C39.7882 292.102 38.3622 291.728 37.1012 290.987L36.5948 291.849C38.0218 292.687 39.6251 293.102 41.392 293.102L41.392 292.102ZM37.1033 290.988C35.8153 290.224 34.8235 289.191 34.1202 287.885L33.2398 288.359C34.0298 289.827 35.1501 290.992 36.5927 291.848L37.1033 290.988ZM34.1189 287.883C33.3941 286.554 33.028 285.069 33.028 283.418L32.028 283.418C32.028 285.223 32.4299 286.875 33.241 288.362L34.1189 287.883ZM33.028 283.418C33.028 281.807 33.374 280.364 34.0576 279.077L33.1744 278.608C32.4073 280.052 32.028 281.659 32.028 283.418L33.028 283.418ZM34.0576 279.077C34.7374 277.797 35.714 276.8 36.9971 276.078L36.5069 275.206C35.0593 276.021 33.9453 277.157 33.1744 278.608L34.0576 279.077ZM37.0052 276.073C38.2616 275.336 39.7395 274.958 41.456 274.958L41.456 273.958C39.5885 273.958 37.9304 274.37 36.4988 275.211L37.0052 276.073ZM35.804 283.386C35.804 284.618 36.1552 285.685 36.8799 286.554L37.6481 285.914C37.0928 285.248 36.804 284.416 36.804 283.386L35.804 283.386ZM36.8799 286.554C37.6076 287.428 38.598 287.95 39.812 288.136L39.964 287.148C38.9593 286.993 38.2004 286.577 37.6481 285.914L36.8799 286.554ZM40.388 287.642L40.388 279.162L39.388 279.162L39.388 287.642L40.388 287.642ZM39.8105 278.668C38.6157 278.856 37.6377 279.379 36.9119 280.25L37.6801 280.89C38.2343 280.225 38.9843 279.81 39.9655 279.656L39.8105 278.668ZM36.9171 280.244C36.17 281.112 35.804 282.169 35.804 283.386L36.804 283.386C36.804 282.384 37.0993 281.565 37.6749 280.897L36.9171 280.244ZM35.056 265.087L35.056 265.587L36.6098 265.587L35.3476 264.681L35.056 265.087ZM33.168 262.687L32.7064 262.879L32.7079 262.883L33.168 262.687ZM32.528 259.167L32.528 258.667L32.028 258.667L32.028 259.167L32.528 259.167ZM37.136 259.167L37.6345 259.205L37.6759 258.667L37.136 258.667L37.136 259.167ZM38.288 263.647L38.6463 263.298L38.6415 263.293L38.288 263.647ZM50 264.863L50.5 264.863L50.5 264.363L50 264.363L50 264.863ZM50 269.855L50 270.355L50.5 270.355L50.5 269.855L50 269.855ZM32.784 269.855L32.284 269.855L32.284 270.355L32.784 270.355L32.784 269.855ZM32.784 265.087L32.784 264.587L32.284 264.587L32.284 265.087L32.784 265.087ZM35.3476 264.681C34.5948 264.14 34.0213 263.415 33.6281 262.491L32.7079 262.883C33.168 263.964 33.8532 264.839 34.7644 265.493L35.3476 264.681ZM33.6295 262.494C33.2326 261.542 33.028 260.436 33.028 259.167L32.028 259.167C32.028 260.543 32.25 261.784 32.7065 262.879L33.6295 262.494ZM32.528 259.667L37.136 259.667L37.136 258.667L32.528 258.667L32.528 259.667ZM36.6375 259.128C36.595 259.68 36.572 260.073 36.572 260.287L37.572 260.287C37.572 260.117 37.5916 259.762 37.6345 259.205L36.6375 259.128ZM36.572 260.287C36.572 261.814 37.0081 263.074 37.9344 264L38.6415 263.293C37.9466 262.598 37.572 261.618 37.572 260.287L36.572 260.287ZM37.9298 263.996C38.8465 264.937 40.1938 265.363 41.872 265.363L41.872 264.363C40.3502 264.363 39.3081 263.978 38.6462 263.298L37.9298 263.996ZM41.872 265.363L50 265.363L50 264.363L41.872 264.363L41.872 265.363ZM49.5 264.863L49.5 269.855L50.5 269.855L50.5 264.863L49.5 264.863ZM50 269.355L32.784 269.355L32.784 270.355L50 270.355L50 269.355ZM33.284 269.855L33.284 265.087L32.284 265.087L32.284 269.855L33.284 269.855ZM32.784 265.587L35.056 265.587L35.056 264.587L32.784 264.587L32.784 265.587ZM33.168 249.322L33.168 249.822L33.668 249.822L33.668 249.322L33.168 249.322ZM33.168 244.906L33.168 244.406L32.668 244.406L32.668 244.906L33.168 244.906ZM37.008 244.906L37.508 244.906L37.508 244.406L37.008 244.406L37.008 244.906ZM37.008 249.193L36.508 249.193L36.508 249.693L37.008 249.693L37.008 249.193ZM50 249.193L50.5 249.193L50.5 248.693L50 248.693L50 249.193ZM50 254.185L50 254.685L50.5 254.685L50.5 254.185L50 254.185ZM37.008 254.186L37.008 253.686L36.508 253.686L36.508 254.186L37.008 254.186ZM37.008 256.841L37.008 257.341L37.508 257.341L37.508 256.841L37.008 256.841ZM33.168 256.841L32.668 256.841L32.668 257.341L33.168 257.341L33.168 256.841ZM33.168 254.186L33.668 254.186L33.668 253.686L33.168 253.686L33.168 254.186ZM27.728 252.457L27.3712 252.808L27.3744 252.811L27.728 252.457ZM26.256 245.417L26.7401 245.542L26.7425 245.533L26.7444 245.524L26.256 245.417ZM26.928 243.721L27.0985 243.251L26.7296 243.118L26.512 243.444L26.928 243.721ZM30.544 245.034L30.9529 245.321L31.3292 244.786L30.7145 244.563L30.544 245.034ZM33.668 249.322L33.668 244.906L32.668 244.906L32.668 249.322L33.668 249.322ZM33.168 245.406L37.008 245.406L37.008 244.406L33.168 244.406L33.168 245.406ZM36.508 244.906L36.508 249.193L37.508 249.193L37.508 244.906L36.508 244.906ZM37.008 249.693L50 249.693L50 248.693L37.008 248.693L37.008 249.693ZM49.5 249.193L49.5 254.185L50.5 254.185L50.5 249.193L49.5 249.193ZM50 253.685L37.008 253.686L37.008 254.686L50 254.685L50 253.685ZM36.508 254.186L36.508 256.841L37.508 256.841L37.508 254.186L36.508 254.186ZM37.008 256.341L33.168 256.341L33.168 257.341L37.008 257.341L37.008 256.341ZM33.668 256.841L33.668 254.186L32.668 254.186L32.668 256.841L33.668 256.841ZM33.168 253.686L32.4 253.686L32.4 254.686L33.168 254.686L33.168 253.686ZM32.4 253.686C30.5409 253.686 29.1211 253.143 28.0815 252.104L27.3744 252.811C28.6389 254.076 30.3337 254.686 32.4 254.686L32.4 253.686ZM28.0848 252.107C27.0486 251.052 26.5 249.549 26.5 247.529L25.5 247.529C25.5 249.734 26.1034 251.516 27.3712 252.808L28.0848 252.107ZM26.5 247.529C26.5 246.821 26.5809 246.159 26.7401 245.542L25.7719 245.293C25.5897 245.998 25.5 246.745 25.5 247.529L26.5 247.529ZM26.7444 245.524C26.8842 244.885 27.0885 244.382 27.344 243.999L26.512 243.444C26.1702 243.957 25.9264 244.584 25.7675 245.311L26.7444 245.524ZM26.7575 244.192L30.3735 245.504L30.7145 244.563L27.0985 243.251L26.7575 244.192ZM30.1351 244.746C29.6651 245.414 29.436 246.188 29.436 247.049L30.436 247.049C30.436 246.375 30.6122 245.805 30.9529 245.321L30.1351 244.746ZM29.436 247.049C29.436 247.897 29.6708 248.62 30.2234 249.123C30.7671 249.618 31.5339 249.822 32.432 249.822L32.432 248.822C31.666 248.822 31.1849 248.646 30.8966 248.384C30.6172 248.129 30.436 247.717 30.436 247.049L29.436 247.049ZM32.432 249.822L33.168 249.822L33.168 248.822L32.432 248.822L32.432 249.822ZM42.8 224.589L43.3 224.589L43.3 224.126L42.8383 224.091L42.8 224.589ZM42.8 237.613L42.3 237.613L42.3 238.235L42.9074 238.102L42.8 237.613ZM45.328 235.949L44.9198 235.661L45.328 235.949ZM45.872 230.317L46.3402 230.142L46.3372 230.134L45.872 230.317ZM44.592 228.365L44.253 227.998L43.8772 228.344L44.2321 228.712L44.592 228.365ZM47.472 225.709L47.8009 225.333L47.4629 225.037L47.133 225.342L47.472 225.709ZM49.136 237.965L49.5807 238.194L49.5832 238.189L49.136 237.965ZM45.968 241.421L46.2262 241.849L45.968 241.421ZM36.848 241.453L36.5927 241.883L36.5948 241.884L36.848 241.453ZM33.68 238.157L34.1202 237.92L34.1189 237.918L33.68 238.157ZM33.616 228.877L33.1744 228.643L33.616 228.877ZM36.752 225.677L36.9972 226.113L37.0052 226.108L36.752 225.677ZM37.264 236.269L36.8799 236.589L37.264 236.269ZM39.888 237.677L39.812 238.171L40.388 238.26L40.388 237.677L39.888 237.677ZM39.888 229.197L40.388 229.197L40.388 228.613L39.8105 228.703L39.888 229.197ZM37.296 230.605L37.6749 230.932L37.6801 230.925L37.296 230.605ZM41.456 224.993C41.4528 224.993 41.475 224.994 41.5448 224.998C41.6066 225.002 41.6929 225.008 41.8044 225.016C42.027 225.032 42.3459 225.056 42.7616 225.088L42.8383 224.091C42.0249 224.028 41.5453 223.993 41.456 223.993L41.456 224.993ZM42.3 224.589L42.3 237.613L43.3 237.613L43.3 224.589L42.3 224.589ZM42.9074 238.102C44.0931 237.841 45.0441 237.216 45.7362 236.238L44.9198 235.661C44.3746 236.431 43.6402 236.916 42.6926 237.125L42.9074 238.102ZM45.7362 236.238C46.4264 235.262 46.756 234.067 46.756 232.685L45.756 232.685C45.756 233.906 45.4669 234.887 44.9198 235.661L45.7362 236.238ZM46.756 232.685C46.756 231.743 46.6214 230.892 46.3402 230.142L45.4038 230.493C45.6346 231.108 45.756 231.836 45.756 232.685L46.756 232.685ZM46.3372 230.134C46.0336 229.363 45.569 228.658 44.9519 228.018L44.2321 228.712C44.767 229.267 45.1557 229.863 45.4068 230.501L46.3372 230.134ZM44.931 228.733L47.811 226.077L47.133 225.342L44.253 227.998L44.931 228.733ZM47.1431 226.086C48.8629 227.588 49.756 229.802 49.756 232.813L50.756 232.813C50.756 229.595 49.7931 227.073 47.8009 225.333L47.1431 226.086ZM49.756 232.813C49.756 234.69 49.3955 236.328 48.6888 237.742L49.5832 238.189C50.3698 236.616 50.756 234.82 50.756 232.813L49.756 232.813ZM48.6914 237.737C47.9627 239.153 46.9687 240.234 45.7097 240.993L46.2262 241.849C47.6553 240.987 48.7733 239.764 49.5806 238.194L48.6914 237.737ZM45.7097 240.993C44.4504 241.753 43.0159 242.137 41.392 242.137L41.392 243.137C43.1815 243.137 44.7976 242.711 46.2262 241.849L45.7097 240.993ZM41.392 242.137C39.7882 242.137 38.3622 241.763 37.1012 241.022L36.5948 241.884C38.0218 242.722 39.6251 243.137 41.392 243.137L41.392 242.137ZM37.1033 241.023C35.8153 240.259 34.8235 239.226 34.1202 237.92L33.2398 238.394C34.0298 239.862 35.1501 241.027 36.5927 241.883L37.1033 241.023ZM34.1189 237.918C33.3941 236.589 33.028 235.104 33.028 233.453L32.028 233.453C32.028 235.258 32.4299 236.91 33.241 238.397L34.1189 237.918ZM33.028 233.453C33.028 231.842 33.374 230.399 34.0576 229.112L33.1744 228.643C32.4073 230.087 32.028 231.694 32.028 233.453L33.028 233.453ZM34.0576 229.112C34.7374 227.832 35.714 226.835 36.9971 226.113L36.5069 225.241C35.0593 226.056 33.9453 227.192 33.1744 228.643L34.0576 229.112ZM37.0052 226.108C38.2616 225.371 39.7395 224.993 41.456 224.993L41.456 223.993C39.5885 223.993 37.9304 224.405 36.4988 225.246L37.0052 226.108ZM35.804 233.421C35.804 234.653 36.1552 235.72 36.8799 236.589L37.6481 235.949C37.0928 235.283 36.804 234.451 36.804 233.421L35.804 233.421ZM36.8799 236.589C37.6076 237.463 38.598 237.985 39.812 238.171L39.964 237.183C38.9593 237.028 38.2004 236.612 37.6481 235.949L36.8799 236.589ZM40.388 237.677L40.388 229.197L39.388 229.197L39.388 237.677L40.388 237.677ZM39.8105 228.703C38.6157 228.891 37.6377 229.414 36.9119 230.285L37.6801 230.925C38.2343 230.26 38.9843 229.845 39.9655 229.691L39.8105 228.703ZM36.9171 230.279C36.17 231.147 35.804 232.204 35.804 233.421L36.804 233.421C36.804 232.419 37.0993 231.6 37.6749 230.932L36.9171 230.279ZM49.136 216.53L49.578 216.764L49.5819 216.756L49.136 216.53ZM45.968 219.954L46.2263 220.382L46.2312 220.379L45.968 219.954ZM36.816 219.954L36.5528 220.379L36.5577 220.382L36.816 219.954ZM33.68 216.53L34.1246 216.301L34.1233 216.298L33.68 216.53ZM33.68 206.834L34.1142 207.082L34.1187 207.074L33.68 206.834ZM36.912 203.858L37.3525 203.621L37.1338 203.214L36.7109 203.4L36.912 203.858ZM38.992 207.73L39.2388 208.165L39.6636 207.923L39.4325 207.493L38.992 207.73ZM37.904 214.834L37.5504 215.187L37.904 214.834ZM43.792 207.73L43.353 207.49L43.1152 207.926L43.5497 208.167L43.792 207.73ZM45.904 203.858L46.1104 203.402L45.6874 203.211L45.465 203.618L45.904 203.858ZM49.104 206.834L48.6682 207.079L48.6699 207.082L49.104 206.834ZM49.756 211.57C49.756 213.335 49.3974 214.909 48.6901 216.304L49.5819 216.756C50.3679 215.206 50.756 213.474 50.756 211.57L49.756 211.57ZM48.6941 216.296C47.966 217.671 46.9704 218.745 45.7048 219.529L46.2312 220.379C47.6536 219.498 48.77 218.29 49.5779 216.764L48.6941 216.296ZM45.7097 219.526C44.4504 220.285 43.0159 220.67 41.392 220.67L41.392 221.67C43.1815 221.67 44.7975 221.244 46.2262 220.382L45.7097 219.526ZM41.392 220.67C39.7681 220.67 38.3335 220.285 37.0742 219.526L36.5577 220.382C37.9864 221.244 39.6025 221.67 41.392 221.67L41.392 220.67ZM37.0792 219.529C35.8149 218.746 34.8311 217.674 34.1246 216.301L33.2354 216.759C34.0222 218.287 35.1291 219.498 36.5528 220.379L37.0792 219.529ZM34.1233 216.298C33.3963 214.905 33.028 213.332 33.028 211.57L32.028 211.57C32.028 213.476 32.4277 215.21 33.2367 216.761L34.1233 216.298ZM33.028 211.57C33.028 209.828 33.3962 208.338 34.1141 207.082L33.2459 206.586C32.4278 208.017 32.028 209.684 32.028 211.57L33.028 211.57ZM34.1187 207.074C34.8131 205.804 35.8075 204.889 37.1131 204.316L36.7109 203.4C35.2005 204.064 34.0403 205.133 33.2413 206.594L34.1187 207.074ZM36.4715 204.094L38.5515 207.966L39.4325 207.493L37.3525 203.621L36.4715 204.094ZM38.7452 207.295C37.0248 208.271 36.124 209.72 36.124 211.602L37.124 211.602C37.124 210.113 37.8019 208.98 39.2388 208.165L38.7452 207.295ZM36.124 211.602C36.124 213.024 36.5955 214.232 37.5504 215.187L38.2575 214.48C37.5058 213.728 37.124 212.782 37.124 211.602L36.124 211.602ZM37.5504 215.187C38.5174 216.154 39.8184 216.614 41.392 216.614L41.392 215.614C40.0216 215.614 38.9972 215.22 38.2575 214.48L37.5504 215.187ZM41.392 216.614C42.9656 216.614 44.2666 216.154 45.2335 215.187L44.5264 214.48C43.7867 215.22 42.7624 215.614 41.392 215.614L41.392 216.614ZM45.2335 215.187C46.1885 214.232 46.66 213.024 46.66 211.602L45.66 211.602C45.66 212.782 45.2782 213.728 44.5264 214.48L45.2335 215.187ZM46.66 211.602C46.66 210.668 46.4432 209.826 45.9945 209.093C45.5468 208.361 44.8847 207.764 44.0343 207.292L43.5497 208.167C44.278 208.571 44.7999 209.056 45.1414 209.615C45.4821 210.172 45.66 210.828 45.66 211.602L46.66 211.602ZM44.2309 207.969L46.3429 204.097L45.465 203.618L43.353 207.49L44.2309 207.969ZM45.6976 204.313C46.9615 204.886 47.9499 205.802 48.6682 207.079L49.5398 206.589C48.7221 205.135 47.5772 204.067 46.1104 203.402L45.6976 204.313ZM48.6699 207.082C49.3878 208.338 49.756 209.828 49.756 211.57L50.756 211.57C50.756 209.684 50.3562 208.017 49.5381 206.586L48.6699 207.082ZM49.168 188.35L49.5701 188.052L49.3444 187.747L48.9896 187.882L49.168 188.35ZM50 190.173L50.486 190.056L50.4833 190.046L50 190.173ZM48.688 197.182L49.0519 197.524L49.0551 197.521L48.688 197.182ZM37.008 198.845L37.008 198.345L36.508 198.345L36.508 198.845L37.008 198.845ZM37.008 201.502L37.008 202.002L37.508 202.002L37.508 201.502L37.008 201.502ZM33.168 201.502L32.668 201.502L32.668 202.002L33.168 202.002L33.168 201.502ZM33.168 198.845L33.668 198.845L33.668 198.345L33.168 198.345L33.168 198.845ZM28.976 198.845L28.476 198.845L28.476 199.345L28.976 199.345L28.976 198.845ZM28.976 193.853L28.976 193.353L28.476 193.353L28.476 193.853L28.976 193.853ZM33.168 193.853L33.168 194.353L33.668 194.353L33.668 193.853L33.168 193.853ZM33.168 189.566L33.168 189.066L32.668 189.066L32.668 189.566L33.168 189.566ZM37.008 189.566L37.508 189.566L37.508 189.066L37.008 189.066L37.008 189.566ZM37.008 193.853L36.508 193.853L36.508 194.353L37.008 194.353L37.008 193.853ZM45.712 193.31L46.0454 193.682L46.0557 193.673L46.0655 193.663L45.712 193.31ZM45.648 189.693L45.4696 189.226L44.8422 189.466L45.2517 189.998L45.648 189.693ZM48.7659 188.647C49.0835 189.076 49.3372 189.624 49.5166 190.301L50.4833 190.046C50.2788 189.273 49.9778 188.604 49.5701 188.052L48.7659 188.647ZM49.5141 190.291C49.6746 190.953 49.756 191.66 49.756 192.413L50.756 192.413C50.756 191.588 50.6667 190.802 50.4859 190.056L49.5141 190.291ZM49.756 192.413C49.756 194.378 49.2558 195.831 48.3209 196.842L49.0551 197.521C50.2109 196.271 50.756 194.545 50.756 192.413L49.756 192.413ZM48.3241 196.839C47.4015 197.818 46.0163 198.345 44.08 198.345L44.08 199.345C46.197 199.345 47.8839 198.764 49.0519 197.524L48.3241 196.839ZM44.08 198.345L37.008 198.345L37.008 199.345L44.08 199.345L44.08 198.345ZM36.508 198.845L36.508 201.502L37.508 201.502L37.508 198.845L36.508 198.845ZM37.008 201.002L33.168 201.002L33.168 202.002L37.008 202.002L37.008 201.002ZM33.668 201.502L33.668 198.845L32.668 198.845L32.668 201.502L33.668 201.502ZM33.168 198.345L28.976 198.345L28.976 199.345L33.168 199.345L33.168 198.345ZM29.476 198.845L29.476 193.853L28.476 193.853L28.476 198.845L29.476 198.845ZM28.976 194.353L33.168 194.353L33.168 193.353L28.976 193.353L28.976 194.353ZM33.668 193.853L33.668 189.566L32.668 189.566L32.668 193.853L33.668 193.853ZM33.168 190.065L37.008 190.065L37.008 189.066L33.168 189.066L33.168 190.065ZM36.508 189.566L36.508 193.853L37.508 193.853L37.508 189.566L36.508 189.566ZM37.008 194.353L44.016 194.353L44.016 193.353L37.008 193.353L37.008 194.353ZM44.016 194.353C44.8226 194.353 45.5214 194.151 46.0454 193.682L45.3786 192.937C45.0919 193.193 44.66 193.353 44.016 193.353L44.016 194.353ZM46.0655 193.663C46.566 193.163 46.788 192.489 46.788 191.71L45.788 191.71C45.788 192.296 45.626 192.688 45.3584 192.956L46.0655 193.663ZM46.788 191.71C46.788 190.825 46.5467 190.042 46.0443 189.389L45.2517 189.998C45.6026 190.455 45.788 191.016 45.788 191.71L46.788 191.71ZM45.8263 190.161L49.3463 188.817L48.9896 187.882L45.4696 189.226L45.8263 190.161ZM64.648 301.168L65.0818 301.417L65.0864 301.408L64.648 301.168ZM67.752 298.064L67.9948 298.501L67.9978 298.499L67.752 298.064ZM77.064 298.064L77.3098 297.629L77.3068 297.627L77.064 298.064ZM80.168 301.168L80.6047 300.925L80.6034 300.922L80.168 301.168ZM79.176 310.704L78.8399 310.334L77.8812 311.204L79.176 311.204L79.176 310.704ZM87.208 310.704L87.708 310.704L87.708 310.204L87.208 310.204L87.208 310.704ZM87.208 315.696L87.208 316.196L87.708 316.196L87.708 315.696L87.208 315.696ZM63.784 315.696L63.284 315.696L63.284 316.196L63.784 316.196L63.784 315.696ZM63.784 310.928L63.784 310.428L63.284 310.428L63.284 310.928L63.784 310.928ZM65.768 310.928L65.768 311.428L67.1551 311.428L66.087 310.543L65.768 310.928ZM75.88 303.248L75.5354 303.61L75.5356 303.61L75.88 303.248ZM68.936 303.248L69.276 303.615L69.285 303.606L68.936 303.248ZM68.936 309.552L68.5914 309.914L68.5916 309.914L68.936 309.552ZM75.88 309.552L76.22 309.919L76.229 309.91L75.88 309.552ZM64.028 305.52C64.028 304.001 64.3814 302.637 65.0817 301.417L64.2143 300.919C63.4213 302.301 63.028 303.839 63.028 305.52L64.028 305.52ZM65.0864 301.408C65.7655 300.17 66.7316 299.203 67.9948 298.501L67.5092 297.627C66.0844 298.418 64.9812 299.521 64.2096 300.928L65.0864 301.408ZM67.9978 298.499C69.2339 297.802 70.6931 297.444 72.392 297.444L72.392 296.444C70.5496 296.444 68.9155 296.833 67.5062 297.629L67.9978 298.499ZM72.392 297.444C74.0907 297.444 75.5621 297.802 76.8212 298.501L77.3068 297.627C75.8779 296.833 74.2346 296.444 72.392 296.444L72.392 297.444ZM76.8182 298.499C78.0616 299.201 79.0307 300.17 79.7326 301.414L80.6034 300.922C79.812 299.52 78.7118 298.42 77.3098 297.629L76.8182 298.499ZM79.7313 301.411C80.4121 302.633 80.756 303.999 80.756 305.52L81.756 305.52C81.756 303.841 81.3746 302.306 80.6047 300.925L79.7313 301.411ZM80.756 305.52C80.756 307.603 80.1039 309.186 78.8399 310.334L79.5121 311.074C81.0214 309.704 81.756 307.832 81.756 305.52L80.756 305.52ZM79.176 311.204L87.208 311.204L87.208 310.204L79.176 310.204L79.176 311.204ZM86.708 310.704L86.708 315.696L87.708 315.696L87.708 310.704L86.708 310.704ZM87.208 315.196L63.784 315.196L63.784 316.196L87.208 316.196L87.208 315.196ZM64.284 315.696L64.284 310.928L63.284 310.928L63.284 315.696L64.284 315.696ZM63.784 311.428L65.768 311.428L65.768 310.428L63.784 310.428L63.784 311.428ZM66.087 310.543C64.7335 309.422 64.028 307.775 64.028 305.52L63.028 305.52C63.028 308.001 63.8158 309.96 65.449 311.313L66.087 310.543ZM77.66 306.384C77.66 304.98 77.1863 303.799 76.2244 302.885L75.5356 303.61C76.2803 304.318 76.66 305.228 76.66 306.384L77.66 306.384ZM76.2246 302.886C75.2388 301.948 73.9435 301.5 72.392 301.5L72.392 302.5C73.7419 302.5 74.7718 302.884 75.5354 303.61L76.2246 302.886ZM72.392 301.5C70.841 301.5 69.5532 301.948 68.5869 302.89L69.285 303.606C70.0255 302.884 71.0417 302.5 72.392 302.5L72.392 301.5ZM68.5961 302.881C67.6113 303.794 67.124 304.976 67.124 306.384L68.124 306.384C68.124 305.232 68.5114 304.323 69.2759 303.615L68.5961 302.881ZM67.124 306.384C67.124 307.792 67.611 308.982 68.5914 309.914L69.2806 309.19C68.5117 308.458 68.124 307.536 68.124 306.384L67.124 306.384ZM68.5916 309.914C69.5584 310.833 70.8445 311.268 72.392 311.268L72.392 310.268C71.0381 310.268 70.0203 309.892 69.2804 309.189L68.5916 309.914ZM72.392 311.268C73.94 311.268 75.2337 310.833 76.2199 309.919L75.5401 309.185C74.777 309.893 73.7454 310.268 72.392 310.268L72.392 311.268ZM76.229 309.91C77.1866 308.976 77.66 307.788 77.66 306.384L76.66 306.384C76.66 307.54 76.2801 308.464 75.5309 309.194L76.229 309.91ZM66.056 287.554L66.056 288.054L67.6098 288.054L66.3476 287.148L66.056 287.554ZM64.168 285.154L63.7064 285.347L63.7079 285.35L64.168 285.154ZM63.528 281.634L63.528 281.134L63.028 281.134L63.028 281.634L63.528 281.634ZM68.136 281.634L68.6345 281.673L68.6759 281.134L68.136 281.134L68.136 281.634ZM69.288 286.114L69.6463 285.765L69.6416 285.761L69.288 286.114ZM81 287.33L81.5 287.33L81.5 286.83L81 286.83L81 287.33ZM81 292.322L81 292.822L81.5 292.822L81.5 292.322L81 292.322ZM63.784 292.322L63.284 292.322L63.284 292.822L63.784 292.822L63.784 292.322ZM63.784 287.554L63.784 287.054L63.284 287.054L63.284 287.554L63.784 287.554ZM66.3476 287.148C65.5948 286.608 65.0213 285.883 64.6281 284.958L63.7079 285.35C64.168 286.431 64.8532 287.306 65.7644 287.96L66.3476 287.148ZM64.6295 284.962C64.2326 284.009 64.028 282.903 64.028 281.634L63.028 281.634C63.028 283.01 63.25 284.251 63.7065 285.347L64.6295 284.962ZM63.528 282.134L68.136 282.134L68.136 281.134L63.528 281.134L63.528 282.134ZM67.6375 281.596C67.595 282.148 67.572 282.54 67.572 282.754L68.572 282.754C68.572 282.584 68.5917 282.23 68.6345 281.673L67.6375 281.596ZM67.572 282.754C67.572 284.282 68.0081 285.541 68.9344 286.468L69.6416 285.761C68.9466 285.066 68.572 284.086 68.572 282.754L67.572 282.754ZM68.9298 286.463C69.8465 287.405 71.1938 287.83 72.872 287.83L72.872 286.83C71.3502 286.83 70.3081 286.445 69.6462 285.765L68.9298 286.463ZM72.872 287.83L81 287.83L81 286.83L72.872 286.83L72.872 287.83ZM80.5 287.33L80.5 292.322L81.5 292.322L81.5 287.33L80.5 287.33ZM81 291.822L63.784 291.822L63.784 292.822L81 292.822L81 291.822ZM64.284 292.322L64.284 287.554L63.284 287.554L63.284 292.322L64.284 292.322ZM63.784 288.054L66.056 288.054L66.056 287.054L63.784 287.054L63.784 288.054ZM80.136 274.246L80.5765 274.483L80.5806 274.475L80.136 274.246ZM76.968 277.606L77.2262 278.034L76.968 277.606ZM67.816 277.606L67.5577 278.034L67.816 277.606ZM64.68 274.246L65.1232 274.015L65.1219 274.012L64.68 274.246ZM64.68 264.486L65.1205 264.723L65.1232 264.718L64.68 264.486ZM67.816 261.126L67.5577 260.698L67.816 261.126ZM76.968 261.126L77.2262 260.698L76.968 261.126ZM80.136 264.486L80.5792 264.255L80.5764 264.25L80.136 264.486ZM75.88 266.214L75.5354 266.577L75.5356 266.577L75.88 266.214ZM68.936 266.214L69.276 266.581L69.285 266.572L68.936 266.214ZM68.936 272.518L69.2851 272.16L69.2806 272.156L68.936 272.518ZM75.88 272.518L76.2246 272.881L76.229 272.876L75.88 272.518ZM80.756 269.35C80.756 271.093 80.3978 272.645 79.6914 274.017L80.5806 274.475C81.3676 272.946 81.756 271.234 81.756 269.35L80.756 269.35ZM79.6956 274.01C78.9685 275.363 77.9743 276.415 76.7098 277.178L77.2262 278.034C78.6497 277.176 79.7675 275.988 80.5764 274.483L79.6956 274.01ZM76.7098 277.178C75.4504 277.938 74.0159 278.322 72.392 278.322L72.392 279.322C74.1815 279.322 75.7976 278.896 77.2262 278.034L76.7098 277.178ZM72.392 278.322C70.7681 278.322 69.3336 277.938 68.0742 277.178L67.5577 278.034C68.9864 278.896 70.6025 279.322 72.392 279.322L72.392 278.322ZM68.0742 277.178C66.811 276.416 65.8286 275.365 65.1232 274.015L64.2368 274.478C65.0247 275.986 66.133 277.175 67.5577 278.034L68.0742 277.178ZM65.1219 274.012C64.3959 272.641 64.028 271.091 64.028 269.35L63.028 269.35C63.028 271.236 63.4281 272.95 64.2381 274.48L65.1219 274.012ZM64.028 269.35C64.028 267.61 64.396 266.071 65.1204 264.723L64.2395 264.25C63.428 265.76 63.028 267.464 63.028 269.35L64.028 269.35ZM65.1232 264.718C65.8286 263.367 66.811 262.316 68.0742 261.554L67.5577 260.698C66.133 261.557 65.0247 262.746 64.2368 264.255L65.1232 264.718ZM68.0742 261.554C69.3336 260.795 70.7681 260.41 72.392 260.41L72.392 259.41C70.6025 259.41 68.9864 259.836 67.5577 260.698L68.0742 261.554ZM72.392 260.41C74.0159 260.41 75.4504 260.795 76.7098 261.554L77.2262 260.698C75.7976 259.836 74.1815 259.41 72.392 259.41L72.392 260.41ZM76.7098 261.554C77.9743 262.317 78.9685 263.37 79.6956 264.723L80.5764 264.25C79.7675 262.744 78.6497 261.557 77.2262 260.698L76.7098 261.554ZM79.6928 264.718C80.3977 266.067 80.756 267.607 80.756 269.35L81.756 269.35C81.756 267.466 81.3676 265.764 80.5792 264.255L79.6928 264.718ZM77.66 269.35C77.66 267.947 77.1863 266.766 76.2244 265.852L75.5356 266.577C76.2803 267.284 76.66 268.194 76.66 269.35L77.66 269.35ZM76.2246 265.852C75.2388 264.914 73.9435 264.466 72.392 264.466L72.392 265.466C73.7419 265.466 74.7718 265.85 75.5354 266.577L76.2246 265.852ZM72.392 264.466C70.841 264.466 69.5532 264.914 68.5869 265.856L69.285 266.572C70.0255 265.85 71.0417 265.466 72.392 265.466L72.392 264.466ZM68.5961 265.848C67.6113 266.76 67.124 267.942 67.124 269.35L68.124 269.35C68.124 268.198 68.5114 267.29 69.2759 266.581L68.5961 265.848ZM67.124 269.35C67.124 270.758 67.611 271.948 68.5914 272.881L69.2806 272.156C68.5117 271.425 68.124 270.503 68.124 269.35L67.124 269.35ZM68.5869 272.876C69.5532 273.818 70.841 274.266 72.392 274.266L72.392 273.266C71.0417 273.266 70.0255 272.882 69.285 272.16L68.5869 272.876ZM72.392 274.266C73.9435 274.266 75.2388 273.818 76.2246 272.881L75.5354 272.156C74.7718 272.882 73.7419 273.266 72.392 273.266L72.392 274.266ZM76.229 272.876C77.1866 271.943 77.66 270.754 77.66 269.35L76.66 269.35C76.66 270.507 76.2801 271.43 75.5309 272.16L76.229 272.876ZM64.648 240.766L65.0818 241.014L65.0864 241.006L64.648 240.766ZM67.752 237.661L67.9948 238.099L67.9978 238.097L67.752 237.661ZM77.064 237.661L77.3098 237.226L77.3068 237.224L77.064 237.661ZM80.168 240.766L80.6047 240.522L80.6034 240.52L80.168 240.766ZM79.176 250.301L78.8399 249.931L77.8812 250.801L79.176 250.801L79.176 250.301ZM87.208 250.301L87.708 250.301L87.708 249.801L87.208 249.801L87.208 250.301ZM87.208 255.293L87.208 255.793L87.708 255.793L87.708 255.293L87.208 255.293ZM63.784 255.293L63.284 255.293L63.284 255.793L63.784 255.793L63.784 255.293ZM63.784 250.525L63.784 250.025L63.284 250.025L63.284 250.525L63.784 250.525ZM65.768 250.525L65.768 251.025L67.1551 251.025L66.087 250.14L65.768 250.525ZM75.88 242.845L75.5354 243.208L75.5356 243.208L75.88 242.845ZM68.936 242.845L69.276 243.212L69.285 243.203L68.936 242.845ZM68.936 249.149L68.5914 249.512L68.5916 249.512L68.936 249.149ZM75.88 249.149L76.22 249.516L76.229 249.507L75.88 249.149ZM64.028 245.117C64.028 243.599 64.3814 242.235 65.0817 241.014L64.2143 240.517C63.4213 241.899 63.028 243.436 63.028 245.117L64.028 245.117ZM65.0864 241.006C65.7655 239.768 66.7316 238.8 67.9948 238.099L67.5092 237.224C66.0844 238.016 64.9812 239.118 64.2096 240.525L65.0864 241.006ZM67.9978 238.097C69.2338 237.399 70.6931 237.041 72.392 237.041L72.392 236.041C70.5496 236.041 68.9155 236.431 67.5062 237.226L67.9978 238.097ZM72.392 237.041C74.0907 237.041 75.5621 237.399 76.8212 238.099L77.3068 237.224C75.8779 236.431 74.2346 236.041 72.392 236.041L72.392 237.041ZM76.8182 238.097C78.0616 238.799 79.0307 239.768 79.7326 241.011L80.6034 240.52C79.812 239.118 78.7118 238.018 77.3098 237.226L76.8182 238.097ZM79.7313 241.009C80.4121 242.23 80.756 243.596 80.756 245.117L81.756 245.117C81.756 243.439 81.3746 241.903 80.6047 240.522L79.7313 241.009ZM80.756 245.117C80.756 247.201 80.1039 248.784 78.8399 249.931L79.5121 250.672C81.0214 249.302 81.756 247.429 81.756 245.117L80.756 245.117ZM79.176 250.801L87.208 250.801L87.208 249.801L79.176 249.801L79.176 250.801ZM86.708 250.301L86.708 255.293L87.708 255.293L87.708 250.301L86.708 250.301ZM87.208 254.793L63.784 254.793L63.784 255.793L87.208 255.793L87.208 254.793ZM64.284 255.293L64.284 250.525L63.284 250.525L63.284 255.293L64.284 255.293ZM63.784 251.025L65.768 251.025L65.768 250.025L63.784 250.025L63.784 251.025ZM66.087 250.14C64.7335 249.019 64.028 247.373 64.028 245.117L63.028 245.117C63.028 247.598 63.8158 249.557 65.449 250.911L66.087 250.14ZM77.66 245.981C77.66 244.578 77.1863 243.397 76.2244 242.483L75.5356 243.208C76.2803 243.915 76.66 244.825 76.66 245.981L77.66 245.981ZM76.2246 242.483C75.2388 241.546 73.9435 241.098 72.392 241.098L72.392 242.098C73.7419 242.098 74.7718 242.481 75.5354 243.208L76.2246 242.483ZM72.392 241.098C70.841 241.098 69.5532 241.545 68.5869 242.487L69.285 243.203C70.0255 242.482 71.0417 242.098 72.392 242.098L72.392 241.098ZM68.5961 242.479C67.6113 243.392 67.124 244.574 67.124 245.981L68.124 245.981C68.124 244.829 68.5114 243.921 69.2759 243.212L68.5961 242.479ZM67.124 245.981C67.124 247.389 67.611 248.579 68.5914 249.512L69.2806 248.787C68.5117 248.056 68.124 247.134 68.124 245.981L67.124 245.981ZM68.5916 249.512C69.5584 250.43 70.8445 250.865 72.392 250.865L72.392 249.865C71.0381 249.865 70.0203 249.49 69.2804 248.787L68.5916 249.512ZM72.392 250.865C73.94 250.865 75.2337 250.43 76.2199 249.516L75.5401 248.783C74.777 249.49 73.7454 249.865 72.392 249.865L72.392 250.865ZM76.229 249.507C77.1866 248.574 77.66 247.385 77.66 245.981L76.66 245.981C76.66 247.138 76.2801 248.061 75.5309 248.791L76.229 249.507ZM80.136 228.624L80.5765 228.86L80.5806 228.853L80.136 228.624ZM76.968 231.984L77.2262 232.412L76.968 231.984ZM67.816 231.984L67.5577 232.412L67.816 231.984ZM64.68 228.624L65.1232 228.392L65.1219 228.39L64.68 228.624ZM64.68 218.864L65.1205 219.1L65.1232 219.095L64.68 218.864ZM67.816 215.504L67.5577 215.076L67.816 215.504ZM76.968 215.504L77.2262 215.076L76.968 215.504ZM80.136 218.864L80.5792 218.632L80.5764 218.627L80.136 218.864ZM75.88 220.592L75.5354 220.954L75.5356 220.954L75.88 220.592ZM68.936 220.592L69.276 220.959L69.285 220.95L68.936 220.592ZM68.936 226.896L69.2851 226.538L69.2806 226.533L68.936 226.896ZM75.88 226.896L76.2246 227.258L76.229 227.254L75.88 226.896ZM80.756 223.728C80.756 225.47 80.3978 227.023 79.6914 228.395L80.5806 228.853C81.3676 227.324 81.756 225.612 81.756 223.728L80.756 223.728ZM79.6955 228.387C78.9685 229.74 77.9743 230.793 76.7098 231.556L77.2262 232.412C78.6497 231.553 79.7675 230.366 80.5764 228.86L79.6955 228.387ZM76.7098 231.556C75.4504 232.315 74.0159 232.7 72.392 232.7L72.392 233.7C74.1815 233.7 75.7976 233.274 77.2262 232.412L76.7098 231.556ZM72.392 232.7C70.7681 232.7 69.3335 232.315 68.0742 231.556L67.5577 232.412C68.9864 233.274 70.6025 233.7 72.392 233.7L72.392 232.7ZM68.0742 231.556C66.811 230.794 65.8286 229.743 65.1232 228.392L64.2368 228.855C65.0247 230.364 66.133 231.553 67.5577 232.412L68.0742 231.556ZM65.1219 228.39C64.3959 227.019 64.028 225.468 64.028 223.728L63.028 223.728C63.028 225.614 63.4281 227.328 64.2381 228.858L65.1219 228.39ZM64.028 223.728C64.028 221.987 64.396 220.449 65.1204 219.1L64.2395 218.627C63.428 220.137 63.028 221.842 63.028 223.728L64.028 223.728ZM65.1232 219.095C65.8286 217.745 66.811 216.694 68.0742 215.932L67.5577 215.076C66.133 215.935 65.0247 217.124 64.2368 218.632L65.1232 219.095ZM68.0742 215.932C69.3335 215.172 70.7681 214.788 72.392 214.788L72.392 213.788C70.6025 213.788 68.9864 214.214 67.5577 215.076L68.0742 215.932ZM72.392 214.788C74.0159 214.788 75.4504 215.172 76.7098 215.932L77.2262 215.076C75.7975 214.214 74.1815 213.788 72.392 213.788L72.392 214.788ZM76.7098 215.932C77.9743 216.695 78.9685 217.747 79.6955 219.1L80.5764 218.627C79.7675 217.122 78.6497 215.934 77.2262 215.076L76.7098 215.932ZM79.6928 219.095C80.3977 220.445 80.756 221.985 80.756 223.728L81.756 223.728C81.756 221.844 81.3676 220.142 80.5792 218.632L79.6928 219.095ZM77.66 223.728C77.66 222.324 77.1863 221.143 76.2244 220.229L75.5356 220.954C76.2803 221.662 76.66 222.571 76.66 223.728L77.66 223.728ZM76.2246 220.229C75.2388 219.292 73.9435 218.844 72.392 218.844L72.392 219.844C73.7419 219.844 74.7718 220.228 75.5354 220.954L76.2246 220.229ZM72.392 218.844C70.841 218.844 69.5532 219.292 68.5869 220.234L69.285 220.95C70.0255 220.228 71.0417 219.844 72.392 219.844L72.392 218.844ZM68.5961 220.225C67.6113 221.138 67.124 222.32 67.124 223.728L68.124 223.728C68.124 222.576 68.5114 221.667 69.2759 220.958L68.5961 220.225ZM67.124 223.728C67.124 225.135 67.611 226.325 68.5914 227.258L69.2806 226.533C68.5117 225.802 68.124 224.88 68.124 223.728L67.124 223.728ZM68.5869 227.254C69.5532 228.196 70.841 228.644 72.392 228.644L72.392 227.644C71.0417 227.644 70.0255 227.26 69.285 226.538L68.5869 227.254ZM72.392 228.644C73.9435 228.644 75.2388 228.196 76.2246 227.258L75.5354 226.533C74.7718 227.26 73.7419 227.644 72.392 227.644L72.392 228.644ZM76.229 227.254C77.1865 226.32 77.66 225.131 77.66 223.728L76.66 223.728C76.66 224.884 76.2801 225.807 75.5309 226.538L76.229 227.254ZM66.056 204.903L66.056 205.403L67.6098 205.403L66.3476 204.497L66.056 204.903ZM64.168 202.503L63.7064 202.695L63.7079 202.699L64.168 202.503ZM63.528 198.983L63.528 198.483L63.028 198.483L63.028 198.983L63.528 198.983ZM68.136 198.983L68.6345 199.021L68.6759 198.483L68.136 198.483L68.136 198.983ZM69.288 203.463L69.6463 203.114L69.6415 203.109L69.288 203.463ZM81 204.679L81.5 204.679L81.5 204.179L81 204.179L81 204.679ZM81 209.671L81 210.171L81.5 210.171L81.5 209.671L81 209.671ZM63.784 209.671L63.284 209.671L63.284 210.171L63.784 210.171L63.784 209.671ZM63.784 204.903L63.784 204.403L63.284 204.403L63.284 204.903L63.784 204.903ZM66.3476 204.497C65.5948 203.956 65.0213 203.231 64.6281 202.307L63.7079 202.699C64.168 203.78 64.8532 204.655 65.7644 205.309L66.3476 204.497ZM64.6295 202.311C64.2326 201.358 64.028 200.252 64.028 198.983L63.028 198.983C63.028 200.359 63.25 201.6 63.7065 202.695L64.6295 202.311ZM63.528 199.483L68.136 199.483L68.136 198.483L63.528 198.483L63.528 199.483ZM67.6375 198.945C67.595 199.497 67.572 199.889 67.572 200.103L68.572 200.103C68.572 199.933 68.5916 199.579 68.6345 199.021L67.6375 198.945ZM67.572 200.103C67.572 201.63 68.0081 202.89 68.9344 203.817L69.6415 203.109C68.9466 202.414 68.572 201.434 68.572 200.103L67.572 200.103ZM68.9298 203.812C69.8465 204.753 71.1938 205.179 72.872 205.179L72.872 204.179C71.3502 204.179 70.3081 203.794 69.6462 203.114L68.9298 203.812ZM72.872 205.179L81 205.179L81 204.179L72.872 204.179L72.872 205.179ZM80.5 204.679L80.5 209.671L81.5 209.671L81.5 204.679L80.5 204.679ZM81 209.171L63.784 209.171L63.784 210.171L81 210.171L81 209.171ZM64.284 209.671L64.284 204.903L63.284 204.903L63.284 209.671L64.284 209.671ZM63.784 205.403L66.056 205.403L66.056 204.403L63.784 204.403L63.784 205.403ZM80.168 183.037L80.5701 182.74L80.3444 182.434L79.9896 182.57L80.168 183.037ZM81 184.861L81.486 184.743L81.4833 184.733L81 184.861ZM79.688 191.869L80.0519 192.212L80.0551 192.208L79.688 191.869ZM68.008 193.533L68.008 193.033L67.508 193.033L67.508 193.533L68.008 193.533ZM68.008 196.189L68.008 196.689L68.508 196.689L68.508 196.189L68.008 196.189ZM64.168 196.189L63.668 196.189L63.668 196.689L64.168 196.689L64.168 196.189ZM64.168 193.533L64.668 193.533L64.668 193.033L64.168 193.033L64.168 193.533ZM59.976 193.533L59.476 193.533L59.476 194.033L59.976 194.033L59.976 193.533ZM59.976 188.541L59.976 188.041L59.476 188.041L59.476 188.541L59.976 188.541ZM64.168 188.541L64.168 189.041L64.668 189.041L64.668 188.541L64.168 188.541ZM64.168 184.253L64.168 183.753L63.668 183.753L63.668 184.253L64.168 184.253ZM68.008 184.253L68.508 184.253L68.508 183.753L68.008 183.753L68.008 184.253ZM68.008 188.541L67.508 188.541L67.508 189.041L68.008 189.041L68.008 188.541ZM76.712 187.997L77.0454 188.37L77.0557 188.36L77.0655 188.351L76.712 187.997ZM76.648 184.381L76.4696 183.914L75.8422 184.153L76.2517 184.686L76.648 184.381ZM79.7659 183.334C80.0835 183.764 80.3372 184.311 80.5166 184.989L81.4833 184.733C81.2788 183.96 80.9778 183.291 80.5701 182.74L79.7659 183.334ZM80.5141 184.979C80.6746 185.641 80.756 186.348 80.756 187.101L81.756 187.101C81.756 186.275 81.6667 185.489 81.4859 184.743L80.5141 184.979ZM80.756 187.101C80.756 189.066 80.2558 190.518 79.3209 191.53L80.0551 192.208C81.2109 190.958 81.756 189.232 81.756 187.101L80.756 187.101ZM79.3241 191.526C78.4015 192.505 77.0163 193.033 75.08 193.033L75.08 194.033C77.197 194.033 78.8839 193.451 80.0519 192.212L79.3241 191.526ZM75.08 193.033L68.008 193.033L68.008 194.033L75.08 194.033L75.08 193.033ZM67.508 193.533L67.508 196.189L68.508 196.189L68.508 193.533L67.508 193.533ZM68.008 195.689L64.168 195.689L64.168 196.689L68.008 196.689L68.008 195.689ZM64.668 196.189L64.668 193.533L63.668 193.533L63.668 196.189L64.668 196.189ZM64.168 193.033L59.976 193.033L59.976 194.033L64.168 194.033L64.168 193.033ZM60.476 193.533L60.476 188.541L59.476 188.541L59.476 193.533L60.476 193.533ZM59.976 189.041L64.168 189.041L64.168 188.041L59.976 188.041L59.976 189.041ZM64.668 188.541L64.668 184.253L63.668 184.253L63.668 188.541L64.668 188.541ZM64.168 184.753L68.008 184.753L68.008 183.753L64.168 183.753L64.168 184.753ZM67.508 184.253L67.508 188.541L68.508 188.541L68.508 184.253L67.508 184.253ZM68.008 189.041L75.016 189.041L75.016 188.041L68.008 188.041L68.008 189.041ZM75.016 189.041C75.8226 189.041 76.5214 188.838 77.0454 188.37L76.3786 187.624C76.0919 187.881 75.66 188.041 75.016 188.041L75.016 189.041ZM77.0655 188.351C77.566 187.85 77.788 187.176 77.788 186.397L76.788 186.397C76.788 186.983 76.626 187.376 76.3584 187.643L77.0655 188.351ZM77.788 186.397C77.788 185.512 77.5467 184.729 77.0443 184.076L76.2517 184.686C76.6026 185.142 76.788 185.703 76.788 186.397L77.788 186.397ZM76.8263 184.848L80.3463 183.504L79.9896 182.57L76.4696 183.914L76.8263 184.848ZM63.784 178.955L63.284 178.955L63.284 179.455L63.784 179.455L63.784 178.955ZM63.784 173.963L63.784 173.463L63.284 173.463L63.284 173.963L63.784 173.963ZM81 173.963L81.5 173.963L81.5 173.463L81 173.463L81 173.963ZM81 178.955L81 179.455L81.5 179.455L81.5 178.955L81 178.955ZM60.584 178.699L60.9509 179.038L60.9509 179.038L60.584 178.699ZM56.616 178.699L56.9829 178.359L56.616 178.699ZM56.584 174.219L56.9577 174.551L56.584 174.219ZM60.584 174.219L60.9509 173.879L60.9442 173.872L60.584 174.219ZM64.284 178.955L64.284 173.963L63.284 173.963L63.284 178.955L64.284 178.955ZM63.784 174.463L81 174.463L81 173.463L63.784 173.463L63.784 174.463ZM80.5 173.963L80.5 178.955L81.5 178.955L81.5 173.963L80.5 173.963ZM81 178.455L63.784 178.455L63.784 179.455L81 179.455L81 178.455ZM60.884 176.459C60.884 177.273 60.6506 177.891 60.2171 178.359L60.9509 179.038C61.584 178.355 61.884 177.479 61.884 176.459L60.884 176.459ZM60.2171 178.359C59.779 178.832 59.2509 179.063 58.6 179.063L58.6 180.063C59.5277 180.063 60.3223 179.717 60.9509 179.038L60.2171 178.359ZM58.6 179.063C57.9491 179.063 57.421 178.832 56.9829 178.359L56.2491 179.038C56.8777 179.717 57.6723 180.063 58.6 180.063L58.6 179.063ZM56.9829 178.359C56.5494 177.891 56.316 177.273 56.316 176.459L55.316 176.459C55.316 177.479 55.616 178.355 56.2491 179.038L56.9829 178.359ZM56.316 176.459C56.316 175.639 56.542 175.019 56.9577 174.551L56.2103 173.887C55.602 174.571 55.316 175.444 55.316 176.459L56.316 176.459ZM56.9577 174.551C57.3752 174.081 57.8794 173.855 58.504 173.855L58.504 172.855C57.5926 172.855 56.8168 173.204 56.2103 173.887L56.9577 174.551ZM58.504 173.855C59.2063 173.855 59.7676 174.092 60.2238 174.566L60.9442 173.872C60.291 173.194 59.4657 172.855 58.504 172.855L58.504 173.855ZM60.2171 174.558C60.6506 175.027 60.884 175.645 60.884 176.459L61.884 176.459C61.884 175.438 61.584 174.563 60.9509 173.879L60.2171 174.558ZM80.136 164.754L80.5765 164.99L80.5806 164.983L80.136 164.754ZM76.968 168.114L77.2262 168.542L76.968 168.114ZM67.816 168.114L67.5577 168.542L67.816 168.114ZM64.68 164.754L65.1232 164.522L65.1219 164.52L64.68 164.754ZM64.68 154.994L65.1205 155.23L65.1232 155.225L64.68 154.994ZM67.816 151.634L67.5577 151.206L67.816 151.634ZM76.968 151.634L77.2262 151.206L76.968 151.634ZM80.136 154.994L80.5792 154.762L80.5764 154.757L80.136 154.994ZM75.88 156.722L75.5354 157.084L75.5356 157.084L75.88 156.722ZM68.936 156.722L69.276 157.089L69.285 157.08L68.936 156.722ZM68.936 163.026L69.2851 162.668L69.2806 162.663L68.936 163.026ZM75.88 163.026L76.2246 163.388L76.229 163.384L75.88 163.026ZM80.756 159.858C80.756 161.6 80.3978 163.153 79.6914 164.525L80.5806 164.983C81.3676 163.454 81.756 161.742 81.756 159.858L80.756 159.858ZM79.6955 164.517C78.9685 165.87 77.9743 166.923 76.7097 167.686L77.2262 168.542C78.6497 167.683 79.7675 166.496 80.5764 164.99L79.6955 164.517ZM76.7097 167.686C75.4504 168.445 74.0159 168.83 72.392 168.83L72.392 169.83C74.1815 169.83 75.7975 169.404 77.2262 168.542L76.7097 167.686ZM72.392 168.83C70.7681 168.83 69.3335 168.445 68.0742 167.686L67.5577 168.542C68.9864 169.404 70.6025 169.83 72.392 169.83L72.392 168.83ZM68.0742 167.686C66.811 166.924 65.8286 165.873 65.1232 164.522L64.2368 164.985C65.0247 166.493 66.133 167.683 67.5577 168.542L68.0742 167.686ZM65.1219 164.52C64.3959 163.149 64.028 161.598 64.028 159.858L63.028 159.858C63.028 161.744 63.4281 163.458 64.2381 164.988L65.1219 164.52ZM64.028 159.858C64.028 158.117 64.396 156.579 65.1204 155.23L64.2395 154.757C63.428 156.267 63.028 157.972 63.028 159.858L64.028 159.858ZM65.1232 155.225C65.8286 153.875 66.811 152.824 68.0742 152.062L67.5577 151.206C66.133 152.065 65.0247 153.254 64.2368 154.762L65.1232 155.225ZM68.0742 152.062C69.3335 151.302 70.7681 150.918 72.392 150.918L72.392 149.918C70.6025 149.918 68.9864 150.344 67.5577 151.206L68.0742 152.062ZM72.392 150.918C74.0159 150.918 75.4504 151.302 76.7097 152.062L77.2262 151.206C75.7975 150.344 74.1815 149.918 72.392 149.918L72.392 150.918ZM76.7097 152.062C77.9743 152.825 78.9685 153.877 79.6955 155.23L80.5764 154.757C79.7675 153.252 78.6497 152.064 77.2262 151.206L76.7097 152.062ZM79.6928 155.225C80.3977 156.575 80.756 158.115 80.756 159.858L81.756 159.858C81.756 157.974 81.3676 156.272 80.5792 154.762L79.6928 155.225ZM77.66 159.858C77.66 158.454 77.1863 157.273 76.2244 156.359L75.5356 157.084C76.2803 157.792 76.66 158.701 76.66 159.858L77.66 159.858ZM76.2246 156.359C75.2388 155.422 73.9435 154.974 72.392 154.974L72.392 155.974C73.7418 155.974 74.7718 156.358 75.5354 157.084L76.2246 156.359ZM72.392 154.974C70.841 154.974 69.5532 155.422 68.5869 156.364L69.285 157.08C70.0255 156.358 71.0417 155.974 72.392 155.974L72.392 154.974ZM68.5961 156.355C67.6113 157.268 67.124 158.45 67.124 159.858L68.124 159.858C68.124 158.706 68.5114 157.797 69.2759 157.088L68.5961 156.355ZM67.124 159.858C67.124 161.265 67.611 162.455 68.5914 163.388L69.2806 162.663C68.5117 161.932 68.124 161.01 68.124 159.858L67.124 159.858ZM68.5869 163.384C69.5532 164.326 70.841 164.774 72.392 164.774L72.392 163.774C71.0417 163.774 70.0255 163.39 69.285 162.668L68.5869 163.384ZM72.392 164.774C73.9435 164.774 75.2388 164.326 76.2246 163.388L75.5354 162.663C74.7718 163.39 73.7418 163.774 72.392 163.774L72.392 164.774ZM76.229 163.384C77.1865 162.45 77.66 161.261 77.66 159.858L76.66 159.858C76.66 161.014 76.2801 161.937 75.5309 162.668L76.229 163.384ZM65.448 130.185L65.8045 130.536L65.8073 130.533L65.448 130.185ZM81 128.201L81.5 128.201L81.5 127.701L81 127.701L81 128.201ZM81 133.193L81 133.693L81.5 133.693L81.5 133.193L81 133.193ZM68.872 134.089L69.2013 134.465L69.2071 134.46L68.872 134.089ZM69.032 139.689L69.3806 139.33L69.3756 139.326L69.032 139.689ZM81 140.809L81.5 140.809L81.5 140.309L81 140.309L81 140.809ZM81 145.801L81 146.301L81.5 146.301L81.5 145.801L81 145.801ZM63.784 145.801L63.284 145.801L63.284 146.301L63.784 146.301L63.784 145.801ZM63.784 141.033L63.784 140.533L63.284 140.533L63.284 141.033L63.784 141.033ZM65.8 141.033L65.8 141.533L67.0905 141.533L66.1369 140.664L65.8 141.033ZM64.136 138.569L64.6017 138.387L64.5981 138.378L64.136 138.569ZM64.028 135.337C64.028 133.311 64.6319 131.728 65.8045 130.536L65.0915 129.834C63.7041 131.245 63.028 133.096 63.028 135.337L64.028 135.337ZM65.8073 130.533C66.9626 129.339 68.7109 128.701 71.144 128.701L71.144 127.701C68.5424 127.701 66.4934 128.386 65.0887 129.837L65.8073 130.533ZM71.144 128.701L81 128.701L81 127.701L71.144 127.701L71.144 128.701ZM80.5 128.201L80.5 133.193L81.5 133.193L81.5 128.201L80.5 128.201ZM81 132.693L71.912 132.693L71.912 133.693L81 133.693L81 132.693ZM71.912 132.693C70.4864 132.693 69.3283 133.003 68.5368 133.718L69.2071 134.46C69.7383 133.98 70.6069 133.693 71.912 133.693L71.912 132.693ZM68.5427 133.713C67.7257 134.428 67.348 135.445 67.348 136.681L68.348 136.681C68.348 135.656 68.653 134.945 69.2012 134.465L68.5427 133.713ZM67.348 136.681C67.348 138.053 67.7832 139.196 68.6884 140.052L69.3756 139.326C68.7021 138.689 68.348 137.826 68.348 136.681L67.348 136.681ZM68.6835 140.047C69.5787 140.918 70.8784 141.309 72.488 141.309L72.488 140.309C71.0256 140.309 70.0213 139.953 69.3805 139.331L68.6835 140.047ZM72.488 141.309L81 141.309L81 140.309L72.488 140.309L72.488 141.309ZM80.5 140.809L80.5 145.801L81.5 145.801L81.5 140.809L80.5 140.809ZM81 145.301L63.784 145.301L63.784 146.301L81 146.301L81 145.301ZM64.284 145.801L64.284 141.033L63.284 141.033L63.284 145.801L64.284 145.801ZM63.784 141.533L65.8 141.533L65.8 140.533L63.784 140.533L63.784 141.533ZM66.1369 140.664C65.4724 140.058 64.9597 139.302 64.6016 138.387L63.6704 138.751C64.0802 139.799 64.6769 140.686 65.4631 141.402L66.1369 140.664ZM64.5981 138.378C64.2203 137.463 64.028 136.452 64.028 135.337L63.028 135.337C63.028 136.569 63.241 137.712 63.6739 138.76L64.5981 138.378ZM80.744 120.796L81.2273 120.924L81.2291 120.917L80.744 120.796ZM79.4 124.06L79.1894 124.514L79.5806 124.695L79.8177 124.335L79.4 124.06ZM75.816 122.396L75.3946 122.127L75.0868 122.609L75.6054 122.85L75.816 122.396ZM77.032 119.612L77.5118 119.753L77.5142 119.744L77.032 119.612ZM74.856 114.108L75.3249 114.282L74.856 114.108ZM74.312 116.764L74.8065 116.839L74.8081 116.826L74.312 116.764ZM73.576 120.252L73.0974 120.107L73.576 120.252ZM72.104 122.652L72.4464 123.016L72.4521 123.011L72.104 122.652ZM66.216 122.716L65.916 123.116L65.9176 123.117L66.216 122.716ZM64.232 119.964L63.7655 120.144L63.7666 120.147L64.232 119.964ZM63.944 112.06L64.4311 112.173L64.4333 112.163L63.944 112.06ZM65.032 109.052L65.2441 108.599L64.8338 108.407L64.6022 108.796L65.032 109.052ZM68.584 110.716L69.0196 110.961L69.2842 110.492L68.7961 110.263L68.584 110.716ZM67.752 118.076L67.3157 118.32L67.752 118.076ZM70.024 118.012L69.5551 117.838L70.024 118.012ZM70.632 115.26L70.1387 115.178L70.1377 115.185L70.632 115.26ZM71.4 111.804L71.8777 111.952L71.8808 111.941L71.4 111.804ZM72.84 109.468L73.1823 109.832L72.84 109.468ZM78.632 109.436L78.9368 109.04L78.632 109.436ZM80.584 112.252L81.0532 112.079L81.0515 112.075L80.584 112.252ZM80.756 116.604C80.756 117.993 80.5902 119.35 80.2589 120.675L81.2291 120.917C81.5805 119.512 81.756 118.074 81.756 116.604L80.756 116.604ZM80.2607 120.668C79.9062 122.002 79.4759 123.035 78.9823 123.785L79.8177 124.335C80.3908 123.464 80.8565 122.32 81.2272 120.924L80.2607 120.668ZM79.6105 123.606L76.0265 121.942L75.6054 122.85L79.1894 124.514L79.6105 123.606ZM76.2373 122.665C76.7587 121.849 77.1815 120.876 77.5117 119.753L76.5523 119.471C76.2425 120.524 75.8546 121.407 75.3946 122.127L76.2373 122.665ZM77.5142 119.744C77.8237 118.617 77.98 117.505 77.98 116.412L76.98 116.412C76.98 117.409 76.8376 118.431 76.5498 119.48L77.5142 119.744ZM77.98 116.412C77.98 115.331 77.8488 114.446 77.5361 113.814C77.3763 113.491 77.1611 113.218 76.8773 113.027C76.5901 112.834 76.2619 112.744 75.912 112.744L75.912 113.744C76.0848 113.744 76.2139 113.786 76.3187 113.857C76.4269 113.93 76.5384 114.053 76.6399 114.258C76.8498 114.682 76.98 115.381 76.98 116.412L77.98 116.412ZM75.912 112.744C75.561 112.744 75.236 112.85 74.9634 113.073C74.6985 113.29 74.5142 113.591 74.3871 113.934L75.3249 114.282C75.4111 114.049 75.5095 113.918 75.5966 113.847C75.676 113.782 75.7723 113.744 75.912 113.744L75.912 112.744ZM74.3871 113.934C74.1531 114.566 73.9663 115.498 73.8159 116.702L74.8081 116.826C74.9563 115.64 75.1322 114.802 75.3249 114.282L74.3871 113.934ZM73.8176 116.689C73.6063 118.084 73.3654 119.221 73.0974 120.107L74.0546 120.397C74.3413 119.448 74.591 118.26 74.8063 116.839L73.8176 116.689ZM73.0974 120.107C72.8452 120.941 72.4004 121.668 71.7559 122.293L72.4521 123.011C73.2156 122.271 73.7521 121.397 74.0546 120.397L73.0974 120.107ZM71.7617 122.288C71.1787 122.835 70.3152 123.144 69.096 123.144L69.096 124.144C70.4795 124.144 71.6213 123.791 72.4463 123.016L71.7617 122.288ZM69.096 123.144C68.1098 123.144 67.2557 122.866 66.5143 122.315L65.9176 123.117C66.8403 123.803 67.9062 124.144 69.096 124.144L69.096 123.144ZM66.516 122.316C65.7507 121.742 65.1397 120.907 64.6974 119.781L63.7666 120.147C64.2629 121.41 64.9746 122.41 65.916 123.116L66.516 122.316ZM64.6985 119.784C64.2562 118.638 64.028 117.272 64.028 115.676L63.028 115.676C63.028 117.365 63.2691 118.858 63.7655 120.144L64.6985 119.784ZM64.028 115.676C64.028 114.498 64.1622 113.331 64.431 112.173L63.4569 111.947C63.1711 113.178 63.028 114.422 63.028 115.676L64.028 115.676ZM64.4333 112.163C64.6817 110.983 65.0285 110.036 65.4618 109.308L64.6022 108.796C64.0968 109.646 63.7183 110.705 63.4547 111.957L64.4333 112.163ZM64.8199 109.505L68.3719 111.169L68.7961 110.263L65.2441 108.599L64.8199 109.505ZM68.1484 110.471C67.2515 112.063 66.804 113.801 66.804 115.676L67.804 115.676C67.804 113.967 68.2098 112.399 69.0196 110.961L68.1484 110.471ZM66.804 115.676C66.804 116.773 66.9547 117.676 67.3157 118.32L68.1882 117.832C67.9519 117.41 67.804 116.712 67.804 115.676L66.804 115.676ZM67.3157 118.32C67.672 118.956 68.1983 119.376 68.904 119.376L68.904 118.376C68.6711 118.376 68.4294 118.262 68.1882 117.832L67.3157 118.32ZM68.904 119.376C69.2659 119.376 69.6039 119.276 69.8894 119.056C70.1697 118.84 70.3633 118.535 70.4929 118.186L69.5551 117.838C69.4713 118.065 69.3717 118.192 69.2786 118.264C69.1908 118.332 69.0754 118.376 68.904 118.376L68.904 119.376ZM70.4929 118.186C70.7248 117.559 70.9334 116.6 71.1263 115.335L70.1377 115.185C69.9466 116.437 69.7498 117.313 69.5551 117.838L70.4929 118.186ZM71.1252 115.342C71.3578 113.946 71.6094 112.818 71.8776 111.952L70.9223 111.656C70.6359 112.582 70.3755 113.758 70.1388 115.178L71.1252 115.342ZM71.8808 111.941C72.111 111.135 72.5416 110.434 73.1823 109.832L72.4977 109.104C71.7304 109.824 71.201 110.681 70.9192 111.667L71.8808 111.941ZM73.1823 109.832C73.7682 109.282 74.6128 108.976 75.784 108.976L75.784 107.976C74.4379 107.976 73.3198 108.331 72.4977 109.104L73.1823 109.832ZM75.784 108.976C76.7423 108.976 77.5841 109.261 78.3271 109.832L78.9368 109.04C78.0159 108.331 76.959 107.976 75.784 107.976L75.784 108.976ZM78.3271 109.832C79.0688 110.403 79.6715 111.256 80.1165 112.429L81.0515 112.075C80.5578 110.773 79.8592 109.749 78.9368 109.04L78.3271 109.832ZM80.1148 112.425C80.5373 113.572 80.756 114.961 80.756 116.604L81.756 116.604C81.756 114.876 81.5267 113.364 81.0532 112.079L80.1148 112.425Z" fill="white"/>
<path d="M3.3 307.276L11 307.276L11 308.453L5.786 312.699L11 312.699L11 314.118L3.3 314.118L3.3 312.941L8.514 308.695L3.3 308.695L3.3 307.276ZM8.096 299.163C8.19133 299.163 8.327 299.17 8.503 299.185L8.503 303.794C8.93567 303.713 9.28033 303.504 9.537 303.167C9.78633 302.822 9.911 302.397 9.911 301.891C9.911 301.246 9.69833 300.714 9.273 300.296L10.12 299.559C10.4353 299.823 10.6737 300.157 10.835 300.56C10.9963 300.963 11.077 301.418 11.077 301.924C11.077 302.569 10.9487 303.138 10.692 303.629C10.4353 304.12 10.0797 304.502 9.625 304.773C9.163 305.037 8.64233 305.169 8.063 305.169C7.491 305.169 6.97767 305.041 6.523 304.784C6.061 304.52 5.70167 304.157 5.445 303.695C5.18833 303.233 5.06 302.712 5.06 302.133C5.06 301.561 5.18833 301.051 5.445 300.604C5.69433 300.149 6.05 299.797 6.512 299.548C6.96667 299.291 7.49467 299.163 8.096 299.163ZM6.16 302.133C6.16 302.573 6.292 302.947 6.556 303.255C6.81267 303.556 7.15733 303.739 7.59 303.805L7.59 300.472C7.16467 300.531 6.82 300.71 6.556 301.011C6.292 301.312 6.16 301.686 6.16 302.133ZM11 293.604L8.965 295.111L11 296.629L11 298.147L8.019 295.859L5.126 298.048L5.126 296.519L7.051 295.078L5.126 293.637L5.126 292.152L7.997 294.352L11 292.053L11 293.604ZM10.681 286.847C10.813 287.008 10.912 287.206 10.978 287.441C11.044 287.668 11.077 287.91 11.077 288.167C11.077 288.812 10.9083 289.311 10.571 289.663C10.2337 290.015 9.74233 290.191 9.097 290.191L6.27 290.191L6.27 291.159L5.17 291.159L5.17 290.191L3.828 290.191L3.828 288.816L5.17 288.816L5.17 287.243L6.27 287.243L6.27 288.816L9.064 288.816C9.35 288.816 9.57 288.746 9.724 288.607C9.87067 288.468 9.944 288.266 9.944 288.002C9.944 287.694 9.86333 287.437 9.702 287.232L10.681 286.847ZM3.3 278.056C3.3 277.388 3.41 276.809 3.63 276.318C3.85 275.819 4.16533 275.438 4.576 275.174C4.98666 274.91 5.47433 274.778 6.039 274.778C6.59633 274.778 7.084 274.91 7.502 275.174C7.91266 275.438 8.228 275.819 8.448 276.318C8.668 276.809 8.778 277.388 8.778 278.056L8.778 279.794L11 279.794L11 281.224L3.3 281.224L3.3 278.056ZM7.568 278.122C7.568 277.498 7.436 277.025 7.172 276.703C6.908 276.38 6.53033 276.219 6.039 276.219C5.54766 276.219 5.17 276.38 4.906 276.703C4.642 277.025 4.51 277.498 4.51 278.122L4.51 279.794L7.568 279.794L7.568 278.122ZM5.984 271.566C5.368 271.17 5.06 270.474 5.06 269.476L6.369 269.476C6.347 269.594 6.336 269.7 6.336 269.795C6.336 270.331 6.49366 270.749 6.809 271.049C7.117 271.35 7.56433 271.5 8.151 271.5L11 271.5L11 272.875L5.126 272.875L5.126 271.566L5.984 271.566ZM11.077 265.064C11.077 265.658 10.9487 266.193 10.692 266.67C10.4353 267.146 10.0797 267.52 9.625 267.792C9.163 268.056 8.64233 268.188 8.063 268.188C7.48366 268.188 6.96666 268.056 6.512 267.792C6.05733 267.52 5.70166 267.146 5.445 266.67C5.18833 266.193 5.06 265.658 5.06 265.064C5.06 264.462 5.18833 263.923 5.445 263.447C5.70166 262.97 6.05733 262.6 6.512 262.336C6.96666 262.064 7.48366 261.929 8.063 261.929C8.64233 261.929 9.163 262.064 9.625 262.336C10.0797 262.6 10.4353 262.97 10.692 263.447C10.9487 263.923 11.077 264.462 11.077 265.064ZM9.9 265.064C9.9 264.558 9.73133 264.14 9.394 263.81C9.05666 263.48 8.613 263.315 8.063 263.315C7.513 263.315 7.06933 263.48 6.732 263.81C6.39466 264.14 6.226 264.558 6.226 265.064C6.226 265.57 6.39466 265.988 6.732 266.318C7.06933 266.64 7.513 266.802 8.063 266.802C8.613 266.802 9.05666 266.64 9.394 266.318C9.73133 265.988 9.9 265.57 9.9 265.064ZM13.211 260.559C13.211 261.138 13.0973 261.578 12.87 261.879L11.847 261.483C12.001 261.277 12.078 261.01 12.078 260.68C12.078 260.423 11.9973 260.229 11.836 260.097C11.682 259.957 11.451 259.888 11.143 259.888L5.126 259.888L5.126 258.513L11.11 258.513C11.7627 258.513 12.276 258.692 12.65 259.052C13.024 259.411 13.211 259.913 13.211 260.559ZM4.158 259.206C4.158 259.455 4.081 259.664 3.927 259.833C3.76566 260.001 3.56766 260.086 3.333 260.086C3.09833 260.086 2.904 260.001 2.75 259.833C2.58866 259.664 2.508 259.455 2.508 259.206C2.508 258.956 2.585 258.747 2.739 258.579C2.88566 258.41 3.07266 258.326 3.3 258.326C3.542 258.326 3.74733 258.41 3.916 258.579C4.07733 258.74 4.158 258.949 4.158 259.206ZM8.096 250.528C8.19133 250.528 8.327 250.535 8.503 250.55L8.503 255.159C8.93566 255.078 9.28033 254.869 9.537 254.532C9.78633 254.187 9.911 253.762 9.911 253.256C9.911 252.61 9.69833 252.079 9.273 251.661L10.12 250.924C10.4353 251.188 10.6737 251.521 10.835 251.925C10.9963 252.328 11.077 252.783 11.077 253.289C11.077 253.934 10.9487 254.502 10.692 254.994C10.4353 255.485 10.0797 255.866 9.625 256.138C9.163 256.402 8.64233 256.534 8.063 256.534C7.491 256.534 6.97766 256.405 6.523 256.149C6.061 255.885 5.70166 255.522 5.445 255.06C5.18833 254.598 5.06 254.077 5.06 253.498C5.06 252.926 5.18833 252.416 5.445 251.969C5.69433 251.514 6.05 251.162 6.512 250.913C6.96666 250.656 7.49466 250.528 8.096 250.528ZM6.16 253.498C6.16 253.938 6.292 254.312 6.556 254.62C6.81266 254.92 7.15733 255.104 7.59 255.17L7.59 251.837C7.16466 251.895 6.82 252.075 6.556 252.376C6.292 252.676 6.16 253.05 6.16 253.498ZM11.077 245.852C11.077 246.461 10.9487 247.007 10.692 247.491C10.4353 247.975 10.0797 248.353 9.625 248.624C9.163 248.895 8.64233 249.031 8.063 249.031C7.48366 249.031 6.96666 248.895 6.512 248.624C6.05733 248.353 5.70166 247.979 5.445 247.502C5.18833 247.018 5.06 246.468 5.06 245.852C5.06 245.273 5.17733 244.767 5.412 244.334C5.64666 243.894 5.984 243.564 6.424 243.344L7.04 244.4C6.76866 244.569 6.567 244.781 6.435 245.038C6.29566 245.287 6.226 245.562 6.226 245.863C6.226 246.376 6.39466 246.802 6.732 247.139C7.062 247.476 7.50566 247.645 8.063 247.645C8.62033 247.645 9.06766 247.48 9.405 247.15C9.735 246.813 9.9 246.384 9.9 245.863C9.9 245.562 9.834 245.287 9.702 245.038C9.56266 244.781 9.35733 244.569 9.086 244.4L9.702 243.344C10.142 243.571 10.483 243.905 10.725 244.345C10.9597 244.778 11.077 245.28 11.077 245.852ZM10.681 237.889C10.813 238.05 10.912 238.248 10.978 238.483C11.044 238.71 11.077 238.952 11.077 239.209C11.077 239.854 10.9083 240.353 10.571 240.705C10.2337 241.057 9.74233 241.233 9.097 241.233L6.27 241.233L6.27 242.201L5.17 242.201L5.17 241.233L3.828 241.233L3.828 239.858L5.17 239.858L5.17 238.285L6.27 238.285L6.27 239.858L9.064 239.858C9.35 239.858 9.57 239.788 9.724 239.649C9.87066 239.51 9.944 239.308 9.944 239.044C9.944 238.736 9.86333 238.479 9.702 238.274L10.681 237.889Z" fill="white"/>
</svg>
