<svg width="85" height="27" viewBox="0 0 85 27" fill="none" xmlns="http://www.w3.org/2000/svg">
<path d="M37.1735 22.957H41.1774L41.1621 22.8657L40.5836 22.82C40.3857 22.82 40.2335 22.8048 40.1117 22.7896C39.9899 22.7743 39.9138 22.7591 39.8529 22.7287C39.792 22.7135 39.7463 22.6982 39.7463 22.683C39.7311 22.6678 39.7311 22.6373 39.7311 22.6069L41.6493 13.5793H43.0194C43.537 13.6402 43.9176 13.7772 44.1307 14.0208C44.3439 14.2643 44.5113 14.7667 44.6331 15.5279L44.6636 15.7106H44.7245L44.9528 13.4423H37.4628L36.7625 15.7106H36.8386L36.9604 15.5127C37.341 14.8885 37.6912 14.4166 37.9956 14.1121C38.3001 13.8076 38.6807 13.6402 39.1222 13.5793H40.675L38.7873 22.5612C38.7568 22.683 38.498 22.7743 37.9956 22.8048L37.2192 22.8657L37.1735 22.957ZM48.5368 23.1397C49.0087 23.1397 49.6177 22.409 50.3636 20.9475L50.2723 20.9018L49.1305 22.6373L48.3998 22.546L49.572 19.6231C50.1048 18.2986 50.3789 17.5222 50.3789 17.3091C50.3789 17.0655 50.2723 16.8524 50.0744 16.6392C49.8765 16.4261 49.6938 16.3195 49.5111 16.3195C49.1457 16.3195 48.8108 16.487 48.4911 16.8219C48.1867 17.1264 47.7756 17.6592 47.2428 18.4356C46.71 19.2272 46.238 20.0036 45.8422 20.7801L45.7509 20.7496C46.238 19.5622 46.9688 17.2482 47.9735 13.8381L48.2628 12.8638L45.9945 13.1226L45.964 13.2139L47.1819 13.2596C47.2885 13.2596 47.3189 13.3814 47.258 13.6097L46.9383 14.7363C46.7252 15.4975 46.4359 16.4413 46.101 17.5679C45.7509 18.7096 45.4464 19.6687 45.2028 20.4299L44.3351 22.9266L45.0963 23.0027L45.6443 21.5565C46.2685 20.2168 46.9231 19.0902 47.5929 18.1768C48.2628 17.2634 48.7347 16.8067 48.9935 16.8067C49.161 16.8067 49.298 16.8676 49.4198 16.9589C49.5416 17.0655 49.6025 17.1873 49.6025 17.3395C49.6025 17.4917 49.3284 18.2529 48.8108 19.6231C48.689 19.958 48.5216 20.369 48.3084 20.8714C48.0953 21.3738 47.9431 21.7696 47.8365 22.0588C47.7147 22.3481 47.6691 22.5155 47.6691 22.5612C47.6691 22.6678 47.7756 22.7896 47.9887 22.9266C48.2019 23.0788 48.3846 23.1397 48.5368 23.1397ZM52.6053 23.1397C53.4274 23.1397 54.2495 22.4242 55.0715 20.978L54.965 20.9323C54.5996 21.5412 54.2647 21.9675 53.9602 22.2111C53.6557 22.4699 53.3056 22.5917 52.9402 22.5917C52.5444 22.5917 52.2399 22.4242 52.0268 22.0893C51.8137 21.7544 51.7071 21.3129 51.7071 20.7648C51.7071 20.2929 51.7832 19.7905 51.9507 19.2425C53.2447 19.0446 54.2038 18.7858 54.828 18.4661C55.4369 18.1616 55.7566 17.7506 55.7566 17.2634C55.7566 16.9894 55.6196 16.761 55.3608 16.5783C55.0868 16.3956 54.7671 16.3043 54.3865 16.3043C53.8384 16.3043 53.2904 16.5479 52.7423 17.0046C52.1943 17.4765 51.7528 18.0855 51.4179 18.8162C51.0677 19.5469 50.9003 20.2929 50.9003 21.0389C50.9003 21.6326 51.0525 22.135 51.357 22.5308C51.6614 22.9418 52.0725 23.1397 52.6053 23.1397ZM52.042 19.0902L52.0116 19.075C52.3161 18.1768 52.6967 17.4917 53.1838 17.0046C53.5796 16.6392 53.9145 16.4413 54.219 16.4413C54.4474 16.4413 54.6301 16.5174 54.7671 16.6697C54.8889 16.8219 54.965 17.0046 54.965 17.2177C54.965 17.7353 54.7518 18.1311 54.3408 18.4052C53.9298 18.6792 53.1686 18.9075 52.042 19.0902ZM58.0242 22.957H64.6922L65.6817 20.3233L65.5751 20.3081L65.4686 20.506C65.0271 21.2672 64.6008 21.8457 64.205 22.2263C63.794 22.6069 63.2611 22.8048 62.6065 22.8048L60.3382 22.7439L62.2259 13.8381C62.2412 13.7163 62.5 13.6402 63.0176 13.5945L63.931 13.5336L63.9919 13.4423H60.049L60.0642 13.5336L60.4295 13.5793C60.8558 13.6402 61.0994 13.6706 61.1755 13.6858C61.2516 13.7163 61.2821 13.7467 61.2821 13.7924L59.4248 22.546C59.3943 22.6678 59.1355 22.7439 58.6332 22.8048L58.0699 22.8657L58.0242 22.957ZM70.1779 23.1549C70.7716 23.1549 71.4415 22.4242 72.1722 20.9475L72.0809 20.9018L70.9695 22.6373L70.2845 22.5612L71.1979 19.6535L72.3397 16.35L71.5785 16.2891L71.137 17.7506H71.1218C71.1218 16.8371 70.8325 16.3804 70.254 16.3804C69.8278 16.3804 69.4167 16.5936 68.9905 17.0198C68.3663 17.644 67.7878 18.4052 67.2702 19.3034C66.7526 20.2016 66.4938 21.0236 66.4938 21.7696C66.4938 22.1806 66.6003 22.5155 66.8439 22.7591C67.0723 23.0027 67.3615 23.1245 67.6964 23.1245C68.0618 23.1245 68.4272 22.9114 68.8078 22.4547C69.1884 22.0132 69.6907 21.252 70.3149 20.1863H70.3454C69.9191 21.252 69.7212 21.9066 69.7212 22.1502C69.7212 22.409 69.7516 22.6373 69.843 22.8505C69.9343 23.0636 70.0409 23.1549 70.1779 23.1549ZM68.1075 22.5003C67.8944 22.5003 67.6964 22.4242 67.5442 22.2415C67.392 22.0588 67.3159 21.8 67.3159 21.4347C67.3159 20.7801 67.4833 20.0189 67.8487 19.1511C68.1988 18.2834 68.5794 17.644 69.0057 17.2177C69.2797 16.9437 69.5537 16.8067 69.8278 16.8067C70.1475 16.8067 70.4063 16.9589 70.6194 17.2329C70.8173 17.5222 70.9239 17.8114 70.9239 18.1007C70.9239 18.4661 70.8021 18.8923 70.5585 19.3795C69.5233 21.4651 68.7012 22.5003 68.1075 22.5003ZM74.3225 23.1397C74.8097 23.1397 75.2816 22.9723 75.7079 22.6069C76.1341 22.2415 76.3321 21.8153 76.3321 21.3129C76.3321 21.0541 76.2407 20.7801 76.0885 20.4908C75.9362 20.2168 75.5861 19.8057 75.038 19.2729C74.3986 18.664 74.0637 18.1464 74.0637 17.7506C74.0485 17.3852 74.1551 17.0807 74.3986 16.8219C74.627 16.5631 74.9467 16.4261 75.3425 16.4261C75.7383 16.4261 76.0885 16.624 76.3777 17.0046C76.0428 17.1112 75.8753 17.3091 75.8753 17.5983C75.8753 17.7506 75.9058 17.8723 75.9971 17.9637C76.0885 18.055 76.195 18.1007 76.3473 18.1007C76.4843 18.1007 76.6061 18.055 76.7126 17.9332C76.8192 17.8267 76.8649 17.6744 76.8649 17.4917C76.8497 17.1264 76.7126 16.8371 76.4538 16.624C76.1798 16.4109 75.8144 16.3043 75.3425 16.3043C74.8858 16.3043 74.4443 16.487 74.0485 16.8371C73.6375 17.2025 73.4396 17.6135 73.4548 18.0855C73.4548 18.329 73.5157 18.5574 73.6375 18.7858C73.7593 19.0293 73.881 19.212 74.0028 19.349C74.1246 19.5013 74.3378 19.6992 74.6118 19.9732C74.6118 19.9884 74.6727 20.0493 74.7945 20.1711C74.9163 20.2929 74.9771 20.369 75.0076 20.3995C75.038 20.4299 75.0989 20.506 75.1903 20.6126C75.2816 20.7192 75.3577 20.7953 75.3882 20.8562C75.4186 20.9171 75.4643 21.0084 75.5252 21.0997C75.5861 21.1911 75.6165 21.2824 75.647 21.3738C75.6622 21.4651 75.6774 21.5565 75.6774 21.6478C75.6774 21.9979 75.5709 22.3176 75.3425 22.6069C75.1142 22.8961 74.7792 23.0331 74.3225 23.0331C73.8049 23.0331 73.3482 22.8048 72.9524 22.3329C73.0894 22.2872 73.2112 22.2111 73.3178 22.0893C73.4091 21.9827 73.47 21.8609 73.47 21.7239C73.47 21.5869 73.4243 21.4651 73.333 21.3738C73.2417 21.2824 73.1199 21.2215 72.9829 21.2215C72.8458 21.2215 72.7241 21.2824 72.6327 21.4042C72.5261 21.526 72.4805 21.6782 72.4805 21.8609C72.4805 22.2567 72.6479 22.5612 73.0133 22.7896C73.3634 23.0331 73.8049 23.1397 74.3225 23.1397ZM78.0862 23.1397C78.5581 23.1397 79.1519 22.409 79.8826 20.9475L79.7913 20.9018L78.6952 22.6373L77.8883 22.546L79.5781 16.9589H80.9178L81.0396 16.5479L79.7151 16.5327L80.3545 14.4622H79.6086L78.9692 16.5327L77.8883 16.5479L77.7513 16.9437L78.8322 16.9589L77.1576 22.5155C77.1119 22.6373 77.2185 22.7591 77.462 22.9114C77.7056 23.0636 77.9188 23.1397 78.0862 23.1397ZM81.1504 23.1702C81.3331 23.1702 81.4854 23.1093 81.6072 22.9723C81.7289 22.8352 81.8051 22.6678 81.8051 22.4851C81.8051 22.3176 81.7442 22.1654 81.6224 22.0284C81.5006 21.9066 81.3484 21.8305 81.1657 21.8305C80.9678 21.8305 80.8003 21.9066 80.6633 22.0284C80.5263 22.1654 80.4654 22.3176 80.4654 22.4851C80.4654 22.6678 80.5263 22.8352 80.6633 22.9723C80.7851 23.1093 80.9525 23.1702 81.1504 23.1702Z" fill="white"/>
<path d="M4.93862 10.0205H6.74008L8.04678 2.64973H12.3601L12.6392 1.14006H2.19837L1.91927 2.64973H6.24532L4.93862 10.0205ZM12.2928 10.0205H14.0943L14.4115 8.24442V8.26979C14.7794 6.18923 15.8831 4.83179 17.2532 4.83179C18.4838 4.83179 18.8644 5.5676 18.5345 7.48324L18.0778 10.0205H19.8793L20.3741 7.26757C20.8561 4.50194 20.1838 3.49972 18.395 3.47435C16.4793 3.47435 15.3503 4.60343 14.7794 6.29072H14.6779L15.845 1.14006H13.8659L12.2928 10.0205ZM24.943 10.2235C26.5415 10.2235 27.29 10.0713 28.5967 9.60186L28.8504 8.15561C28.0766 8.46009 27.3661 8.85336 25.8184 8.85336C24.1438 8.85336 23.3826 8.43471 23.3572 7.39443H29.2564L29.4467 6.35415C29.7258 4.62881 28.4064 3.47435 26.1355 3.47435C23.8393 3.47435 22.0759 4.8191 21.7207 6.84892C21.3655 8.87874 22.6468 10.2235 24.943 10.2235ZM23.4714 6.51907C23.8012 5.31387 24.5624 4.85716 25.8945 4.85716C27.2646 4.85716 27.8736 5.27581 27.7213 6.41758L23.4714 6.51907ZM34.0548 10.0205H35.8563L36.5286 6.2146H42.7069L42.9479 4.80642H36.7697L37.1503 2.64973H43.4427L43.7091 1.14006H35.6279L34.0548 10.0205ZM45.846 2.5863C46.5437 2.5863 47.0258 2.25646 47.1527 1.55871C47.2668 0.873645 46.8863 0.5438 46.2012 0.5438C45.5288 0.5438 45.034 0.873645 44.9199 1.55871C44.793 2.25646 45.1609 2.5863 45.846 2.5863ZM43.6512 10.0205H45.4527L46.5691 3.67733H44.7676L43.6512 10.0205ZM47.2845 10.0205H49.0859L49.4792 7.77502C49.8725 5.80864 51.0904 4.98402 53.7038 4.98402L53.9575 3.47435C51.5852 3.47435 50.4814 4.21016 49.7837 6.29072H49.6568L50.38 3.67733H48.4009L47.2845 10.0205ZM56.8786 10.2235C59.1114 10.2235 60.7226 9.60186 60.9763 8.13024C61.4584 5.36462 55.5719 6.78549 55.8003 5.55491C55.8764 5.11089 56.5615 4.89522 58.0585 4.89522C59.0099 4.89522 60.1137 5.03477 60.9763 5.22507L61.2301 3.82957C60.1644 3.6139 58.8831 3.47435 58.1219 3.47435C55.8891 3.47435 54.2653 4.15941 54.0115 5.58028C53.5294 8.33322 59.4413 6.7728 59.2129 8.13024C59.1114 8.66307 58.401 8.82799 56.8406 8.82799C55.7242 8.82799 54.8108 8.68844 53.8212 8.28248L53.5675 9.72872C54.5697 10.0332 55.9018 10.2235 56.8786 10.2235ZM63.8287 10.1474C64.5137 10.1474 65.0339 10.0713 65.5921 9.89364L65.757 8.94217C63.9048 9.04366 63.9429 8.86605 64.2093 7.35637L64.6279 4.98402H66.4548L66.6958 3.67733H64.8563L65.1734 1.90124L63.5876 2.15497L63.3085 3.67733H62.1541L61.913 4.98402H62.8265L62.3444 7.73696C62.0272 9.55111 62.1795 10.1474 63.8287 10.1474Z" fill="white"/>
</svg>
