<svg width="14" height="157" viewBox="0 0 14 157" fill="none" xmlns="http://www.w3.org/2000/svg">
<path d="M8 81.24L4.64 81.248L7.408 82.896L7.408 83.48L4.712 85.12L8 85.12L8 86.336L2.4 86.336L2.4 85.264L5.88 83.168L2.4 81.104L2.4 80.04L8 80.024L8 81.24ZM6.8 73.4074L6.8 76.0074L8 76.5034L8 77.8314L2.4 75.3354L2.4 74.0554L8 71.5514L8 72.9114L6.8 73.4074ZM5.816 73.8154L3.672 74.7034L5.816 75.5914L5.816 73.8154ZM5.8 67.3304L6.584 68.0824L8 68.0824L8 69.3704L2.4 69.3704L2.4 68.0824L5.016 68.0824L2.4 65.6024L2.4 64.1624L4.896 66.4824L8 64.0264L8 65.5384L5.8 67.3304ZM6.96 57.5125L8 57.5125L8 61.8485L2.4 61.8485L2.4 57.6165L3.44 57.6165L3.44 60.5605L4.656 60.5605L4.656 57.9605L5.664 57.9605L5.664 60.5605L6.96 60.5605L6.96 57.5125ZM8 47.4477L6.44 48.5277L6.44 48.5917L6.44 49.7197L8 49.7197L8 51.0157L2.4 51.0157L2.4 48.5917C2.4 48.0957 2.48266 47.6664 2.648 47.3037C2.81333 46.9357 3.048 46.653 3.352 46.4557C3.656 46.2584 4.016 46.1597 4.432 46.1597C4.848 46.1597 5.208 46.261 5.512 46.4637C5.81066 46.661 6.04 46.9437 6.2 47.3117L8 46.0557L8 47.4477ZM4.432 47.4717C4.11733 47.4717 3.87733 47.573 3.712 47.7757C3.54133 47.9784 3.456 48.2744 3.456 48.6637L3.456 49.7197L5.408 49.7197L5.408 48.6637C5.408 48.2744 5.32266 47.9784 5.152 47.7757C4.98133 47.573 4.74133 47.4717 4.432 47.4717ZM6.96 39.1969L8 39.1969L8 43.5329L2.4 43.5329L2.4 39.3009L3.44 39.3009L3.44 42.2449L4.656 42.2449L4.656 39.6449L5.664 39.6449L5.664 42.2449L6.96 42.2449L6.96 39.1969ZM8.6 30.5253C8.824 30.7066 8.99466 30.928 9.112 31.1893C9.22933 31.4453 9.288 31.728 9.288 32.0373C9.288 32.4533 9.19733 32.8293 9.016 33.1653C8.84 33.5013 8.52533 33.8853 8.072 34.3173C8.008 34.824 7.84533 35.2773 7.584 35.6773C7.32266 36.072 6.98666 36.3813 6.576 36.6053C6.16 36.824 5.70133 36.9333 5.2 36.9333C4.65066 36.9333 4.15733 36.8026 3.72 36.5413C3.27733 36.2746 2.93066 35.9093 2.68 35.4453C2.42933 34.976 2.304 34.4506 2.304 33.8693C2.304 33.288 2.42933 32.7653 2.68 32.3013C2.93066 31.8373 3.27733 31.472 3.72 31.2053C4.15733 30.9386 4.65066 30.8053 5.2 30.8053C5.85066 30.8053 6.42133 30.9893 6.912 31.3573C7.40266 31.72 7.744 32.2026 7.936 32.8053C8.07466 32.672 8.17333 32.544 8.232 32.4213C8.296 32.2933 8.328 32.1573 8.328 32.0133C8.328 31.6666 8.18933 31.3626 7.912 31.1013L8.6 30.5253ZM5.2 35.6213C5.54666 35.6213 5.856 35.5466 6.128 35.3973C6.4 35.2426 6.61333 35.032 6.768 34.7653C6.91733 34.4986 6.992 34.2 6.992 33.8693C6.992 33.5386 6.91733 33.24 6.768 32.9733C6.61333 32.7066 6.4 32.4986 6.128 32.3493C5.856 32.1946 5.54666 32.1173 5.2 32.1173C4.85333 32.1173 4.544 32.1946 4.272 32.3493C4 32.4986 3.78933 32.7066 3.64 32.9733C3.48533 33.24 3.408 33.5386 3.408 33.8693C3.408 34.2 3.48533 34.4986 3.64 34.7653C3.78933 35.032 4 35.2426 4.272 35.3973C4.544 35.5466 4.85333 35.6213 5.2 35.6213ZM8.096 25.7433C8.096 26.5433 7.87466 27.1673 7.432 27.6153C6.98933 28.058 6.35733 28.2793 5.536 28.2793L2.4 28.2793L2.4 26.9833L5.488 26.9833C6.49066 26.9833 6.992 26.5673 6.992 25.7353C6.992 25.33 6.872 25.0206 6.632 24.8073C6.38666 24.594 6.00533 24.4873 5.488 24.4873L2.4 24.4873L2.4 23.2073L5.536 23.2073C6.35733 23.2073 6.98933 23.4313 7.432 23.8793C7.87466 24.322 8.096 24.9433 8.096 25.7433ZM6.96 15.9906L8 15.9906L8 20.3266L2.4 20.3266L2.4 16.0946L3.44 16.0946L3.44 19.0386L4.656 19.0386L4.656 16.4386L5.664 16.4386L5.664 19.0386L6.96 19.0386L6.96 15.9906ZM8.096 11.5194C8.096 11.9621 8.03733 12.3914 7.92 12.8074C7.79733 13.2181 7.64 13.5488 7.448 13.7994L6.472 13.3594C6.648 13.1194 6.78933 12.8341 6.896 12.5034C7.00266 12.1728 7.056 11.8421 7.056 11.5114C7.056 11.1434 7.00266 10.8714 6.896 10.6954C6.784 10.5194 6.63733 10.4314 6.456 10.4314C6.32266 10.4314 6.21333 10.4848 6.128 10.5914C6.03733 10.6928 5.96533 10.8261 5.912 10.9914C5.85866 11.1514 5.8 11.3701 5.736 11.6474C5.63466 12.0741 5.53333 12.4234 5.432 12.6954C5.33066 12.9674 5.168 13.2021 4.944 13.3994C4.72 13.5914 4.42133 13.6874 4.048 13.6874C3.72266 13.6874 3.42933 13.5994 3.168 13.4234C2.90133 13.2474 2.69066 12.9834 2.536 12.6314C2.38133 12.2741 2.304 11.8394 2.304 11.3274C2.304 10.9701 2.34666 10.6208 2.432 10.2794C2.51733 9.9381 2.64 9.63944 2.8 9.38344L3.784 9.78344C3.49066 10.3008 3.344 10.8181 3.344 11.3354C3.344 11.6981 3.40266 11.9674 3.52 12.1434C3.63733 12.3141 3.792 12.3994 3.984 12.3994C4.176 12.3994 4.32 12.3008 4.416 12.1034C4.50666 11.9008 4.59733 11.5941 4.688 11.1834C4.78933 10.7568 4.89066 10.4074 4.992 10.1354C5.09333 9.86344 5.25333 9.63144 5.472 9.43944C5.69066 9.2421 5.98666 9.14344 6.36 9.14344C6.68 9.14344 6.97333 9.2341 7.24 9.41544C7.50133 9.59144 7.70933 9.8581 7.864 10.2154C8.01866 10.5728 8.096 11.0074 8.096 11.5194ZM3.456 5.576L3.456 7.368L2.4 7.368L2.4 2.488L3.456 2.488L3.456 4.28L8 4.28L8 5.576L3.456 5.576Z" fill="#828282" fill-opacity="0.35"/>
<rect x="5" y="157" width="57" height="1" transform="rotate(-90 5 157)" fill="#C4C4C4" fill-opacity="0.2"/>
</svg>
